<svg xmlns="http://www.w3.org/2000/svg" viewBox="0 0 231.04 113.71"><defs><style>.cls-1{fill:#f90a0a;}.cls-2{fill:#fff;stroke:#f90a0a;stroke-miterlimit:10;}</style></defs><g id="Layer_2" data-name="Layer 2"><g id="Layer_1-2" data-name="Layer 1"><path class="cls-1" d="M190.71,113.71a75.19,75.19,0,0,0-150.38,0Z"/><polygon class="cls-2" points="0.5 0.52 0.5 11.9 6.98 11.9 6.98 55.25 18.38 55.25 18.38 0.5 0.5 0.52"/><polygon class="cls-2" points="35.86 0.52 35.86 11.9 42.34 11.9 42.34 55.25 53.74 55.25 53.74 0.5 35.86 0.52"/><polygon class="cls-2" points="71.22 0.52 71.22 11.9 77.7 11.9 77.7 55.25 89.1 55.25 89.1 0.5 71.22 0.52"/><polygon class="cls-2" points="106.58 0.52 106.58 11.9 113.06 11.9 113.06 55.25 124.46 55.25 124.46 0.5 106.58 0.52"/><polygon class="cls-2" points="141.94 0.52 141.94 11.9 148.42 11.9 148.42 55.25 159.82 55.25 159.82 0.5 141.94 0.52"/><polygon class="cls-2" points="177.3 0.52 177.3 11.9 183.78 11.9 183.78 55.25 195.18 55.25 195.18 0.5 177.3 0.52"/><polygon class="cls-2" points="212.66 0.52 212.66 11.9 219.14 11.9 219.14 55.25 230.54 55.25 230.54 0.5 212.66 0.52"/></g></g></svg>