<svg xmlns="http://www.w3.org/2000/svg" viewBox="0 0 260.84 126.69"><defs><style>.cls-1{fill:none;stroke:#fff;stroke-miterlimit:10;stroke-width:0.54px;}</style></defs><g id="Layer_2" data-name="Layer 2"><g id="Layer_1-2" data-name="Layer 1"><polygon class="cls-1" points="0.27 0.29 0.27 11.5 6.65 11.5 6.65 54.21 17.89 54.21 17.89 0.27 0.27 0.29"/><polygon class="cls-1" points="34.94 0.29 34.94 11.5 41.32 11.5 41.32 54.21 52.56 54.21 52.56 0.27 34.94 0.29"/><polygon class="cls-1" points="69.61 0.29 69.61 11.5 75.99 11.5 75.99 54.21 87.22 54.21 87.22 0.27 69.61 0.29"/><polygon class="cls-1" points="104.28 0.29 104.28 11.5 110.66 11.5 110.66 54.21 121.89 54.21 121.89 0.27 104.28 0.29"/><polygon class="cls-1" points="138.95 0.29 138.95 11.5 145.33 11.5 145.33 54.21 156.56 54.21 156.56 0.27 138.95 0.29"/><polygon class="cls-1" points="173.62 0.29 173.62 11.5 180 11.5 180 54.21 191.23 54.21 191.23 0.27 173.62 0.29"/><polygon class="cls-1" points="0.27 72.5 0.27 83.71 6.65 83.71 6.65 126.42 17.89 126.42 17.89 72.48 0.27 72.5"/><polygon class="cls-1" points="34.94 72.5 34.94 83.71 41.32 83.71 41.32 126.42 52.56 126.42 52.56 72.48 34.94 72.5"/><polygon class="cls-1" points="69.61 72.5 69.61 83.71 75.99 83.71 75.99 126.42 87.22 126.42 87.22 72.48 69.61 72.5"/><polygon class="cls-1" points="104.28 72.5 104.28 83.71 110.66 83.71 110.66 126.42 121.89 126.42 121.89 72.48 104.28 72.5"/><polygon class="cls-1" points="138.95 72.5 138.95 83.71 145.33 83.71 145.33 126.42 156.56 126.42 156.56 72.48 138.95 72.5"/><polygon class="cls-1" points="173.62 72.5 173.62 83.71 180 83.71 180 126.42 191.23 126.42 191.23 72.48 173.62 72.5"/><polygon class="cls-1" points="208.28 0.29 208.28 11.5 214.67 11.5 214.67 54.21 225.9 54.21 225.9 0.27 208.28 0.29"/><polygon class="cls-1" points="208.28 72.5 208.28 83.71 214.67 83.71 214.67 126.42 225.9 126.42 225.9 72.48 208.28 72.5"/><polygon class="cls-1" points="242.95 0.29 242.95 11.5 249.34 11.5 249.34 54.21 260.57 54.21 260.57 0.27 242.95 0.29"/><polygon class="cls-1" points="242.95 72.5 242.95 83.71 249.34 83.71 249.34 126.42 260.57 126.42 260.57 72.48 242.95 72.5"/></g></g></svg>