<svg xmlns="http://www.w3.org/2000/svg" viewBox="0 0 261.3 127.15"><defs><style>.cls-1{fill:#23297a;}.cls-2{fill:none;stroke:#23297a;stroke-miterlimit:10;}</style></defs><g id="Layer_2" data-name="Layer 2"><g id="Layer_1-2" data-name="Layer 1"><polygon class="cls-1" points="0.5 0.52 0.5 11.73 6.89 11.73 6.89 54.45 18.12 54.45 18.12 0.5 0.5 0.52"/><polygon class="cls-1" points="35.17 0.52 35.17 11.73 41.55 11.73 41.55 54.45 52.79 54.45 52.79 0.5 35.17 0.52"/><polygon class="cls-2" points="69.84 0.52 69.84 11.73 76.22 11.73 76.22 54.45 87.46 54.45 87.46 0.5 69.84 0.52"/><polygon class="cls-1" points="104.51 0.52 104.51 11.73 110.89 11.73 110.89 54.45 122.13 54.45 122.13 0.5 104.51 0.52"/><polygon class="cls-1" points="139.18 0.52 139.18 11.73 145.56 11.73 145.56 54.45 156.79 54.45 156.79 0.5 139.18 0.52"/><polygon class="cls-1" points="173.85 0.52 173.85 11.73 180.23 11.73 180.23 54.45 191.47 54.45 191.47 0.5 173.85 0.52"/><polygon class="cls-2" points="0.5 72.73 0.5 83.94 6.89 83.94 6.89 126.66 18.12 126.66 18.12 72.71 0.5 72.73"/><polygon class="cls-1" points="35.17 72.73 35.17 83.94 41.55 83.94 41.55 126.66 52.79 126.66 52.79 72.71 35.17 72.73"/><polygon class="cls-1" points="69.84 72.73 69.84 83.94 76.22 83.94 76.22 126.66 87.46 126.66 87.46 72.71 69.84 72.73"/><polygon class="cls-1" points="104.51 72.73 104.51 83.94 110.89 83.94 110.89 126.66 122.13 126.66 122.13 72.71 104.51 72.73"/><polygon class="cls-2" points="139.18 72.73 139.18 83.94 145.56 83.94 145.56 126.66 156.79 126.66 156.79 72.71 139.18 72.73"/><polygon class="cls-1" points="173.85 72.73 173.85 83.94 180.23 83.94 180.23 126.66 191.47 126.66 191.47 72.71 173.85 72.73"/><polygon class="cls-1" points="208.52 0.52 208.52 11.73 214.9 11.73 214.9 54.45 226.13 54.45 226.13 0.5 208.52 0.52"/><polygon class="cls-1" points="208.52 72.73 208.52 83.94 214.9 83.94 214.9 126.66 226.13 126.66 226.13 72.71 208.52 72.73"/><polygon class="cls-2" points="243.19 0.52 243.19 11.73 249.57 11.73 249.57 54.45 260.8 54.45 260.8 0.5 243.19 0.52"/><polygon class="cls-1" points="243.19 72.73 243.19 83.94 249.57 83.94 249.57 126.66 260.8 126.66 260.8 72.71 243.19 72.73"/></g></g></svg>