<svg xmlns="http://www.w3.org/2000/svg" viewBox="0 0 178.79 51.22"><defs><style>.cls-1{fill:none;stroke:#fff;stroke-miterlimit:10;}.cls-2{fill:#fff;}</style></defs><g id="Layer_2" data-name="Layer 2"><g id="Layer_1-2" data-name="Layer 1"><polygon class="cls-1" points="0.5 0.52 0.5 10.96 6.45 10.96 6.45 50.72 16.9 50.72 16.9 0.5 0.5 0.52"/><polygon class="cls-1" points="32.78 0.52 32.78 10.96 38.72 10.96 38.72 50.72 49.18 50.72 49.18 0.5 32.78 0.52"/><polygon class="cls-1" points="65.05 0.52 65.05 10.96 71 10.96 71 50.72 81.46 50.72 81.46 0.5 65.05 0.52"/><polygon class="cls-2" points="97.33 0.52 97.33 10.96 103.27 10.96 103.27 50.72 113.73 50.72 113.73 0.5 97.33 0.52"/><polygon class="cls-1" points="129.61 0.52 129.61 10.96 135.55 10.96 135.55 50.72 146.01 50.72 146.01 0.5 129.61 0.52"/><polygon class="cls-1" points="161.88 0.52 161.88 10.96 167.83 10.96 167.83 50.72 178.28 50.72 178.28 0.5 161.88 0.52"/></g></g></svg>