<svg xmlns="http://www.w3.org/2000/svg" viewBox="0 0 161.35 167.57"><defs><style>.cls-1{fill:none;stroke:#23297a;stroke-miterlimit:10;stroke-width:0.9px;}</style></defs><g id="Layer_2" data-name="Layer 2"><g id="Layer_1-2" data-name="Layer 1"><polygon class="cls-1" points="0.45 0.47 0.45 9.89 5.82 9.89 5.82 45.78 15.25 45.78 15.25 0.45 0.45 0.47"/><polygon class="cls-1" points="29.58 0.47 29.58 9.89 34.95 9.89 34.95 45.78 44.38 45.78 44.38 0.45 29.58 0.47"/><polygon class="cls-1" points="58.71 0.47 58.71 9.89 64.07 9.89 64.07 45.78 73.51 45.78 73.51 0.45 58.71 0.47"/><polygon class="cls-1" points="87.84 0.47 87.84 9.89 93.2 9.89 93.2 45.78 102.64 45.78 102.64 0.45 87.84 0.47"/><polygon class="cls-1" points="116.97 0.47 116.97 9.89 122.33 9.89 122.33 45.78 131.77 45.78 131.77 0.45 116.97 0.47"/><polygon class="cls-1" points="146.1 0.47 146.1 9.89 151.46 9.89 151.46 45.78 160.9 45.78 160.9 0.45 146.1 0.47"/><polygon class="cls-1" points="0.45 61.14 0.45 70.56 5.82 70.56 5.82 106.45 15.25 106.45 15.25 61.12 0.45 61.14"/><polygon class="cls-1" points="29.58 61.14 29.58 70.56 34.95 70.56 34.95 106.45 44.38 106.45 44.38 61.12 29.58 61.14"/><polygon class="cls-1" points="58.71 61.14 58.71 70.56 64.07 70.56 64.07 106.45 73.51 106.45 73.51 61.12 58.71 61.14"/><polygon class="cls-1" points="87.84 61.14 87.84 70.56 93.2 70.56 93.2 106.45 102.64 106.45 102.64 61.12 87.84 61.14"/><polygon class="cls-1" points="116.97 61.14 116.97 70.56 122.33 70.56 122.33 106.45 131.77 106.45 131.77 61.12 116.97 61.14"/><polygon class="cls-1" points="146.1 61.14 146.1 70.56 151.46 70.56 151.46 106.45 160.9 106.45 160.9 61.12 146.1 61.14"/><polygon class="cls-1" points="0.45 121.81 0.45 131.23 5.82 131.23 5.82 167.12 15.25 167.12 15.25 121.79 0.45 121.81"/><polygon class="cls-1" points="29.58 121.81 29.58 131.23 34.95 131.23 34.95 167.12 44.38 167.12 44.38 121.79 29.58 121.81"/><polygon class="cls-1" points="58.71 121.81 58.71 131.23 64.07 131.23 64.07 167.12 73.51 167.12 73.51 121.79 58.71 121.81"/><polygon class="cls-1" points="87.84 121.81 87.84 131.23 93.2 131.23 93.2 167.12 102.64 167.12 102.64 121.79 87.84 121.81"/><polygon class="cls-1" points="116.97 121.81 116.97 131.23 122.33 131.23 122.33 167.12 131.77 167.12 131.77 121.79 116.97 121.81"/><polygon class="cls-1" points="146.1 121.81 146.1 131.23 151.46 131.23 151.46 167.12 160.9 167.12 160.9 121.79 146.1 121.81"/></g></g></svg>