<svg xmlns="http://www.w3.org/2000/svg" viewBox="0 0 161.85 168.06"><defs><style>.cls-1{fill:none;stroke:#23297a;stroke-miterlimit:10;stroke-width:1.4px;}.cls-2{fill:#23297a;}</style></defs><g id="Layer_2" data-name="Layer 2"><g id="Layer_1-2" data-name="Layer 1"><polygon class="cls-1" points="0.7 0.72 0.7 10.14 6.07 10.14 6.07 46.02 15.5 46.02 15.5 0.7 0.7 0.72"/><polygon class="cls-1" points="29.83 0.72 29.83 10.14 35.19 10.14 35.19 46.02 44.63 46.02 44.63 0.7 29.83 0.72"/><polygon class="cls-1" points="58.96 0.72 58.96 10.14 64.32 10.14 64.32 46.02 73.76 46.02 73.76 0.7 58.96 0.72"/><polygon class="cls-2" points="88.09 0.72 88.09 10.14 93.45 10.14 93.45 46.02 102.89 46.02 102.89 0.7 88.09 0.72"/><polygon class="cls-1" points="117.22 0.72 117.22 10.14 122.58 10.14 122.58 46.02 132.02 46.02 132.02 0.7 117.22 0.72"/><polygon class="cls-1" points="146.34 0.72 146.34 10.14 151.71 10.14 151.71 46.02 161.15 46.02 161.15 0.7 146.34 0.72"/><polygon class="cls-1" points="0.7 61.39 0.7 70.81 6.07 70.81 6.07 106.69 15.5 106.69 15.5 61.37 0.7 61.39"/><polygon class="cls-1" points="29.83 61.39 29.83 70.81 35.19 70.81 35.19 106.69 44.63 106.69 44.63 61.37 29.83 61.39"/><polygon class="cls-2" points="58.96 61.39 58.96 70.81 64.32 70.81 64.32 106.69 73.76 106.69 73.76 61.37 58.96 61.39"/><polygon class="cls-1" points="88.09 61.39 88.09 70.81 93.45 70.81 93.45 106.69 102.89 106.69 102.89 61.37 88.09 61.39"/><polygon class="cls-2" points="117.22 61.39 117.22 70.81 122.58 70.81 122.58 106.69 132.02 106.69 132.02 61.37 117.22 61.39"/><polygon class="cls-1" points="146.34 61.39 146.34 70.81 151.71 70.81 151.71 106.69 161.15 106.69 161.15 61.37 146.34 61.39"/><polygon class="cls-1" points="0.7 122.06 0.7 131.47 6.07 131.47 6.07 167.36 15.5 167.36 15.5 122.04 0.7 122.06"/><polygon class="cls-1" points="29.83 122.06 29.83 131.47 35.19 131.47 35.19 167.36 44.63 167.36 44.63 122.04 29.83 122.06"/><polygon class="cls-1" points="58.96 122.06 58.96 131.47 64.32 131.47 64.32 167.36 73.76 167.36 73.76 122.04 58.96 122.06"/><polygon class="cls-1" points="88.09 122.06 88.09 131.47 93.45 131.47 93.45 167.36 102.89 167.36 102.89 122.04 88.09 122.06"/><polygon class="cls-1" points="117.22 122.06 117.22 131.47 122.58 131.47 122.58 167.36 132.02 167.36 132.02 122.04 117.22 122.06"/><polygon class="cls-1" points="146.34 122.06 146.34 131.47 151.71 131.47 151.71 167.36 161.15 167.36 161.15 122.04 146.34 122.06"/></g></g></svg>