<svg xmlns="http://www.w3.org/2000/svg" viewBox="0 0 63.88 92.32"><defs><style>.cls-1{fill:none;stroke:#f90a0a;stroke-miterlimit:10;stroke-width:0.78px;}</style></defs><g id="Layer_2" data-name="Layer 2"><g id="Layer_1-2" data-name="Layer 1"><polygon class="cls-1" points="0.39 0.41 0.39 8.54 5.02 8.54 5.02 39.53 13.17 39.53 13.17 0.39 0.39 0.41"/><polygon class="cls-1" points="25.55 0.41 25.55 8.54 30.18 8.54 30.18 39.53 38.33 39.53 38.33 0.39 25.55 0.41"/><polygon class="cls-1" points="50.7 0.41 50.7 8.54 55.34 8.54 55.34 39.53 63.49 39.53 63.49 0.39 50.7 0.41"/><polygon class="cls-1" points="0.39 52.8 0.39 60.94 5.02 60.94 5.02 91.93 13.17 91.93 13.17 52.79 0.39 52.8"/><polygon class="cls-1" points="25.55 52.8 25.55 60.94 30.18 60.94 30.18 91.93 38.33 91.93 38.33 52.79 25.55 52.8"/><polygon class="cls-1" points="50.7 52.8 50.7 60.94 55.34 60.94 55.34 91.93 63.49 91.93 63.49 52.79 50.7 52.8"/></g></g></svg>