<svg xmlns="http://www.w3.org/2000/svg" viewBox="0 0 180.14 194.14"><defs><style>.cls-1{fill:#f90a0a;}.cls-2{fill:#fff;stroke:#f90a0a;stroke-miterlimit:10;stroke-width:1.09px;}</style></defs><g id="Layer_2" data-name="Layer 2"><g id="Layer_1-2" data-name="Layer 1"><path class="cls-1" d="M180.14,194.14A90.07,90.07,0,0,0,0,194.14Z"/><polygon class="cls-2" points="28.35 0.57 28.35 11.94 34.83 11.94 34.83 55.3 46.23 55.3 46.23 0.55 28.35 0.57"/><polygon class="cls-2" points="63.54 0.57 63.54 11.94 70.02 11.94 70.02 55.3 81.42 55.3 81.42 0.55 63.54 0.57"/><polygon class="cls-2" points="98.72 0.57 98.72 11.94 105.2 11.94 105.2 55.3 116.61 55.3 116.61 0.55 98.72 0.57"/><polygon class="cls-2" points="133.91 0.57 133.91 11.94 140.39 11.94 140.39 55.3 151.79 55.3 151.79 0.55 133.91 0.57"/><polygon class="cls-2" points="28.35 73.86 28.35 85.23 34.83 85.23 34.83 128.58 46.23 128.58 46.23 73.83 28.35 73.86"/><polygon class="cls-2" points="63.54 73.86 63.54 85.23 70.02 85.23 70.02 128.58 81.42 128.58 81.42 73.83 63.54 73.86"/><polygon class="cls-2" points="98.72 73.86 98.72 85.23 105.2 85.23 105.2 128.58 116.61 128.58 116.61 73.83 98.72 73.86"/><polygon class="cls-2" points="133.91 73.86 133.91 85.23 140.39 85.23 140.39 128.58 151.79 128.58 151.79 73.83 133.91 73.86"/></g></g></svg>