<svg xmlns="http://www.w3.org/2000/svg" viewBox="0 0 114.23 118.64"><defs><style>.cls-1{fill:none;stroke:#23297a;stroke-miterlimit:10;}</style></defs><g id="Layer_2" data-name="Layer 2"><g id="Layer_1-2" data-name="Layer 1"><polygon class="cls-1" points="0.5 0.52 0.5 10.96 6.45 10.96 6.45 50.72 16.9 50.72 16.9 0.5 0.5 0.52"/><polygon class="cls-1" points="32.78 0.52 32.78 10.96 38.72 10.96 38.72 50.72 49.18 50.72 49.18 0.5 32.78 0.52"/><polygon class="cls-1" points="65.05 0.52 65.05 10.96 71 10.96 71 50.72 81.46 50.72 81.46 0.5 65.05 0.52"/><polygon class="cls-1" points="97.33 0.52 97.33 10.96 103.27 10.96 103.27 50.72 113.73 50.72 113.73 0.5 97.33 0.52"/><polygon class="cls-1" points="0.5 67.94 0.5 78.37 6.45 78.37 6.45 118.14 16.9 118.14 16.9 67.92 0.5 67.94"/><polygon class="cls-1" points="32.78 67.94 32.78 78.37 38.72 78.37 38.72 118.14 49.18 118.14 49.18 67.92 32.78 67.94"/><polygon class="cls-1" points="65.05 67.94 65.05 78.37 71 78.37 71 118.14 81.46 118.14 81.46 67.92 65.05 67.94"/><polygon class="cls-1" points="97.33 67.94 97.33 78.37 103.27 78.37 103.27 118.14 113.73 118.14 113.73 67.92 97.33 67.94"/></g></g></svg>