<svg xmlns="http://www.w3.org/2000/svg" viewBox="0 0 445.75 67.66"><defs><style>.cls-1{fill:none;stroke:#23297a;stroke-miterlimit:10;}.cls-2{fill:#f90a0a;}</style></defs><g id="Layer_2" data-name="Layer 2"><g id="Layer_1-2" data-name="Layer 1"><polygon class="cls-1" points="0.5 16.96 0.5 27.39 6.45 27.39 6.45 67.16 16.9 67.16 16.9 16.94 0.5 16.96"/><polygon class="cls-1" points="32.78 16.96 32.78 27.39 38.72 27.39 38.72 67.16 49.18 67.16 49.18 16.94 32.78 16.96"/><polygon class="cls-1" points="65.05 16.96 65.05 27.39 71 27.39 71 67.16 81.46 67.16 81.46 16.94 65.05 16.96"/><polygon class="cls-1" points="97.33 16.96 97.33 27.39 103.27 27.39 103.27 67.16 113.73 67.16 113.73 16.94 97.33 16.96"/><polygon class="cls-1" points="129.61 16.96 129.61 27.39 135.55 27.39 135.55 67.16 146.01 67.16 146.01 16.94 129.61 16.96"/><polygon class="cls-1" points="299.74 16.96 299.74 27.39 305.68 27.39 305.68 67.16 316.14 67.16 316.14 16.94 299.74 16.96"/><polygon class="cls-1" points="332.02 16.96 332.02 27.39 337.96 27.39 337.96 67.16 348.42 67.16 348.42 16.94 332.02 16.96"/><polygon class="cls-1" points="364.29 16.96 364.29 27.39 370.24 27.39 370.24 67.16 380.69 67.16 380.69 16.94 364.29 16.96"/><polygon class="cls-1" points="396.57 16.96 396.57 27.39 402.51 27.39 402.51 67.16 412.97 67.16 412.97 16.94 396.57 16.96"/><polygon class="cls-1" points="428.85 16.96 428.85 27.39 434.79 27.39 434.79 67.16 445.25 67.16 445.25 16.94 428.85 16.96"/><path class="cls-2" d="M271.53,48.19a48.66,48.66,0,0,0-97.31,0Z"/></g></g></svg>