<svg xmlns="http://www.w3.org/2000/svg" viewBox="0 0 538 165.5"><defs><style>.cls-1{fill:#22297a;}.cls-2,.cls-3{fill:none;stroke-miterlimit:10;}.cls-2{stroke:#f90a0a;}.cls-3{stroke:#23297a;}</style></defs><g id="Layer_2" data-name="Layer 2"><g id="Layer_1-2" data-name="Layer 1"><path class="cls-1" d="M357.19,165.5a88.19,88.19,0,0,0-176.38,0Z"/><path class="cls-2" d="M321.73,52.72a52.73,52.73,0,0,0-105.46,0Z"/><polygon class="cls-3" points="0.5 48.05 0.5 58.48 6.45 58.48 6.45 98.25 16.9 98.25 16.9 48.03 0.5 48.05"/><polygon class="cls-3" points="32.78 48.05 32.78 58.48 38.72 58.48 38.72 98.25 49.18 98.25 49.18 48.03 32.78 48.05"/><polygon class="cls-3" points="65.05 48.05 65.05 58.48 71 58.48 71 98.25 81.46 98.25 81.46 48.03 65.05 48.05"/><polygon class="cls-3" points="97.33 48.05 97.33 58.48 103.27 58.48 103.27 98.25 113.73 98.25 113.73 48.03 97.33 48.05"/><polygon class="cls-3" points="129.61 48.05 129.61 58.48 135.55 58.48 135.55 98.25 146.01 98.25 146.01 48.03 129.61 48.05"/><polygon class="cls-3" points="392 48.05 392 58.48 397.94 58.48 397.94 98.25 408.4 98.25 408.4 48.03 392 48.05"/><polygon class="cls-3" points="424.27 48.05 424.27 58.48 430.22 58.48 430.22 98.25 440.68 98.25 440.68 48.03 424.27 48.05"/><polygon class="cls-3" points="456.55 48.05 456.55 58.48 462.49 58.48 462.49 98.25 472.95 98.25 472.95 48.03 456.55 48.05"/><polygon class="cls-3" points="488.82 48.05 488.82 58.48 494.77 58.48 494.77 98.25 505.23 98.25 505.23 48.03 488.82 48.05"/><polygon class="cls-3" points="521.1 48.05 521.1 58.48 527.05 58.48 527.05 98.25 537.5 98.25 537.5 48.03 521.1 48.05"/></g></g></svg>