<svg xmlns="http://www.w3.org/2000/svg" viewBox="0 0 254.56 151.48"><defs><style>.cls-1,.cls-7{font-size:40.72px;font-family:GalanoGrotesqueAlt-SemiBold, Galano Grotesque Alt;font-weight:600;}.cls-1{fill:#f90a0a;}.cls-2{letter-spacing:0.01em;}.cls-3{letter-spacing:-0.06em;}.cls-4{letter-spacing:-0.01em;}.cls-5{letter-spacing:-0.1em;}.cls-6{letter-spacing:-0.02em;}.cls-7{fill:none;stroke:#f90a0a;stroke-miterlimit:10;stroke-width:0.5px;}</style></defs><g id="Layer_2" data-name="Layer 2"><g id="Layer_1-2" data-name="Layer 1"><text class="cls-1" transform="translate(0.25 34)"><tspan class="cls-2">R</tspan><tspan x="27.85" y="0">ISE</tspan><tspan class="cls-3" x="98.34" y="0"> </tspan><tspan class="cls-4" x="105.79" y="0">A</tspan><tspan x="134.14" y="0">S</tspan><tspan class="cls-5" x="160.24" y="0"> </tspan><tspan class="cls-6" x="166.06" y="0">O</tspan><tspan x="197.26" y="0">NE</tspan></text><text class="cls-7" transform="translate(0.25 69.68)"><tspan class="cls-2">R</tspan><tspan x="27.85" y="0">ISE</tspan><tspan class="cls-3" x="98.34" y="0"> </tspan><tspan class="cls-4" x="105.79" y="0">A</tspan><tspan x="134.14" y="0">S</tspan><tspan class="cls-5" x="160.24" y="0"> </tspan><tspan class="cls-6" x="166.06" y="0">O</tspan><tspan x="197.26" y="0">NE</tspan></text><text class="cls-1" transform="translate(0.25 105.37)"><tspan class="cls-2">R</tspan><tspan x="27.85" y="0">ISE</tspan><tspan class="cls-3" x="98.34" y="0"> </tspan><tspan class="cls-4" x="105.79" y="0">A</tspan><tspan x="134.14" y="0">S</tspan><tspan class="cls-5" x="160.24" y="0"> </tspan><tspan class="cls-6" x="166.06" y="0">O</tspan><tspan x="197.26" y="0">NE</tspan></text><text class="cls-7" transform="translate(0.25 141.05)"><tspan class="cls-2">R</tspan><tspan x="27.85" y="0">ISE</tspan><tspan class="cls-3" x="98.34" y="0"> </tspan><tspan class="cls-4" x="105.79" y="0">A</tspan><tspan x="134.14" y="0">S</tspan><tspan class="cls-5" x="160.24" y="0"> </tspan><tspan class="cls-6" x="166.06" y="0">O</tspan><tspan x="197.26" y="0">NE</tspan></text></g></g></svg>