<svg xmlns="http://www.w3.org/2000/svg" viewBox="0 0 260.3 126.15"><defs><style>.cls-1{fill:#f90a0a;}</style></defs><g id="Layer_2" data-name="Layer 2"><g id="Layer_1-2" data-name="Layer 1"><polygon class="cls-1" points="0 0.02 0 11.23 6.39 11.23 6.39 53.95 17.62 53.95 17.62 0 0 0.02"/><polygon class="cls-1" points="34.67 0.02 34.67 11.23 41.05 11.23 41.05 53.95 52.29 53.95 52.29 0 34.67 0.02"/><polygon class="cls-1" points="69.34 0.02 69.34 11.23 75.72 11.23 75.72 53.95 86.96 53.95 86.96 0 69.34 0.02"/><polygon class="cls-1" points="104.01 0.02 104.01 11.23 110.39 11.23 110.39 53.95 121.63 53.95 121.63 0 104.01 0.02"/><polygon class="cls-1" points="138.68 0.02 138.68 11.23 145.06 11.23 145.06 53.95 156.29 53.95 156.29 0 138.68 0.02"/><polygon class="cls-1" points="173.35 0.02 173.35 11.23 179.73 11.23 179.73 53.95 190.97 53.95 190.97 0 173.35 0.02"/><polygon class="cls-1" points="0 72.23 0 83.44 6.39 83.44 6.39 126.15 17.62 126.15 17.62 72.21 0 72.23"/><polygon class="cls-1" points="34.67 72.23 34.67 83.44 41.05 83.44 41.05 126.15 52.29 126.15 52.29 72.21 34.67 72.23"/><polygon class="cls-1" points="69.34 72.23 69.34 83.44 75.72 83.44 75.72 126.15 86.96 126.15 86.96 72.21 69.34 72.23"/><polygon class="cls-1" points="104.01 72.23 104.01 83.44 110.39 83.44 110.39 126.15 121.63 126.15 121.63 72.21 104.01 72.23"/><polygon class="cls-1" points="138.68 72.23 138.68 83.44 145.06 83.44 145.06 126.15 156.29 126.15 156.29 72.21 138.68 72.23"/><polygon class="cls-1" points="173.35 72.23 173.35 83.44 179.73 83.44 179.73 126.15 190.97 126.15 190.97 72.21 173.35 72.23"/><polygon class="cls-1" points="208.02 0.02 208.02 11.23 214.4 11.23 214.4 53.95 225.63 53.95 225.63 0 208.02 0.02"/><polygon class="cls-1" points="208.02 72.23 208.02 83.44 214.4 83.44 214.4 126.15 225.63 126.15 225.63 72.21 208.02 72.23"/><polygon class="cls-1" points="242.69 0.02 242.69 11.23 249.07 11.23 249.07 53.95 260.3 53.95 260.3 0 242.69 0.02"/><polygon class="cls-1" points="242.69 72.23 242.69 83.44 249.07 83.44 249.07 126.15 260.3 126.15 260.3 72.21 242.69 72.23"/></g></g></svg>