<svg xmlns="http://www.w3.org/2000/svg" viewBox="0 0 104.92 116.19"><defs><style>.cls-1{fill:none;stroke:#231f20;stroke-width:0.55px;}.cls-2{fill:#231f20;}.cls-3{fill:#23297a;}.cls-4{fill:#fa0a0a;}</style></defs><g id="Layer_2" data-name="Layer 2"><g id="Layer_1-2" data-name="Layer 1"><line class="cls-1" x1="10.87" y1="93.76" x2="94.05" y2="93.76"/><polygon class="cls-2" points="2.05 29.27 2.05 35.11 11.24 35.11 11.24 36.6 2.05 36.6 2.05 44.67 0.42 44.67 0.42 27.74 12.78 27.74 12.78 29.27 2.05 29.27"/><path class="cls-2" d="M26.81,44.67l-2.42-5.22H15.58l-2.47,5.22H11.26L19.4,27.74h1.4l7.84,16.93ZM20.1,30.16l-3.77,7.76h7.36Z"/><path class="cls-2" d="M37.22,44.84a10.62,10.62,0,0,1-5.34-1.17,4.85,4.85,0,0,1-2.55-4.54v-.78H31V39q0,4.29,6.26,4.29a9.19,9.19,0,0,0,3.65-.63,2.65,2.65,0,0,0,1.82-2.49,2.27,2.27,0,0,0-.65-1.75,4.54,4.54,0,0,0-1.89-.9c-.5-.15-1.68-.41-3.55-.8a20.57,20.57,0,0,1-4.37-1.24A3.77,3.77,0,0,1,29.88,32q0-4.43,6.86-4.42,7.17,0,7.27,5.69H42.39c-.12-1.74-.69-2.91-1.73-3.47a8.47,8.47,0,0,0-3.92-.7q-5.2,0-5.21,2.9a2.26,2.26,0,0,0,1.37,2.12,12.1,12.1,0,0,0,3.4.92,22,22,0,0,1,6.14,1.72,3.79,3.79,0,0,1,1.92,3.52,3.9,3.9,0,0,1-2.52,3.65,10.66,10.66,0,0,1-4.62.92"/><polygon class="cls-2" points="60.58 44.67 60.58 36.6 48.63 36.6 48.63 44.67 46.98 44.67 46.98 27.74 48.63 27.74 48.63 35.11 60.58 35.11 60.58 27.74 62.23 27.74 62.23 44.67 60.58 44.67"/><rect class="cls-2" x="65.05" y="27.74" width="1.65" height="16.93"/><path class="cls-2" d="M84.8,42.52a9.42,9.42,0,0,1-6.72,2.32,9.38,9.38,0,0,1-6.7-2.29A8.32,8.32,0,0,1,69,36.2,8,8,0,0,1,71.42,30a9.59,9.59,0,0,1,6.66-2.17A9.7,9.7,0,0,1,84.77,30a7.92,7.92,0,0,1,2.5,6.21,8.28,8.28,0,0,1-2.47,6.32m-1.17-11.4a8,8,0,0,0-5.55-1.78,7.91,7.91,0,0,0-5.52,1.8,6.52,6.52,0,0,0-2,5.06,6.86,6.86,0,0,0,2,5.21,7.62,7.62,0,0,0,5.5,1.91,7.71,7.71,0,0,0,5.55-1.89,6.82,6.82,0,0,0,2-5.23,6.47,6.47,0,0,0-2-5.08"/><path class="cls-2" d="M103.12,44.67l-12-14.36V44.67H89.49V27.74h1.6q2.14,2.7,6,7.22c2.87,3.34,4.86,5.7,6,7.09V27.74h1.64V44.67Z"/><polygon class="cls-2" points="33.7 67.34 32.38 67.34 28.53 58.73 24.79 67.34 23.47 67.34 15.93 50.42 17.67 50.42 24.14 64.9 27.63 56.73 24.84 50.42 26.59 50.42 33.05 64.9 39.29 50.42 41.04 50.42 33.7 67.34"/><polygon class="cls-2" points="42.56 67.34 42.56 50.42 55.82 50.42 55.82 51.94 44.19 51.94 44.19 57.78 54.49 57.78 54.49 59.28 44.19 59.28 44.19 65.82 55.94 65.82 55.94 67.34 42.56 67.34"/><polygon class="cls-2" points="57.74 67.34 57.74 50.42 70.99 50.42 70.99 51.94 59.36 51.94 59.36 57.78 69.67 57.78 69.67 59.28 59.36 59.28 59.36 65.82 71.12 65.82 71.12 67.34 57.74 67.34"/><polygon class="cls-2" points="87.34 67.34 77.96 58.68 74.56 61.23 74.56 67.34 72.91 67.34 72.91 50.42 74.56 50.42 74.56 59.3 86.75 50.42 89.42 50.42 79.31 57.76 89.67 67.34 87.34 67.34"/><polygon class="cls-2" points="57.76 21.91 46.83 13.92 44.11 15.44 44.11 21.91 41.81 21.91 41.81 6.17 44.11 6.17 44.11 12.93 56.6 6.17 60.6 6.17 48.81 12.7 61.09 21.91 57.76 21.91 57.76 21.91"/><path class="cls-2" d="M1.66,21.91A1.6,1.6,0,0,1,0,20.25V6.18H2.3V19.92H16.73v2Z"/><path class="cls-2" d="M25,15l4.4-7.57h0L33.84,15Zm6.49-8a2.22,2.22,0,0,0-2.06-1.26h-.09A2.23,2.23,0,0,0,27.32,7L18.63,21.9H21.1L23.9,17H35l2.8,4.91h2.47L31.53,7Z"/><path class="cls-2" d="M90,21.91a1.59,1.59,0,0,1-1.59-1.6V7.77A1.59,1.59,0,0,1,90,6.18h15V8.06H90.51V13h10.85v2H90.51v5h14.41v1.89Z"/><path class="cls-2" d="M74.43,17a2.21,2.21,0,0,0,1.69-.74s7.13-7.48,7.52-8h0V21.91h2.1V8a2.79,2.79,0,0,0-.05-.47,1.82,1.82,0,0,0-1.85-1.64h-.08a2.32,2.32,0,0,0-1.6.76L74.42,15h0L66.62,6.64A2.27,2.27,0,0,0,65,5.88H65A1.82,1.82,0,0,0,63.1,7.52a2.79,2.79,0,0,0-.05.47V21.91h2.1V8.28h0c.39.5,7.52,8,7.52,8a2.21,2.21,0,0,0,1.69.74Z"/><polygon class="cls-2" points="102.94 0 90.99 1.51 91.21 3.29 103.16 1.77 102.94 0 102.94 0"/><path class="cls-2" d="M85.74,115.71l-5.19-12.56h-1l-4.9,12.56h-1.2v.48h3.29v-.48H75.55l1.67-4.29h4.27l1.77,4.29H82.1v.48h4.8v-.48Zm-8.33-4.77,1.89-4.84,2,4.84Z"/><polygon class="cls-2" points="26.13 103.63 27.31 103.63 27.31 111.37 27.29 111.37 21.95 103.15 18.02 103.15 18.02 103.63 19.21 103.63 19.21 115.71 18.02 115.71 18.02 116.19 21.31 116.19 21.31 115.71 20.13 115.71 20.13 104.92 20.2 104.92 27.54 116.19 28.23 116.19 28.23 103.63 29.41 103.63 29.41 103.15 26.13 103.15 26.13 103.63"/><path class="cls-2" d="M43,103.15H37.88v.48h1.19v12.08H37.88v.48h9.68v-4.1h-.25a6.41,6.41,0,0,1-.48,1.42,4.6,4.6,0,0,1-.8,1.16,3.48,3.48,0,0,1-1.1.77,3.28,3.28,0,0,1-1.39.27h-2v-6.22h.92a2.9,2.9,0,0,1,1.16.21,1.91,1.91,0,0,1,.66.57,2.84,2.84,0,0,1,.43.81A8,8,0,0,1,45,112h.24v-5.5H45a4.16,4.16,0,0,1-.3.94,3.46,3.46,0,0,1-.47.83,1.83,1.83,0,0,1-.72.53,2.65,2.65,0,0,1-1,.19H41.5v-5.31h2.64a2.6,2.6,0,0,1,1.39.33,3.27,3.27,0,0,1,.94.76,4.05,4.05,0,0,1,.56.92,7.8,7.8,0,0,1,.28.76h.25v-3.25H43Z"/><polygon class="cls-2" points="64.45 103.63 65.64 103.63 62.31 108.36 59.58 103.63 59.81 103.63 60.77 103.63 60.77 103.15 59.81 103.15 59.27 103.15 58.95 103.15 57.78 103.15 57.46 103.15 56.91 103.15 55.97 103.15 55.97 103.63 57.15 103.63 60.98 110.26 57.15 115.71 55.97 115.71 55.97 116.19 59.26 116.19 59.26 115.71 58.07 115.71 61.39 110.98 64.13 115.71 63.89 115.71 62.94 115.71 62.94 116.19 63.89 116.19 64.44 116.19 64.76 116.19 65.93 116.19 66.25 116.19 66.79 116.19 67.74 116.19 67.74 115.71 66.56 115.71 62.73 109.08 66.56 103.63 67.74 103.63 67.74 103.15 64.45 103.15 64.45 103.63"/><path class="cls-3" d="M42.52,84.43h-6V76.49h6v1.64H38.17v1.52h4v1.64h-4v1.48h4.35Z"/><polygon class="cls-4" points="27.58 76.49 27.58 78.14 28.52 78.14 28.52 84.43 30.17 84.43 30.17 76.48 27.58 76.49"/><path class="cls-3" d="M35.14,78.59l1.15-1.18a4.07,4.07,0,0,0-2.23-1l-.17,0h-.48l-.24,0-.18,0-.5.11a2.22,2.22,0,0,0-1.78,2.18c0,1.17.59,1.79,1.84,2.2s1.81.58,1.78,1.3c0,.54-.61,1.06-1.85.68a2.69,2.69,0,0,1-1-.66l-1.16,1.18a3.75,3.75,0,0,0,2.21,1,3.14,3.14,0,0,0,3.16-1.06,2.14,2.14,0,0,0-.61-3.19,4.59,4.59,0,0,0-1.32-.55,2.87,2.87,0,0,1-1.15-.55.7.7,0,0,1-.14-.47.79.79,0,0,1,.08-.3,1,1,0,0,1,.74-.47A2.09,2.09,0,0,1,35.14,78.59Z"/><path class="cls-3" d="M27.85,84.43,25.3,81.51h0l.19,0a3.19,3.19,0,0,0,.37-.13,2.75,2.75,0,0,0,1.53-2.55,2.55,2.55,0,0,0-2.84-2.51H20.73v8.17h1.65v-2.9h.83l2.44,2.9Zm-5.47-4.56v-2h2.19c.74,0,1.24.4,1.24,1s-.5,1-1.24,1Z"/><path class="cls-4" d="M19.9,84.43a2.05,2.05,0,0,0-4.1,0Z"/><path class="cls-3" d="M51.32,84.44H50l-1.17-4.19-1.12,4.21H46.47l-1.89-6.31h1.25l1.29,4.49,1.21-4.51h1l1.28,4.49,1.21-4.51h1.26Z"/><path class="cls-3" d="M57.77,82.19a2.38,2.38,0,1,1-2.38-2.28A2.28,2.28,0,0,1,57.77,82.19Zm-1.12,0a1.26,1.26,0,1,0-1.23,1.32A1.26,1.26,0,0,0,56.65,82.2Z"/><path class="cls-3" d="M61.67,79.94l-.05,1.11h-.25c-1.08,0-1.56.67-1.55,1.89v1.41H58.67l0-4.38h1.16v.8a1.86,1.86,0,0,1,1.56-.88A.78.78,0,0,1,61.67,79.94Z"/><path class="cls-3" d="M62.44,84.34,62.38,78h1.17l.05,6.33Z"/><path class="cls-3" d="M69.24,84.28H68.08V84a2.3,2.3,0,0,1-1.45.49,2.33,2.33,0,0,1,0-4.65,2.15,2.15,0,0,1,1.46.47L68,78h1.16ZM68.06,82.1a1.26,1.26,0,0,0-1.26-1.3,1.32,1.32,0,0,0,0,2.63A1.27,1.27,0,0,0,68.06,82.1Z"/><path class="cls-3" d="M75.23,84.24h-1l-.88-2.58-.85,2.59h-1l-1.49-4.38h1.15L72,82.57l.87-2.7h.91l.92,2.7.85-2.72h1.15Z"/><path class="cls-3" d="M78.68,78.51a.7.7,0,0,1-1.4,0,.68.68,0,0,1,.69-.7A.69.69,0,0,1,78.68,78.51Zm-1.23,5.7,0-4.38h1.16l0,4.38Z"/><path class="cls-3" d="M84.31,84.15H83.15v-.34a2.3,2.3,0,0,1-1.45.49,2.33,2.33,0,0,1,0-4.65,2.15,2.15,0,0,1,1.46.47l0-2.3h1.16ZM83.13,82a1.26,1.26,0,0,0-1.26-1.3,1.31,1.31,0,0,0,0,2.62A1.26,1.26,0,0,0,83.13,82Z"/><path class="cls-3" d="M89.67,82.23l-3.34,0a1.18,1.18,0,0,0,2.19.42l1,.22a2.18,2.18,0,0,1-2.12,1.37,2.33,2.33,0,1,1,2.22-2.43Zm-3.32-.79,2.12,0a1,1,0,0,0-1-.8A1.1,1.1,0,0,0,86.35,81.44Z"/></g></g></svg>