<svg xmlns="http://www.w3.org/2000/svg" viewBox="0 0 116.92 149.26"><defs><style>.cls-1{fill:none;stroke:#f90a0a;stroke-miterlimit:10;stroke-width:3px;}</style></defs><g id="Layer_2" data-name="Layer 2"><g id="Layer_1-2" data-name="Layer 1"><path class="cls-1" d="M57.39,1.5C73.16,1.67,86,6.56,96.76,16.31a55.1,55.1,0,0,1,17.41,30.43,56.26,56.26,0,0,1-5.58,38.76c-3.41,6.42-8.14,11.89-12.51,17.61C85.58,116.84,75,130.5,64.48,144.22c-1.74,2.27-3.71,3.82-6.74,3.5a7,7,0,0,1-4.85-2.94q-15.42-20.07-30.84-40.15c-3.67-4.79-7.42-9.52-10.87-14.46A53.94,53.94,0,0,1,2,66.12,56.9,56.9,0,0,1,29.79,9.28,55.49,55.49,0,0,1,57.39,1.5Zm1,84.55A27.53,27.53,0,1,0,30.89,58.51,27.55,27.55,0,0,0,58.42,86.05Z"/></g></g></svg>