<svg xmlns="http://www.w3.org/2000/svg" viewBox="0 0 251.61 127.17"><defs><style>.cls-1{fill:#23297a;}.cls-2{fill:none;stroke:#23297a;stroke-miterlimit:10;stroke-width:1.33px;}</style></defs><g id="Layer_2" data-name="Layer 2"><g id="Layer_1-2" data-name="Layer 1"><path class="cls-1" d="M31.61,15.38a15.24,15.24,0,0,1-15.47,15.3A15.34,15.34,0,1,1,16.14,0,15.31,15.31,0,0,1,31.61,15.38Zm-6,0a9.47,9.47,0,1,0-18.93,0,9.37,9.37,0,0,0,9.47,9.69A9.37,9.37,0,0,0,25.6,15.38Z"/><path class="cls-1" d="M61.72,16.87c0,8.24-5,13.81-12.62,13.81-7.75,0-12.93-5.57-12.93-13.81V.66h6V16.87c0,4.91,2.76,8.11,7,8.11,4,0,6.67-3.2,6.67-8.11V.66h5.95Z"/><path class="cls-1" d="M86.36,30,76.68,19.24H73.57V30h-6V.66H81.67C88,.66,92.19,4.38,92.19,10c0,4.91-3.28,8.41-8.41,9.16L93.64,30ZM81.67,13.85c2.76,0,4.6-1.58,4.6-3.9s-1.84-3.9-4.6-3.9h-8.1v7.8Z"/><path class="cls-1" d="M130.2,8.46l-6,1.23a5.56,5.56,0,0,0-5.79-4.56c-3,0-4.77,1.66-4.77,3.64,0,1.49.65,2.54,2.93,3L122.92,13c4.78,1,7.72,3.85,7.72,8.41,0,5.7-4.69,9.25-11.66,9.25-6.14,0-11.53-2.85-12.27-8.72L113,20.69c.79,3.33,3.25,4.77,6.58,4.77s5.21-1.62,5.21-3.72c0-1.67-.78-2.68-3.41-3.2l-6.23-1.18c-3.5-.75-7.71-2.68-7.71-8.42,0-5.26,4.29-8.94,11.17-8.94C124.55,0,129.06,3.24,130.2,8.46Z"/><path class="cls-1" d="M148.57,6.05V30h-6v-24h-9.78V.66h25.51V6.05Z"/><path class="cls-1" d="M190.61,15.38A15.48,15.48,0,1,1,175.13,0,15.25,15.25,0,0,1,190.61,15.38Zm-6,0a9.47,9.47,0,1,0-18.93,0,9.47,9.47,0,1,0,18.93,0Z"/><path class="cls-1" d="M214.19,30l-9.68-10.78h-3.12V30h-6V.66H209.5C215.81.66,220,4.38,220,10c0,4.91-3.29,8.41-8.41,9.16L221.47,30ZM209.5,13.85c2.76,0,4.6-1.58,4.6-3.9s-1.84-3.9-4.6-3.9h-8.11v7.8Z"/><path class="cls-1" d="M238.61,30h-6V20.73L221,.66h6.57l8,13.85,8-13.85h6.83l-11.83,20Z"/><path class="cls-2" d="M31.61,63.63A15.23,15.23,0,0,1,16.14,78.92a15.34,15.34,0,1,1,0-30.68A15.31,15.31,0,0,1,31.61,63.63Zm-6,0a9.47,9.47,0,1,0-18.93,0,9.37,9.37,0,0,0,9.47,9.68A9.36,9.36,0,0,0,25.6,63.63Z"/><path class="cls-2" d="M61.72,65.12c0,8.24-5,13.8-12.62,13.8-7.75,0-12.93-5.56-12.93-13.8V48.9h6V65.12c0,4.91,2.76,8.11,7,8.11,4,0,6.67-3.2,6.67-8.11V48.9h5.95Z"/><path class="cls-2" d="M86.36,78.27,76.68,67.48H73.57V78.27h-6V48.9H81.67c6.32,0,10.52,3.73,10.52,9.29,0,4.91-3.28,8.42-8.41,9.16l9.86,10.92ZM81.67,62.09c2.76,0,4.6-1.57,4.6-3.9s-1.84-3.9-4.6-3.9h-8.1v7.8Z"/><path class="cls-2" d="M130.2,56.7l-6,1.23a5.57,5.57,0,0,0-5.79-4.56c-3,0-4.77,1.67-4.77,3.64,0,1.49.65,2.54,2.93,3l6.31,1.27c4.78,1,7.72,3.86,7.72,8.42,0,5.69-4.69,9.24-11.66,9.24-6.14,0-11.53-2.85-12.27-8.72L113,68.93c.79,3.33,3.25,4.78,6.58,4.78s5.21-1.62,5.21-3.73c0-1.66-.78-2.67-3.41-3.2l-6.23-1.18c-3.5-.75-7.71-2.67-7.71-8.41,0-5.26,4.29-8.95,11.17-8.95C124.55,48.24,129.06,51.49,130.2,56.7Z"/><path class="cls-2" d="M148.57,54.29v24h-6v-24h-9.78V48.9h25.51v5.39Z"/><path class="cls-2" d="M190.61,63.63a15.48,15.48,0,1,1-15.48-15.39A15.24,15.24,0,0,1,190.61,63.63Zm-6,0a9.47,9.47,0,1,0-18.93,0,9.47,9.47,0,1,0,18.93,0Z"/><path class="cls-2" d="M214.19,78.27l-9.68-10.79h-3.12V78.27h-6V48.9H209.5c6.31,0,10.52,3.73,10.52,9.29,0,4.91-3.29,8.42-8.41,9.16l9.86,10.92ZM209.5,62.09c2.76,0,4.6-1.57,4.6-3.9s-1.84-3.9-4.6-3.9h-8.11v7.8Z"/><path class="cls-2" d="M238.61,78.27h-6V69L221,48.9h6.57l8,13.85,8-13.85h6.83l-11.83,20Z"/><path class="cls-1" d="M31.61,111.87a15.24,15.24,0,0,1-15.47,15.3,15.34,15.34,0,1,1,0-30.68A15.31,15.31,0,0,1,31.61,111.87Zm-6,0a9.47,9.47,0,1,0-9.46,9.69A9.44,9.44,0,0,0,25.6,111.87Z"/><path class="cls-1" d="M61.72,113.36c0,8.24-5,13.81-12.62,13.81-7.75,0-12.93-5.57-12.93-13.81V97.15h6v16.21c0,4.91,2.76,8.11,7,8.11,4,0,6.67-3.2,6.67-8.11V97.15h5.95Z"/><path class="cls-1" d="M86.36,126.51l-9.68-10.78H73.57v10.78h-6V97.15H81.67c6.32,0,10.52,3.72,10.52,9.29,0,4.91-3.28,8.41-8.41,9.16l9.86,10.91Zm-4.69-16.17c2.76,0,4.6-1.58,4.6-3.9s-1.84-3.9-4.6-3.9h-8.1v7.8Z"/><path class="cls-1" d="M130.2,105l-6,1.23a5.56,5.56,0,0,0-5.79-4.56c-3,0-4.77,1.66-4.77,3.63,0,1.5.65,2.55,2.93,3l6.31,1.27c4.78,1,7.72,3.85,7.72,8.41,0,5.7-4.69,9.25-11.66,9.25-6.14,0-11.53-2.85-12.27-8.72l6.26-1.27c.79,3.33,3.25,4.77,6.58,4.77s5.21-1.62,5.21-3.72c0-1.67-.78-2.68-3.41-3.2l-6.23-1.18c-3.5-.75-7.71-2.68-7.71-8.42,0-5.26,4.29-8.94,11.17-8.94C124.55,96.49,129.06,99.73,130.2,105Z"/><path class="cls-1" d="M148.57,102.54v24h-6v-24h-9.78V97.15h25.51v5.39Z"/><path class="cls-1" d="M190.61,111.87a15.48,15.48,0,1,1-15.48-15.38A15.25,15.25,0,0,1,190.61,111.87Zm-6,0a9.47,9.47,0,1,0-9.47,9.69A9.44,9.44,0,0,0,184.6,111.87Z"/><path class="cls-1" d="M214.19,126.51l-9.68-10.78h-3.12v10.78h-6V97.15H209.5c6.31,0,10.52,3.72,10.52,9.29,0,4.91-3.29,8.41-8.41,9.16l9.86,10.91Zm-4.69-16.17c2.76,0,4.6-1.58,4.6-3.9s-1.84-3.9-4.6-3.9h-8.11v7.8Z"/><path class="cls-1" d="M238.61,126.51h-6v-9.29L221,97.15h6.57l8,13.85,8-13.85h6.83l-11.83,20Z"/></g></g></svg>