<svg xmlns="http://www.w3.org/2000/svg" xmlns:xlink="http://www.w3.org/1999/xlink" width="59.9" height="59.9" viewBox="0 0 59.9 59.9"><defs><style>.a{fill:#fff;stroke:#fff;}.b{filter:url(#a);}</style><filter id="a" x="0" y="0" width="59.9" height="59.9" filterUnits="userSpaceOnUse"><feOffset dy="3" input="SourceAlpha"/><feGaussianBlur stdDeviation="3" result="b"/><feFlood flood-opacity="0.161"/><feComposite operator="in" in2="b"/><feComposite in="SourceGraphic"/></filter></defs><g class="b" transform="matrix(1, 0, 0, 1, 0, 0)"><path class="a" d="M21.013.563a20.45,20.45,0,1,0,20.45,20.45A20.446,20.446,0,0,0,21.013.563ZM19.693,27.609a1.323,1.323,0,0,1-1.319,1.319H14.416A1.323,1.323,0,0,1,13.1,27.609V14.416A1.323,1.323,0,0,1,14.416,13.1h3.958a1.323,1.323,0,0,1,1.319,1.319Zm9.235,0a1.323,1.323,0,0,1-1.319,1.319H23.651a1.323,1.323,0,0,1-1.319-1.319V14.416A1.323,1.323,0,0,1,23.651,13.1h3.958a1.323,1.323,0,0,1,1.319,1.319Z" transform="translate(8.94 5.94)"/></g></svg>