<svg xmlns="http://www.w3.org/2000/svg" viewBox="0 0 172.69 189.23"><defs><style>.cls-1{fill:none;stroke:#fff;stroke-miterlimit:10;stroke-width:1.92px;}.cls-2{fill:#23297a;}</style></defs><g id="Layer_2" data-name="Layer 2"><g id="Layer_1-2" data-name="Layer 1"><polygon class="cls-1" points="55.55 1.04 55.55 39.95 77.72 39.95 77.72 188.27 116.73 188.27 116.73 0.96 55.55 1.04"/><path class="cls-2" d="M11.74,102.64,5.68,95.89H3.73v6.75H0V84.26H8.81c3.95,0,6.58,2.33,6.58,5.82,0,3.07-2.05,5.26-5.26,5.73l6.17,6.83ZM8.81,92.52c1.73,0,2.88-1,2.88-2.44s-1.15-2.45-2.88-2.45H3.73v4.89Z"/><path class="cls-2" d="M25,99.27h3.84v3.37H17.4V99.27h3.84V87.63H17.4V84.26H28.81v3.37H25Z"/><path class="cls-2" d="M45.3,89.14l-3.73.77A3.49,3.49,0,0,0,38,87.06c-1.87,0-3,1-3,2.28,0,.93.41,1.59,1.83,1.86l4,.8c3,.63,4.82,2.41,4.82,5.26,0,3.57-2.93,5.79-7.29,5.79-3.85,0-7.22-1.78-7.69-5.46l3.93-.79c.49,2.08,2,3,4.11,3s3.27-1,3.27-2.33c0-1-.5-1.68-2.14-2l-3.9-.74C33.67,94.25,31,93,31,89.45c0-3.3,2.69-5.6,7-5.6C41.76,83.85,44.59,85.88,45.3,89.14Z"/><path class="cls-2" d="M62.83,102.64h-14V84.26H62.78v3.37H52.6v4.15H62V95.1H52.6v4.17H62.83Z"/><path class="cls-2" d="M86.37,102.64l-1.59-3.92H76.66L75,102.64H71L79,84.26h3.49l8,18.38ZM80.72,88.79,78,95.34h5.35Z"/><path class="cls-2" d="M106.05,89.14l-3.74.77a3.47,3.47,0,0,0-3.62-2.85c-1.86,0-3,1-3,2.28,0,.93.41,1.59,1.84,1.86l3.95.8c3,.63,4.83,2.41,4.83,5.26,0,3.57-2.94,5.79-7.3,5.79-3.84,0-7.21-1.78-7.68-5.46l3.92-.79c.5,2.08,2,3,4.12,3s3.26-1,3.26-2.33c0-1-.49-1.68-2.14-2l-3.89-.74c-2.2-.46-4.83-1.67-4.83-5.26,0-3.3,2.69-5.6,7-5.6C102.51,83.85,105.33,85.88,106.05,89.14Z"/><path class="cls-2" d="M134.83,93.48a9.69,9.69,0,1,1-9.69-9.63A9.54,9.54,0,0,1,134.83,93.48Zm-3.76,0a5.93,5.93,0,1,0-5.93,6.06A5.92,5.92,0,0,0,131.07,93.48Z"/><path class="cls-2" d="M154.88,102.64h-3.12l-10.18-11.8v11.8h-3.74V84.26H141l10.18,12.13V84.26h3.73Z"/><path class="cls-2" d="M172.69,102.64h-14V84.26h13.92v3.37H162.46v4.15h9.38V95.1h-9.38v4.17h10.23Z"/></g></g></svg>