<svg xmlns="http://www.w3.org/2000/svg" viewBox="0 0 155.15 169.29"><defs><style>.cls-1{fill:none;stroke:#f90a0a;stroke-miterlimit:10;}.cls-2{fill:#fff;}</style></defs><g id="Layer_2" data-name="Layer 2"><g id="Layer_1-2" data-name="Layer 1"><polygon class="cls-1" points="50.09 0.57 50.09 35.53 70.01 35.53 70.01 168.79 105.06 168.79 105.06 0.5 50.09 0.57"/><path class="cls-2" d="M10.55,91.85,5.1,85.79H3.35v6.06H0V75.34H7.91c3.55,0,5.92,2.09,5.92,5.22A5.1,5.1,0,0,1,9.1,85.72l5.54,6.13ZM7.91,82.76c1.56,0,2.59-.89,2.59-2.2s-1-2.19-2.59-2.19H3.35v4.39Z"/><path class="cls-2" d="M22.43,88.82h3.45v3H15.63v-3h3.45V78.37H15.63v-3H25.88v3H22.43Z"/><path class="cls-2" d="M40.7,79.73l-3.35.69a3.14,3.14,0,0,0-3.26-2.57c-1.67,0-2.69.94-2.69,2.05,0,.84.37,1.43,1.66,1.67l3.55.72C39.29,82.86,41,84.46,41,87c0,3.21-2.64,5.2-6.56,5.2-3.45,0-6.48-1.6-6.9-4.9L31,86.6a3.39,3.39,0,0,0,3.7,2.69c1.92,0,2.93-.91,2.93-2.1,0-.93-.44-1.5-1.92-1.79l-3.5-.67c-2-.42-4.34-1.5-4.34-4.73,0-3,2.42-5,6.29-5C37.52,75,40.06,76.79,40.7,79.73Z"/><path class="cls-2" d="M56.45,91.85H43.9V75.34H56.4v3H47.26v3.72h8.43v3H47.26v3.75h9.19Z"/><path class="cls-2" d="M77.6,91.85l-1.43-3.52h-7.3l-1.45,3.52H63.79l7.15-16.51h3.13l7.15,16.51ZM72.52,79.41,70.11,85.3h4.8Z"/><path class="cls-2" d="M95.27,79.73l-3.35.69a3.13,3.13,0,0,0-3.25-2.57C87,77.85,86,78.79,86,79.9c0,.84.37,1.43,1.65,1.67l3.55.72c2.69.57,4.34,2.17,4.34,4.73,0,3.21-2.64,5.2-6.56,5.2-3.45,0-6.48-1.6-6.9-4.9l3.53-.72a3.39,3.39,0,0,0,3.69,2.69c1.93,0,2.94-.91,2.94-2.1,0-.93-.45-1.5-1.93-1.79l-3.5-.67c-2-.42-4.33-1.5-4.33-4.73,0-3,2.41-5,6.28-5C92.09,75,94.63,76.79,95.27,79.73Z"/><path class="cls-2" d="M121.13,83.62a8.7,8.7,0,1,1-8.7-8.65A8.57,8.57,0,0,1,121.13,83.62Zm-3.38,0a5.32,5.32,0,1,0-5.32,5.45A5.31,5.31,0,0,0,117.75,83.62Z"/><path class="cls-2" d="M139.15,91.85h-2.81l-9.14-10.6v10.6h-3.36V75.34h2.81l9.15,10.89V75.34h3.35Z"/><path class="cls-2" d="M155.15,91.85H142.6V75.34h12.5v3H146v3.72h8.43v3H146v3.75h9.19Z"/></g></g></svg>