<svg xmlns="http://www.w3.org/2000/svg" viewBox="0 0 329.04 445.94"><defs><style>.cls-1,.cls-4{font-size:51.18px;font-family:GalanoGrotesqueAlt-SemiBold, Galano Grotesque Alt;font-weight:600;}.cls-1,.cls-5{fill:none;stroke:#fff;stroke-miterlimit:10;stroke-width:0.5px;}.cls-2{letter-spacing:0.01em;}.cls-3{letter-spacing:-0.01em;}.cls-4,.cls-6{fill:#fff;}</style></defs><g id="Layer_2" data-name="Layer 2"><g id="Layer_1-2" data-name="Layer 1"><text class="cls-1" transform="translate(0.25 42.99)"><tspan class="cls-2">R</tspan><tspan x="35.01" y="0">ISE </tspan><tspan class="cls-3" x="136.04" y="0">A</tspan><tspan x="171.67" y="0">S ONE</tspan></text><text class="cls-4" transform="translate(0.25 91.73)"><tspan class="cls-2">R</tspan><tspan x="35.01" y="0">ISE </tspan><tspan class="cls-3" x="136.04" y="0">A</tspan><tspan x="171.67" y="0">S ONE</tspan></text><text class="cls-1" transform="translate(0.25 140.46)"><tspan class="cls-2">R</tspan><tspan x="35.01" y="0">ISE </tspan><tspan class="cls-3" x="136.04" y="0">A</tspan><tspan x="171.67" y="0">S ONE</tspan></text><polygon class="cls-5" points="2.88 202.82 2.88 211.2 7.66 211.2 7.66 243.13 16.06 243.13 16.06 202.8 2.88 202.82"/><polygon class="cls-6" points="24.95 202.82 24.95 211.2 29.73 211.2 29.73 243.13 38.12 243.13 38.12 202.8 24.95 202.82"/><polygon class="cls-5" points="47.02 202.82 47.02 211.2 51.79 211.2 51.79 243.13 60.19 243.13 60.19 202.8 47.02 202.82"/><polygon class="cls-6" points="69.08 202.82 69.08 211.2 73.86 211.2 73.86 243.13 82.25 243.13 82.25 202.8 69.08 202.82"/><polygon class="cls-5" points="91.15 202.82 91.15 211.2 95.92 211.2 95.92 243.13 104.32 243.13 104.32 202.8 91.15 202.82"/><polygon class="cls-6" points="113.21 202.82 113.21 211.2 117.99 211.2 117.99 243.13 126.38 243.13 126.38 202.8 113.21 202.82"/><polygon class="cls-5" points="135.28 202.82 135.28 211.2 140.05 211.2 140.05 243.13 148.45 243.13 148.45 202.8 135.28 202.82"/><polygon class="cls-6" points="157.34 202.82 157.34 211.2 162.12 211.2 162.12 243.13 170.51 243.13 170.51 202.8 157.34 202.82"/><polygon class="cls-5" points="179.41 202.82 179.41 211.2 184.18 211.2 184.18 243.13 192.58 243.13 192.58 202.8 179.41 202.82"/><polygon class="cls-6" points="201.47 202.82 201.47 211.2 206.25 211.2 206.25 243.13 214.65 243.13 214.65 202.8 201.47 202.82"/><polygon class="cls-5" points="223.54 202.82 223.54 211.2 228.31 211.2 228.31 243.13 236.71 243.13 236.71 202.8 223.54 202.82"/><polygon class="cls-6" points="245.6 202.82 245.6 211.2 250.38 211.2 250.38 243.13 258.78 243.13 258.78 202.8 245.6 202.82"/><polygon class="cls-5" points="267.67 202.82 267.67 211.2 272.44 211.2 272.44 243.13 280.84 243.13 280.84 202.8 267.67 202.82"/><polygon class="cls-6" points="289.74 202.82 289.74 211.2 294.51 211.2 294.51 243.13 302.91 243.13 302.91 202.8 289.74 202.82"/><polygon class="cls-5" points="311.8 202.82 311.8 211.2 316.58 211.2 316.58 243.13 324.97 243.13 324.97 202.8 311.8 202.82"/><text class="cls-1" transform="translate(0.25 189.2)"><tspan class="cls-2">R</tspan><tspan x="35.01" y="0">ISE </tspan><tspan class="cls-3" x="136.04" y="0">A</tspan><tspan x="171.67" y="0">S ONE</tspan></text><text class="cls-1" transform="translate(0.25 286.68)"><tspan class="cls-2">R</tspan><tspan x="35.01" y="0">ISE </tspan><tspan class="cls-3" x="136.04" y="0">A</tspan><tspan x="171.67" y="0">S ONE</tspan></text><text class="cls-1" transform="translate(0.25 335.41)"><tspan class="cls-2">R</tspan><tspan x="35.01" y="0">ISE </tspan><tspan class="cls-3" x="136.04" y="0">A</tspan><tspan x="171.67" y="0">S ONE</tspan></text><text class="cls-4" transform="translate(0.25 384.15)"><tspan class="cls-2">R</tspan><tspan x="35.01" y="0">ISE </tspan><tspan class="cls-3" x="136.04" y="0">A</tspan><tspan x="171.67" y="0">S ONE</tspan></text><text class="cls-1" transform="translate(0.25 432.89)"><tspan class="cls-2">R</tspan><tspan x="35.01" y="0">ISE </tspan><tspan class="cls-3" x="136.04" y="0">A</tspan><tspan x="171.67" y="0">S ONE</tspan></text></g></g></svg>