<svg xmlns="http://www.w3.org/2000/svg" viewBox="0 0 221.43 134.05"><defs><style>.cls-1{fill:#f90a0a;}.cls-2{fill:none;stroke:#23297a;stroke-miterlimit:10;}</style></defs><g id="Layer_2" data-name="Layer 2"><g id="Layer_1-2" data-name="Layer 1"><path class="cls-1" d="M221.43,109.65A110.72,110.72,0,0,0,0,109.65Z"/><polygon class="cls-2" points="37.96 83.35 37.96 93.78 43.9 93.78 43.9 133.55 54.36 133.55 54.36 83.33 37.96 83.35"/><polygon class="cls-2" points="70.24 83.35 70.24 93.78 76.18 93.78 76.18 133.55 86.64 133.55 86.64 83.33 70.24 83.35"/><polygon class="cls-2" points="102.51 83.35 102.51 93.78 108.46 93.78 108.46 133.55 118.92 133.55 118.92 83.33 102.51 83.35"/><polygon class="cls-2" points="134.79 83.35 134.79 93.78 140.73 93.78 140.73 133.55 151.19 133.55 151.19 83.33 134.79 83.35"/><polygon class="cls-2" points="167.07 83.35 167.07 93.78 173.01 93.78 173.01 133.55 183.47 133.55 183.47 83.33 167.07 83.35"/></g></g></svg>