<svg xmlns="http://www.w3.org/2000/svg" viewBox="0 0 292.23 18.53"><g id="Layer_2" data-name="Layer 2"><g id="Layer_1-2" data-name="Layer 1"><path d="M8.31,4.35V18H3.75V4.35H0V.49H12.06V4.35Z"/><path d="M18.65,7.26h6.59V.49H29.8V18H25.24V10.8H18.65V18H14.09V.49h4.56Z"/><path d="M43.47,4.35H38V7.29h5.13v3.86H38v3h5.43V18h-10V.49h10Z"/><path d="M70.81,5,60.13,9.25l10.68,4.27v4.95l-17.55-7.4V7.44L70.81.06Z"/><path d="M72.62,9.27A9,9,0,0,1,78.4.71a11.18,11.18,0,0,1,7.84,0,9.19,9.19,0,0,1,3.08,2,8.93,8.93,0,0,1,2,2.94,9.21,9.21,0,0,1,.72,3.65,9.17,9.17,0,0,1-.72,3.64,8.86,8.86,0,0,1-2,2.95,9.33,9.33,0,0,1-3.08,2,11.18,11.18,0,0,1-7.84,0,9.34,9.34,0,0,1-3.06-2,9.14,9.14,0,0,1-2.72-6.59Zm4.77,0a4.6,4.6,0,0,0,.4,1.93,4.8,4.8,0,0,0,2.64,2.55,5.19,5.19,0,0,0,3.8,0,5.14,5.14,0,0,0,1.58-1,4.84,4.84,0,0,0,1.08-5.41A4.62,4.62,0,0,0,85.81,5.8a5.17,5.17,0,0,0-1.58-1,5.19,5.19,0,0,0-3.8,0,4.89,4.89,0,0,0-1.57,1,4.74,4.74,0,0,0-1.07,1.53A4.61,4.61,0,0,0,77.39,9.27Z"/><path d="M99.51.49V18H95V.49Z"/><path d="M115.83,6.36a4.87,4.87,0,0,0-3.91-1.94,4.77,4.77,0,0,0-1.9.38,4.46,4.46,0,0,0-1.5,1,4.65,4.65,0,0,0-1,1.52,5,5,0,0,0-.36,1.91,5.11,5.11,0,0,0,.36,1.94,4.56,4.56,0,0,0,1,1.53,4.72,4.72,0,0,0,1.5,1,4.66,4.66,0,0,0,1.87.37,5.29,5.29,0,0,0,3.93-1.86v5.4l-.46.16a14.06,14.06,0,0,1-2,.55,10,10,0,0,1-1.79.17,9.11,9.11,0,0,1-6.42-2.62,9.84,9.84,0,0,1-2-2.95,9.06,9.06,0,0,1-.76-3.74,9,9,0,0,1,.75-3.71,9.17,9.17,0,0,1,2-2.91A9,9,0,0,1,108.12.69,9.16,9.16,0,0,1,111.64,0a9.42,9.42,0,0,1,2.06.22,12.51,12.51,0,0,1,2.13.69Z"/><path d="M128.71,4.35h-5.43V7.29h5.12v3.86h-5.12v3h5.43V18h-10V.49h10Z"/><path d="M136.73,9.27a9.1,9.1,0,0,1,2.72-6.59,9,9,0,0,1,3.06-2,11.18,11.18,0,0,1,7.84,0,9.19,9.19,0,0,1,3.08,2,9.11,9.11,0,0,1,2.74,6.59,9.16,9.16,0,0,1-2.74,6.59,9.33,9.33,0,0,1-3.08,2,11.18,11.18,0,0,1-7.84,0,9.07,9.07,0,0,1-5.78-8.55Zm4.77,0a4.76,4.76,0,0,0,.39,1.93A5.09,5.09,0,0,0,143,12.74a4.87,4.87,0,0,0,1.57,1,5,5,0,0,0,1.89.36A4.9,4.9,0,0,0,151,11.2a4.76,4.76,0,0,0,.39-1.93A4.77,4.77,0,0,0,151,7.33a4.93,4.93,0,0,0-1.08-1.53,5,5,0,0,0-3.49-1.38,5,5,0,0,0-1.89.36,5,5,0,0,0-2.65,2.55A4.77,4.77,0,0,0,141.5,9.27Z"/><path d="M169.11,4.35h-5.49V7.29h5v3.86h-5V18h-4.57V.49h10.06Z"/><path d="M189.81,4.35h-5.5V7.29h5v3.86h-5V18h-4.56V.49h10.06Z"/><path d="M202.57,15h-6.52L195,18h-4.86L196.82.49h5L208.48,18h-4.86Zm-1.21-3.47-2.05-5.84-2.05,5.84Z"/><path d="M220.12,5a5.44,5.44,0,0,0-1.49-.89,3.78,3.78,0,0,0-1.44-.29,2.32,2.32,0,0,0-1.44.41,1.3,1.3,0,0,0-.56,1.1,1.07,1.07,0,0,0,.28.77,2.44,2.44,0,0,0,.73.52,5.29,5.29,0,0,0,1,.38c.39.11.76.23,1.13.35a7.15,7.15,0,0,1,3.28,2,4.94,4.94,0,0,1,1,3.25,6.4,6.4,0,0,1-.45,2.45,5.2,5.2,0,0,1-1.33,1.87,6,6,0,0,1-2.14,1.21,8.89,8.89,0,0,1-2.88.43,10.58,10.58,0,0,1-6.17-2l2-3.67a8.28,8.28,0,0,0,2,1.35,5,5,0,0,0,2,.44,2.38,2.38,0,0,0,1.67-.51,1.6,1.6,0,0,0,.55-1.17,1.67,1.67,0,0,0-.14-.69,1.54,1.54,0,0,0-.47-.53,3.92,3.92,0,0,0-.85-.45c-.35-.14-.77-.3-1.27-.47s-1.17-.39-1.73-.62a5.48,5.48,0,0,1-1.52-.89,4.32,4.32,0,0,1-1.07-1.41,5,5,0,0,1-.41-2.16,6.2,6.2,0,0,1,.44-2.36,5.18,5.18,0,0,1,1.21-1.82A5.4,5.4,0,0,1,214,.42,7.16,7.16,0,0,1,216.49,0a11.14,11.14,0,0,1,2.73.36,11.89,11.89,0,0,1,2.72,1.06Z"/><path d="M230.09,7.26h6.59V.49h4.56V18h-4.56V10.8h-6.59V18h-4.56V.49h4.56Z"/><path d="M249.48.49V18h-4.56V.49Z"/><path d="M252.37,9.27A9,9,0,0,1,258.16.71a11.15,11.15,0,0,1,7.83,0,9.24,9.24,0,0,1,3.09,2,9.05,9.05,0,0,1,2,2.94,9.21,9.21,0,0,1,.72,3.65,9.17,9.17,0,0,1-.72,3.64,9,9,0,0,1-2,2.95,9.37,9.37,0,0,1-3.09,2,10.42,10.42,0,0,1-3.91.71,10.32,10.32,0,0,1-3.92-.71,9.28,9.28,0,0,1-3.07-2,9.14,9.14,0,0,1-2.72-6.59Zm4.77,0a4.6,4.6,0,0,0,.4,1.93,4.8,4.8,0,0,0,2.64,2.55,5.19,5.19,0,0,0,3.8,0,5.14,5.14,0,0,0,1.58-1,4.77,4.77,0,0,0,1.08-1.54,4.6,4.6,0,0,0,.4-1.93,4.72,4.72,0,0,0-1.48-3.47,5.17,5.17,0,0,0-1.58-1,5.19,5.19,0,0,0-3.8,0,4.89,4.89,0,0,0-1.57,1,4.74,4.74,0,0,0-1.07,1.53A4.61,4.61,0,0,0,257.14,9.27Z"/><path d="M274.7,18V.49h4.56l8.43,10.73V.49h4.54V18h-4.54L279.26,7.31V18Z"/></g></g></svg>