<svg xmlns="http://www.w3.org/2000/svg" width="150" height="150" viewBox="0 0 150 150">
  <g id="_16" data-name="16" transform="translate(-1568 -1640)">
    <rect id="Rectangle_63" data-name="Rectangle 63" width="150" height="150" transform="translate(1568 1640)" fill="#fff" opacity="0"/>
    <g id="Group_46" data-name="Group 46" transform="translate(1314.664 -818.73)">
      <path id="foreground" d="M325.929,2488.732a5.839,5.839,0,0,0-3.623,1.3c-1.738,1.5-3.473,3.054-3.413,5.092a4.937,4.937,0,0,0,1.2,3.179.708.708,0,0,1,0,1.2c-.779.6-10.006,6.473-9.527,18.579a40.387,40.387,0,0,1-.119,6.506,17.593,17.593,0,0,0,1.089,6.8c.012.014.246.616-.282.265a19.336,19.336,0,0,1-6.254-6.831,19.96,19.96,0,0,1-2.465-9.651,19.748,19.748,0,0,1,10-17.267,19.6,19.6,0,0,0-14.191,18.989,20.6,20.6,0,0,0,.1,2.059,19.551,19.551,0,0,0,.679,5.067c.66,1.5.6,4.732.6,5.271s.18,18.276,10.668,18.216c0,0,5,.125,5.032-1.913.03-1.8-.483-1.987-.957-3.029-.449-.989-.778-1.049-.538-4.225,0,0,.012-.643.252-.658s3.162,8.689,6.938,13.243,7.551,5.033,10.428,5.033c0,0,5.391,0,5.391-2.7s-2.457-1.619-2.457-10.189,4.135-8.146,4.614-6.049.9,3.774.06,9.407,1.44,6.293,3.538,6.293,13.124.357,15.042-31.165a26.847,26.847,0,0,0-1.44-9.466s.72,8.389-4.494,12.884-8.211,3.836-8.211,3.836-2.514-.182-3.533,1.077-.842,2.158-3,1.5-2.166-1.2-4.143-.957-3.169.478-3.948-1.14-1.65-2.661-3.268-2.961-8.727-3.682-8.535-13.218c.179-8.869,4.2-11.927,4.2-11.927s.661-.718,1.32-.419a2.691,2.691,0,0,0,2.994-.777,10.642,10.642,0,0,1,4.375-2.82,1.758,1.758,0,0,0,1.5-1.8c-.06-1.559-1.321-4.971-2.939-5.99A4.88,4.88,0,0,0,325.929,2488.732Zm5.438,42.891a4.708,4.708,0,0,1,1.436.436,10.72,10.72,0,0,0,3.353.111c.718-.05,1.2.255.624.936-.792.938-1.739.9-2.935.986a4.127,4.127,0,0,1-2.478-1.089c-.068-.116-.65-.736-.38-1.175A.434.434,0,0,1,331.367,2531.623Zm-6.123-19.12c1.385-1.7,2.157-1.918,3.356-1.918a3.517,3.517,0,0,1,3.356,2.637c.539,2.038.813,2.35-1.129,4.624-1.394,1.631-3.9,5.2-6.422,2.927S322.823,2515.473,325.244,2512.5Zm22.51,3.173c-.812-2.036-1.483-2.477-2.626-2.836a3.519,3.519,0,0,0-3.993,1.508c-1.125,1.782-1.515,1.951-.344,4.7.84,1.974,2.2,6.183,5.282,4.766S349.172,2519.236,347.754,2515.676Zm-13.277,13.374a3.877,3.877,0,0,1,3-1.372,1.03,1.03,0,0,0,1.117-1.013s.081-1-4.014-1.4-4.2.657-4.2.657a1.032,1.032,0,0,0,.916,1.2,3.913,3.913,0,0,1,2.7,1.9C334.085,2529.286,334.338,2529.291,334.477,2529.05Zm19.314-24.582a2.7,2.7,0,0,1-2.892-1.106,10.645,10.645,0,0,0-4.036-3.284,1.758,1.758,0,0,1-1.29-1.952c.233-1.542,1.862-4.8,3.583-5.631a5.815,5.815,0,0,1,6.18,1.352c1.562,1.682,3.116,3.423,2.831,5.441a4.92,4.92,0,0,1-1.543,3.024l.022,0A15.719,15.719,0,0,1,353.791,2504.468Z"/>
      <path id="WWF" d="M300.268,2561.926h3.051a1.008,1.008,0,0,1,1.1.659c.366.945,1.876,7,1.876,7l2.163-3.2s-.882-4.483.664-4.462c1.865.025,2.9,0,2.9,0s.743-.071,1.208,1.168c.547,1.458,1.879,6.593,1.879,6.593l3.078-7.017a1.483,1.483,0,0,1,1.1-.743c.721,0,1.177.5,1.017,1.082-.242.881-5.339,14.28-5.339,14.28s-.339.8-1.059.8-1.017-.423-1.4-1.4-2.8-7.5-2.8-7.5l-3.644,8.263s-.275.635-.847.635c-.678,0-.933-.3-1.272-.932s-4.618-12.882-4.618-12.882S298.488,2561.926,300.268,2561.926Zm22.532,0h3.051a1.008,1.008,0,0,1,1.1.659c.367.945,1.877,7,1.877,7l2.162-3.2s-.882-4.483.665-4.462c1.864.025,2.9,0,2.9,0s.743-.071,1.208,1.168c.547,1.458,1.879,6.593,1.879,6.593l3.078-7.017a1.483,1.483,0,0,1,1.1-.743c.721,0,1.177.5,1.017,1.082-.242.881-5.339,14.28-5.339,14.28s-.339.8-1.059.8-1.017-.423-1.4-1.4-2.8-7.5-2.8-7.5l-3.645,8.263s-.275.635-.847.635c-.678,0-.932-.3-1.271-.932s-4.619-12.882-4.619-12.882S321.02,2561.926,322.8,2561.926Zm22.55,16.168s-1.049.089-1.049-1.559v-13.6s0-1.018,1.5-1.018h10.248a1.138,1.138,0,0,1,1.241,1.139,1.016,1.016,0,0,1-1.152,1.078h-6.112a.7.7,0,0,0-.719.689v3.356h4.7s1.272,0,1.272.989-1.062,1.049-1.062,1.049h-4.944v6.541s.073,1.34-.8,1.34C347.879,2578.094,345.35,2578.063,345.35,2578.094Z"/>
    </g>
  </g>
</svg>
