<svg xmlns="http://www.w3.org/2000/svg" xmlns:xlink="http://www.w3.org/1999/xlink" width="150" height="150" viewBox="0 0 150 150">
  <defs>
    <clipPath id="clip-path">
      <rect id="Rectangle_10" data-name="Rectangle 10" width="67.329" height="69.481" transform="translate(648.601 1792.997)" fill="none"/>
    </clipPath>
  </defs>
  <g id="_5" data-name="5" transform="translate(-1568 -1640)">
    <rect id="Rectangle_63" data-name="Rectangle 63" width="150" height="150" transform="translate(1568 1640)" fill="#fff" opacity="0"/>
    <g id="Group_43" data-name="Group 43" transform="translate(960.399 -112.997)">
      <g id="Group_11" data-name="Group 11" clip-path="url(#clip-path)">
        <g id="Artboard">
          <rect id="Rectangle_9" data-name="Rectangle 9" width="101.705" height="77.028" transform="translate(633.19 1790.086)" fill="#fff"/>
          <g id="logo">
            <rect id="bg" width="102.989" height="102.989" transform="translate(633.262 1775.251)" fill="#fff"/>
            <g id="logo_square_blue" data-name="logo/square/blue">
              <g id="Group-2">
                <path id="logo-2" data-name="logo" d="M709.874,1850.326c1.009.006,1.666.563,1.662,1.271a.911.911,0,0,1-.919.921c-1.135-.007-.847-.839-1.318-.841-1.263-.008-2.194,2.356-3.151,4.414-.384.828-.607.98-.922.978-.792-.005-.964-2.13-1.275-3.055-.671,1.38-1.943,3.035-4.026,3.022a2.228,2.228,0,0,1-2.377-2.506c.014-2.093,1.408-3.594,2.828-3.586a1.938,1.938,0,0,1,1.786,1.859c-.013,2.064-2.791,2.106-2.794,2.538,0,.4.722.559,1.131.562,1.769.011,2.969-2.31,3.37-3.89.069-.274.321-.86.826-.857.569,0,.294,3.481,1.083,3.486C706.252,1854.644,706.909,1850.307,709.874,1850.326Zm-25.881-2.507a10.593,10.593,0,0,1-1.715,6.6,2.245,2.245,0,0,0,1.853,1.414,1.237,1.237,0,0,0,.791-.274,3,3,0,0,1-.122-.893c.014-2.155,1.446-3.963,2.676-3.955.978.006,1.538,1.272,1.532,2.1-.006.984-.864,1.781-2.129,2.543a1.532,1.532,0,0,0,.976.375c1.8.011,2.754-2.107,3.464-4.044.128-.369.353-.89.794-.887.757.005,1.042,4.871,2.3,4.878.538,0,.986-1.072.991-1.9,0-.617-.216-.68-.21-1.573.006-.984.548-1.811,1.275-1.806.441,0,.6.432.6.954-.013,1.971-1.49,5.626-3.632,5.613-1.612-.01-1.468-2.718-2.035-2.722-.634,0-1.535,2.73-4.654,2.711a2.017,2.017,0,0,1-1.478-.749,3.691,3.691,0,0,1-2.119.7c-1.166-.008-1.664-1.181-2.136-1.184-.569,0-1.206,1.194-3.1,1.182-1.514-.009-1.754-1.979-2.289-1.982-.474,0-1.212,1.96-2,1.956-1.327-.009-1.586-3.426-2.755-3.434-.914-.005-3.827,3.447-4.611,3.362a.455.455,0,0,1-.411-.572,21.154,21.154,0,0,1,.586-2.1c.261-.934.5-1.959.635-2.285a.835.835,0,0,1,.764-.536c.142.014.183.272.225.486.154.762.372,1.539.623,1.541.443,0,1.924-2.729,2.775-2.724,1.043.007,1.14,4.318,2.558,4.327.474,0,.826-.548,1.145-1.225.04-1.141.365-2.767,1.311-2.761.663,0,.97,1.452.487,2.712a1.647,1.647,0,0,0,1.66,1.887,2.226,2.226,0,0,0,1.933-1.138,11.205,11.205,0,0,1-.644-2.983c-.169-2.985,1.027-5.785,2.317-5.855C683.164,1845.525,683.915,1846.4,683.993,1847.819Zm-18.842-.508a13.115,13.115,0,0,1,.194,4.125c-.141,2.523-1.455,5.564-4.671,5.48-2.776-.076-3.993-1.838-4.1-4.517a12.027,12.027,0,0,1,.6-4.305c.29-.954.546-1.293,1.429-1.47.694-.12.627.587.465,1.42a16,16,0,0,0-.41,4.829c.109,2.217,1.147,3.086,2.282,3.093,1.7.043,2.469-1.338,2.8-3.339a5.7,5.7,0,0,0-.078-2.862,9.567,9.567,0,0,1-.416-1.375,1.605,1.605,0,0,1,.911-1.856C664.716,1846.383,664.936,1846.663,665.151,1847.311Zm21.844,4.875c-.286,0-.948.3-.955,1.286a1.881,1.881,0,0,0,.4,1.3,1.6,1.6,0,0,0,1.177-1.628C687.623,1852.621,687.34,1852.188,686.995,1852.186Zm12.962-.011c-1.2-.007-1.116,1.9-.929,2.364a2.018,2.018,0,0,0,1.616-1.13C700.8,1852.946,700.62,1852.179,699.957,1852.175Zm-17.725-4.754c-.628.033-.931,1.96-.816,3.988.074,1.323.274,1.528.462,1.517.348-.018,1.2-2.376,1.089-4.283C682.917,1847.782,682.706,1847.392,682.232,1847.421Zm-5.356-1.453a.918.918,0,0,1,.973.836,1.316,1.316,0,0,1-1.142,1.472.914.914,0,0,1-.942-.932A1.23,1.23,0,0,1,676.876,1845.968Zm6.26-11.964a4,4,0,0,1,1.752,1.237,3.036,3.036,0,0,1,1.01-.153,6.451,6.451,0,0,1,1.87.321c.034-.221.067-.493.4-.493.505,0,.371.56.54.88.084.17.506.272.507.611a.433.433,0,0,1-.439.442.763.763,0,0,1-.2-.033c-.336.119-.35,2.56-1.765,2.562a2.841,2.841,0,0,1-2.428-1.948.72.72,0,0,0-.606-.525c-.269,0-.421.051-.74.408a5.84,5.84,0,0,1-4.293,1.868c-.573,0-1.028-.05-1.146-.05-.067,0-.067.017-.067.034,0,.119.573.577,1.819.576,2.964,0,3.688-1.683,4.159-1.684a.391.391,0,0,1,.387.272,3.3,3.3,0,0,0,3.143,2,7.74,7.74,0,0,0,1.019-.069c.253,0,.27.152.27.255,0,.373-.826.833-2.29.834a1.488,1.488,0,0,1-1.534-.967,6.61,6.61,0,0,1-3.384,1.039c-3.452,0-4.33-1.507-5.408-2-.826-.372-2.088.359-3.858-1.624a4.293,4.293,0,0,0,.809.067c1.548,0,2.373-.765,2.372-1.987a4.412,4.412,0,0,0-.034-.473,3.363,3.363,0,0,1,1.8,2.439c.033.17.724.322,1.161.321a1.373,1.373,0,0,0,1.5-1.256A3.792,3.792,0,0,0,683.136,1834Zm12.179,1.4c.39,0,.931.365.932,1.261,0,1.576-2.362,3.519-5.525,3.522a1.373,1.373,0,0,1-1.5-1.325,3.7,3.7,0,0,1,.924-2.275c.185-.217.372-.383.541-.383a4.23,4.23,0,0,0,1.455.281A5.027,5.027,0,0,0,695.315,1835.4Zm-1.014,1.461a3.867,3.867,0,0,1-2.008.518h-.22a3.14,3.14,0,0,1,.033.382,3.812,3.812,0,0,1-.235,1.209h0l1.844-.531a1.457,1.457,0,0,0,.773-1.229C694.488,1836.91,694.386,1836.86,694.3,1836.86Zm-7.9-.6a.679.679,0,1,0,.675.679A.678.678,0,0,0,686.4,1836.257Zm-15.725-6.372c2.066,0,3.654,1.739,3.656,4.221,0,1.118-.611,2.779-3.1,2.781a4.688,4.688,0,0,1-4.751-4.088,2.391,2.391,0,0,1,1.467-2.336c-.6,2.4.738,4.766,3.471,4.764,1.366,0,2.03-.676,2.029-1.842a2.481,2.481,0,0,0-2.427-2.6c-.768,0-1.3.429-1.3,1.019a1.645,1.645,0,0,0,1.71,1.611c.58,0,.956-.231.956-.609a.394.394,0,0,0-.052-.2.942.942,0,0,1-.376.066c-.7,0-1.263-.394-1.263-.788a.491.491,0,0,1,.528-.509,1.849,1.849,0,0,1,1.726,1.757,1.413,1.413,0,0,1-1.518,1.414,2.771,2.771,0,0,1-2.888-2.71A2.026,2.026,0,0,1,670.679,1829.885Zm10.844,1.235a.548.548,0,0,1,.515.548.483.483,0,0,1,.364-.155.509.509,0,0,1,.531.515.533.533,0,0,1-.232.424.474.474,0,0,1,.316.44.442.442,0,0,1-.464.44c-.249,0-.4-.283-.663-.283a.5.5,0,0,0-.382.158,1.574,1.574,0,0,1,.151.641c0,1.225-1.64,2.214-3.348,2.215s-2.321-1-2.322-1.409c0-.094.066-.142.182-.142a9.189,9.189,0,0,0,1.111.094c1.824,0,1.175-2.338,2.882-2.34a1.24,1.24,0,0,1,.929.47.7.7,0,0,0,.182-.455c0-.267-.183-.471-.183-.72A.416.416,0,0,1,681.523,1831.12Zm11.324,2.472c1.015,0,1.756.279,1.757.761h0v.382a.6.6,0,0,1-.168.482,2.858,2.858,0,0,1-1.824.55c-.913,0-1.658-.314-1.658-.63h0v-.764C690.953,1834.14,691.612,1833.593,692.847,1833.592Zm5.488-5.767a2.79,2.79,0,0,1,2.873,2.947c0,2.176-3.147,4.879-3.617,4.879-.387,0-.807-.542-.807-.905,0-.115.05-.264.386-.4a3.869,3.869,0,0,0,2.527-2.82.294.294,0,0,0-.3-.328c-.284,0-1.5,2.735-2.864,2.736-.94,0-1.9-.837-1.9-1.233,0-.66,2.718-1.881,2.717-2.8,0-.346-.168-.362-.3-.362-.353,0-2.3,2.555-3.554,2.557-.3,0-.554-.56-.555-.987,0-.231.15-.4.688-.512C696.511,1829.952,695.871,1827.827,698.335,1827.825Zm-10.34-3.295c.74,0,1.364.254,1.364.578,0,.444-1.094.172-1.178.7.775.1.961.374.961.6,0,.375-.337.494-.657.494-.236,0-.505-.05-.792-.05a1.265,1.265,0,0,0-1.042.444.579.579,0,0,1,.539.529c0,.988-2.71.172-2.708,2.712a3.224,3.224,0,0,0,3.47,2.81c1.078,0,1.768-.36,1.768-.77,0-.323-.572-.1-.572-.374,0-.119.2-.342.2-.53,0-.082-.068-.236-.2-.236a6.672,6.672,0,0,1-2.038.495c-.909,0-1.8-.526-1.8-1.242,0-.153.067-.239.168-.239s.236.068.354.068c.1,0,.118-.069.117-.256s0-.717.319-.717.927,1.193,3.252,1.191a5.225,5.225,0,0,0,2.825-.668,4.4,4.4,0,0,1-4.49,4.351,4.782,4.782,0,0,1-4.835-4.905A4.987,4.987,0,0,1,687.995,1824.53Zm-15.73,3.295a2.1,2.1,0,0,1,1.974,1.075c.5.755.588,2.015.855,2.25a.8.8,0,0,0,.5.151c.168,0,.318-.017.435-.017a2.3,2.3,0,0,1,2.025,1.964c0,.555-.484.755-1.085.756a2.889,2.889,0,0,1-1.959-.888,3.755,3.755,0,0,1-.62-1.831c-.135-.858-.8-1.58-2.142-1.913-1.071-.268-1.222-.47-1.222-.756C671.028,1828.145,671.68,1827.826,672.265,1827.825Zm3.817,4.079a.406.406,0,0,0-.418.387c0,.3.753.841,1.256.84.25,0,.333-.152.333-.27C677.253,1832.425,676.5,1831.9,676.082,1831.9Zm-9.775-16.435c.222,0,.324.218.324.437,0,.806-1.037,3.124-1.036,3.779,0,.1.034.185.119.185.427,0,1.278-1.815,1.549-2.722.154-.471.358-.723.546-.723.171,0,.325.184.325.571a14.063,14.063,0,0,1-1.6,4.469c-.578,1.109-1.481,2.7-1.48,3.6a1.771,1.771,0,0,0,.751,1.494c-1.091-.066-1.535-.167-1.945-1.006-1.822,3.579,3.364,3.222,1.592,6.4-.325-.569-2.884-1.155-2.887-4.481,0-2.871,2.554-4.553,2.553-5.745a.761.761,0,0,0-.307-.621c-.564-.47-.581-.856-1.024-.855-.324,0-.716.739-.306,1.393.137.218.256.353.256.554,0,.47-.749,1.73-1.277,1.73s-.939-1.29-.941-3.374c0-1.847.422-3.711.952-3.712.153,0,.2.1.2.235,0,.219-.067.655-.067,1.393,0,.79.189.858.343.858.579,0,.456-3.495,1.394-3.495.222,0,.291.218.291.487,0,.789-.391,1.948-.39,2.586,0,.319.085.42.239.42C664.9,1819.317,665.607,1815.469,666.307,1815.469Zm12.957,8.546a1.78,1.78,0,0,0,1.247,1.571,2.1,2.1,0,0,1,1.679,2.225c0,1.474-1.043,3.307-3.733,3.309a3.755,3.755,0,0,1-3.708-3.5c0-.443.115-.933.4-.933.249,0,.333.2.531.392a3.493,3.493,0,0,0,2.742.93c1.063,0,1.843-.427,1.843-.869,0-.736-1.546-.751-1.547-1.864A2.537,2.537,0,0,1,679.264,1824.015Zm19.592,4.5c-.234,0-.486.183-.486.628a1.045,1.045,0,0,0,.6.9,1.057,1.057,0,0,0,.486.132c.487,0,.873-.133.873-.529C700.334,1829.143,699.577,1828.517,698.856,1828.517Zm-17.845-.639c-.133,0-.281.261-.68.442-.57.257-.8.213-.8.787,0,.212-.049.489-.049.637,0,.2.034.311.266.311a2.1,2.1,0,0,0,1.543-1.851C681.294,1827.975,681.161,1827.878,681.011,1827.878Zm6.768-.075a1.484,1.484,0,0,1,1.635,1.278.789.789,0,0,1-.792.817.744.744,0,0,1-.741-.765c0-.29.118-.563.117-.819A.688.688,0,0,0,687.779,1827.8Zm14.815-4.1c.837,0,1.507,1.084,1.508,2.353a5.247,5.247,0,0,1-1.766,3.825c-.019-2.254-2.78-1.534-2.782-3.17a1.109,1.109,0,0,1,1.1-1.17,1.7,1.7,0,0,1,1.255.451,1.484,1.484,0,0,1-.453-1.069A1.136,1.136,0,0,1,702.594,1823.707Zm-34.994,1.664a1.134,1.134,0,0,1,1.275.857,1.041,1.041,0,0,1,.557-.235A1.1,1.1,0,0,1,670.61,1827a1.143,1.143,0,0,1-.965,1.225c-.063.012-.144.021-.144.021a1.289,1.289,0,0,1,.1.4,1.088,1.088,0,0,1-.973,1.225,1.039,1.039,0,0,1-1.2-.825,1.368,1.368,0,0,1-.556.173,1.1,1.1,0,0,1-1.213-.968A1.158,1.158,0,0,1,666.6,1827l.168-.025a1.167,1.167,0,0,1-.085-.345A1.112,1.112,0,0,1,667.6,1825.371Zm25.75,1.336c1.26.084,2.069.85,2.07,1.753a1.172,1.172,0,0,1-1.161,1.228,1.009,1.009,0,0,1-1.059-1.021c0-.494.319-.937.319-1.415A1.032,1.032,0,0,0,693.35,1826.707Zm-3.337-1.8a3.137,3.137,0,0,1,2.731,2.947,1.535,1.535,0,0,1-1.48,1.67,1.435,1.435,0,0,1-1.481-1.549c0-.716.551-1.466.55-2.2A1.327,1.327,0,0,0,690.013,1824.9Zm-21.855,2.086-.062,0a.654.654,0,0,0-.561.731.643.643,0,0,0,.711.576.652.652,0,0,0,.56-.729.642.642,0,0,0-.71-.578Zm22.951-.757c-.135,0-.084.2-.118.426-.017.17-.1.375-.1.511a.406.406,0,0,0,.405.426.468.468,0,0,0,.438-.512C691.733,1826.726,691.413,1826.231,691.109,1826.232Zm3.348-7.282c.254,0,.612.831.782.831.272,0,.645-.679.9-.68.084,0,.118.051.119.2,0,.627-.322,1.34-.321,1.952,0,.423.137.915.561.915.357,0,.663-.542.662-1.137,0-.679-.12-1.205-.12-1.477,0-.118.051-.169.119-.169.255.017.493.712.765.712.306,0,.761-.561.947-.561.051,0,.068.068.068.084,0,.255-.39.816-.39,1.036,0,.187.986.22.986.39,0,.254-1.032.255-1.525.476-.475.2-.764.459-.764.8s.34.406.816.406a6.752,6.752,0,0,0,2.187-.613.079.079,0,0,1,.084.085c0,.17-.576.73-.576.984,0,.289,1.054.626,1.037.8-.017.05-.085.067-.2.067-.187,0-.475-.05-.7-.05a.4.4,0,0,0-.306.085c-.117.137.036,1.035-.2,1.036-.221,0-.8-2-2.1-2-.187,0-.322.153-.322.407a2.554,2.554,0,0,0,1.293,1.831c.285.187.761.373.761.475,0,.2-1.084.018-1.084.357,0,.306.137.765.137,1.035,0,.085-.016.186-.118.186-.2,0-.7-.931-.936-.931-.2,0-.645.56-.833.56a.1.1,0,0,1-.084-.1c0-.391.628-1.273.627-2.139,0-.407-.052-1.29-.546-1.289-.407,0-.865.645-1.069,1.291-.118.373-.032,1.815-.3,1.815-.255,0-.188-.966-.528-.966-.25,0-.794.458-.981.458-.034,0-.068-.017-.068-.05,0-.2.492-.866.492-1,0-.254-1.122-.287-1.122-.491,0-.119.442-.2.849-.272.863-.154,2.137-.783,2.136-1.664,0-.984-.953-1.408-1.578-1.815-.323-.2-.68-.372-.68-.508s.408-.136.577-.136c.255,0,.507-.018.507-.222,0-.153-.035-.457-.036-.7C694.371,1819.086,694.388,1818.95,694.457,1818.95Zm-17.144-2.657a2.638,2.638,0,0,1,1.53,1.93c0,1.129-1.194,1.653-1.193,2.358,0,.818,1.279.948,1.28,1.963,0,.834-1.211,1.8-1.21,2.881a1.644,1.644,0,0,0,1.513,1.635,3.865,3.865,0,0,1-.847.115c-1.678,0-3.406-1.354-3.407-2.975a2.767,2.767,0,0,1,.878-2.013,2.386,2.386,0,0,0,1.23.653c.266,0,.382-.131.382-.327,0-.607-2.443-1.16-2.445-2.454,0-1.047,2.524-1.606,2.523-2.9A2.115,2.115,0,0,0,677.313,1816.293Zm-6.392,0a3.978,3.978,0,0,0-.433,1.883c0,2.858,3.432,5.529,3.434,7.293a1.486,1.486,0,0,1-1.469,1.533,1.256,1.256,0,0,1-1.289-1.227.864.864,0,0,1,.4-.775c.049,0,.066.034.066.152a.548.548,0,0,0,.57.538.559.559,0,0,0,.584-.572c0-1.4-2.829-3.831-2.832-7.177a3.791,3.791,0,0,0-.333,1.548c0,1.613,1.173,3.294,1.175,4.806a1.151,1.151,0,0,1-1.086,1.178.907.907,0,0,1-.954-.907c0-.235.1-.454.167-.454.084,0,.051.353.436.353.4,0,.551-.287.55-.807,0-1.4-.8-2.387-.8-3.833a3,3,0,0,1,.049-.673,2.956,2.956,0,0,0-.484,1.918h0l0,1.715c0,1.159-.583,1.681-1.286,1.682a.92.92,0,0,1-.9-.975c0-.084.05-.386.151-.386.134,0,.234.352.619.352.736,0,.785-.723.784-2.169A5.788,5.788,0,0,1,670.921,1816.293Zm16.914,0c.188,1.441,2.124.71,2.126,2.457,0,.255-.068.629-.067.95,0,.374.034.7.32.7s.356-.2.356-.475-.069-.611-.069-.8a.656.656,0,0,1,.679-.729c.646,0,1.139.66,2.108.659-.22,1.086-2.463.8-2.462,1.988,0,.594.6.728.986.728.357,0,.476-.051.476-.356,0-.17-.035-.357-.035-.476a.135.135,0,0,1,.136-.136c.374,0,2.206,1.39,2.207,1.815,0,.389-1.933.781-2.494.782a.181.181,0,0,1-.2-.186c0-.119.288-.476.288-.679,0-.153-.254-.255-.935-.254-.322,0-.56.034-.56.29,0,.457.749,1.016.75,1.44,0,.34-.2.544-.748.544-.459,0-1.152-.356-1.153-.949,0-.475.489-.95.489-1.239a.236.236,0,0,0-.269-.221c-.629,0-.8,1.663-3.022,1.852a1.7,1.7,0,0,0,.661-1.408c0-.356-.085-.645-.085-1.035,0-.509.236-.764.576-.765.628,0,.934.882,1.343.881a.49.49,0,0,0,.458-.508c0-1.29-2.481-1.1-2.482-2.917A4.2,4.2,0,0,1,687.835,1816.293Zm6.791-6.591a2.514,2.514,0,0,0,1.567.439c.584,0,1.117-.153,1.967-.154,2,0,2.88,1.4,4.116,3.19.746.472,2.53,1.231,2.532,3.378,0,1.893-1.981,2.942-2.459,4.97.763-.084,1.212-1.471,1.995-1.472.4,0,.584.321.585.829a3.7,3.7,0,0,1-1.215,2.552,1.114,1.114,0,0,0,.017-.254c0-.472-.185-1.147-.718-1.147-.83,0-1.1.913-1.562,1.674a8.1,8.1,0,0,0-2.3-4.223c-1.181-.962-3.215-.437-3.216-2.194,0-.474.3-1.15.3-1.691a.8.8,0,0,0-.134-.49c1.6.608,1.035,1.689,2.02,2.8.614.71,2.314,1.385,3.3,4.307a3.314,3.314,0,0,0,.032-.456c0-2.5-3.266-4.949-3.55-5.963,1.9.218,2.229.692,3.131,3.225a10.7,10.7,0,0,1,.786,2.467,10.313,10.313,0,0,1,1.144-2.35c-.546-.286-2-.894-2-1.891a2.6,2.6,0,0,1,1.728-2.08c.133,0,.167.118.167.338,0,.608-.282,1.588-.281,2.113,0,.472.3.929.567.929.284,0,1.066-1.015,1.065-2.013a2.262,2.262,0,0,0-2.032-2.33,9.6,9.6,0,0,1-3.182.746c-3.579,0-4.4-3.595-4.4-5.167C694.593,1809.719,694.609,1809.7,694.626,1809.7Zm-20.484,2.06c.406,0,1.166.708,1.37,1.433a1.3,1.3,0,0,0-.254-.033c-.541,0-.843.528-1.282,1.418a5.459,5.459,0,0,1,2.921-1.173,1.416,1.416,0,0,1,1.573,1.333,2.025,2.025,0,0,1-.388,1.054c-.136-.741-.762-1.069-1.843-1.068a6.087,6.087,0,0,0-1.959.33c1.909.263,2.2.938,2.2,1.547,0,1.038-1.063,1.55-1.773,1.9a4.2,4.2,0,0,0,.118-.939,2.41,2.41,0,0,0-1.2-2.026c-.15.676-.69,1.088-.69,1.615a.236.236,0,0,0,.237.263c0,.3-.135,1.137-.135,1.352,0,.444.1.527.322.576.136.379.141,1.014.234,1.355a.315.315,0,0,0,.325.243,2.416,2.416,0,0,0,.626,1.053.386.386,0,0,1,.152.263c0,.3-.455.627-.742.628-.085,0-.231-.051-.361-.355-.106-.25-.924-.748-.975-1.045a.38.38,0,0,0,.084-.264c0-.461-.744-.988-.744-1.712a.345.345,0,0,0,.168-.314c0-.411-.44-1.219-.441-1.761.186,0,.288-.017.3-.281a2.643,2.643,0,0,1,.674-1.813,3.252,3.252,0,0,0-.473-.032,3.651,3.651,0,0,0-3.174,1.864,3.231,3.231,0,0,1-.051-.543,1.914,1.914,0,0,1,2.042-2.144,11.624,11.624,0,0,1,1.841.229,3.094,3.094,0,0,0-2.18-1.283c-.337,0-.608.116-.692.4a2.964,2.964,0,0,1-.051-.559c0-.807.269-1.269.978-1.269,1.048,0,1.944,1.217,2.485,2.353h0v-.145c0-1.583.05-2.392.7-2.439Zm20.14,5.359a.616.616,0,1,1-.637.6A.637.637,0,0,1,694.282,1817.121Zm-2.123-1.149a1.119,1.119,0,1,1-1.163,1.119A1.144,1.144,0,0,1,692.159,1815.972Zm-2.077-.516a.648.648,0,1,1-.67.648A.664.664,0,0,1,690.082,1815.456Zm4.131-.506a.762.762,0,1,1-.789.762A.778.778,0,0,1,694.213,1814.95Zm-33.107-.525a1.842,1.842,0,0,0,1.64,1,8.028,8.028,0,0,0,1.675-.251,3.986,3.986,0,0,1-2.2,1.12C661.509,1816.293,661.107,1815.692,661.106,1814.425Zm27.005-.328a.924.924,0,1,1-.959.924A.952.952,0,0,1,688.111,1814.1Zm4.181.061a.649.649,0,1,1-.674.648A.663.663,0,0,1,692.292,1814.158Zm-26.3-1.457a2.159,2.159,0,0,0-.122.768,1.906,1.906,0,0,0,.664,1.451,1.171,1.171,0,0,1-.679.168,1.008,1.008,0,0,1-1.1-.984A1.613,1.613,0,0,1,665.989,1812.7Zm24.311.293a.988.988,0,1,1-1.025.988A1,1,0,0,1,690.3,1812.994Zm-22.865-1.678a2.5,2.5,0,0,1,1.939,2.15,1.28,1.28,0,0,1-1.255,1.419,1.523,1.523,0,0,1-1.467-1.65A3.1,3.1,0,0,1,667.435,1811.316Zm-5.72,1.623a2.135,2.135,0,0,0,1.762.715,3.854,3.854,0,0,0,.628-.05,1.9,1.9,0,0,1-1.394.8c-.576,0-1.012-.434-1.013-1.218A1.24,1.24,0,0,1,661.715,1812.939Zm32.361.051a.681.681,0,1,1-.705.681A.7.7,0,0,1,694.076,1812.99Zm4.382-2.091c-.067,0-.147.051-.147.254,0,.186.034.3.034.523s-.05.373-.25.373c-.45,0-.851-1.064-1.234-1.064a.151.151,0,0,0-.166.136c0,.2.333.574.333.76,0,.406-1.083.186-1.082.525,0,.152.149.2.349.2.351,0,.9-.152,1.184-.153.167,0,.417.034.417.253,0,.237-.6.541-.6.761a.168.168,0,0,0,.183.151c.45,0,1.246-.794,1.812-.8.1,0,.349.05.35.2,0,.219-.566.608-.565.929,0,.084.05.186.15.186.3,0,.7-.795,1.265-.795.216,0,.533.084.7.083.133,0,.183-.084.183-.135,0-.355-.884-.388-.968-1.385-.017-.152-.067-.422-.251-.421-.3,0-.065.929-.4.929C698.992,1812.42,698.741,1810.9,698.458,1810.9Zm-10.063,1.189a.648.648,0,1,1-.673.649A.664.664,0,0,1,688.4,1812.088Zm3.827-.813a1.037,1.037,0,1,1-1.079,1.038A1.066,1.066,0,0,1,692.222,1811.275Zm-27.023-2.661a3.658,3.658,0,0,1,.384.016,1.586,1.586,0,0,1,.646.116c.142.136.057.393.28.684s.489.25.489.567a3.426,3.426,0,0,1-3.208,2.74c-.681,0-1.151-.282-1.57-.282-.069,0-.157.034-.3.034a.365.365,0,0,1-.331-.317.344.344,0,0,1,.053-.184c.243-.384.018-1.913,1.531-2.838A3.653,3.653,0,0,1,665.2,1808.614Zm38.9-1.322c.458.161.411.856.412,1.743,0,1.548-.154,3.514-.565,3.55-.616.049-2.889-2.015-3.1-3.547A3.58,3.58,0,0,0,704.1,1807.292Zm-14.107,3.969a.616.616,0,1,1-.637.616A.628.628,0,0,1,689.995,1811.261Zm-16.765-5.677c1.291,0,1.977,1.16,1.978,2.456a3.253,3.253,0,0,1-.049.564,2.847,2.847,0,0,1,2.155-1.645c1.077,0,1.568.945,1.569,2.008,0,.464-.129,1.146-.341,1.146s-.18-.382-.214-.731c-.032-.448-.114-.548-.262-.548-.277,0-.456.665-.455,1.28,0,.381.066.813.359.813a.594.594,0,0,0,.409-.183,1.475,1.475,0,0,1-1.4,1.43c-1.437,0-1.977-1.709-2.142-2.706a3.941,3.941,0,0,1-3.1,1.614,1.853,1.853,0,0,1-1.944-1.941c0-.283.1-1.013.44-1.013.408,0,.05,1.361.85,1.36.2,0,.555-.167.751-.714a3.135,3.135,0,0,0,.179-.98c0-.449-.1-.731-.425-.73a1.267,1.267,0,0,0-.735.332A2.463,2.463,0,0,1,673.23,1805.584Zm-9.844,4.316c-.191,0-.453.418-.452.752a1.4,1.4,0,0,0,1.2,1.3c.314,0,.646-.168.646-.285,0-.034-.035-.05-.087-.083a1.916,1.916,0,0,1-1.189-1.517C663.491,1809.95,663.456,1809.9,663.386,1809.9Zm13.83-1.862c-.343,0-.912,1.645-.912,2.541,0,.349.083.5.181.5.408,0,.864-1.6.863-2.592C677.348,1808.27,677.315,1808.038,677.216,1808.038Zm14.588-1.087a2.438,2.438,0,0,1-2.177,3.63,3.352,3.352,0,0,1-1.263-.269c-.306,0-.29.642-.5.626-.372-.067-.712-.928-.712-1.839a2.765,2.765,0,0,1,.418-1.536,1.691,1.691,0,0,0,1.245.606c.179,0,.389-.051.5-.051.145,0,.242.067.242.185a1.077,1.077,0,0,1-.355.659,1.566,1.566,0,0,0,.631.118A1.945,1.945,0,0,0,691.8,1806.951Zm1.243,2.751a.616.616,0,1,1-.64.617A.63.63,0,0,1,693.047,1809.7Zm-27.917-.52c-.261,0-.453.033-.453.35,0,.5.49,1.385,1.1,1.385.279,0,.418-.3.418-.535,0-.117-.333-.31-.454-.467-.193-.25-.193-.584-.35-.667A.431.431,0,0,0,665.13,1809.182Zm3.089-.22a.668.668,0,1,1-.7.668A.685.685,0,0,1,668.219,1808.962Zm5.29-2.6c-.506,0-1.206,2.907-1.2,3.555,0,.117.032.25.18.249.555,0,1.188-3.056,1.187-3.572C673.671,1806.463,673.623,1806.364,673.509,1806.364Zm2.418,2.206c-.164,0-.342.2-.6.649.033.6.131.864.294.863.179,0,.44-.582.44-1.163C676.057,1808.637,675.992,1808.57,675.927,1808.57Zm-1.568-1.011c-.491,0-.734,1.33-.733,1.679,0,.2.1.364.2.364.18,0,.408-.2.833-.682a4.388,4.388,0,0,0,.032-.664C674.686,1807.924,674.555,1807.559,674.359,1807.559Zm21.411-2.8c.57,0,.424.689.946.688.406,0,.928-.363,1.238-.363.485,0,1.186,1.619,1.187,2.377,0,.88-1.25,1.415-2.732,1.417a3.569,3.569,0,0,1-3.47-3.289.185.185,0,0,1,.1-.173,6.933,6.933,0,0,0,2.31-.537A.844.844,0,0,1,695.77,1804.76Zm-28.461,2.7a.668.668,0,1,1-.7.669A.686.686,0,0,1,667.309,1807.46Zm-5.165-1.58a1.59,1.59,0,0,0-.017.284,1.959,1.959,0,0,0,1.572,1.951,2.15,2.15,0,0,1-1.134.367,1.284,1.284,0,0,1-1.344-1.283A1.4,1.4,0,0,1,662.144,1805.88Zm41.071-1.12a.977.977,0,0,1,.9,1.08c0,1.178-1.5,2.518-3.139,2.52-.615,0-1.042-.192-1.043-.644a.609.609,0,0,1,.679-.565c1.438,0,2.76-.987,2.759-1.875A.716.716,0,0,0,703.215,1804.76Zm-13.787,0a2.765,2.765,0,0,1,1.582.572c.161,0,.323-.17.453-.17.178,0,.178.287.178.49a2.81,2.81,0,0,1-1.017,2.262,1.685,1.685,0,0,0-.807-.809.267.267,0,0,1-.161-.253.684.684,0,0,1,.352-.524,1.18,1.18,0,0,0-.838-.336,1.317,1.317,0,0,0-1.293,1,1.634,1.634,0,0,1-.114-.574A1.6,1.6,0,0,1,689.428,1804.76Zm-25.227,0c1.187,0,1.572,1.217,1.573,2.017a3.191,3.191,0,0,1-.156.969c-1.2,0-2.584-.532-2.585-1.85A1.136,1.136,0,0,1,664.2,1804.76Zm-1.05-8.238c.834,0,3,.215,3,.7,0,.554-1.823,1.111-1.822,1.648,0,.64,2.555.267,2.556.823s-1.854,1.85-1.854,2.253c0,.067.085.1.153.1.443,0,1.6-.842,2.128-.843.2,0,.272.135.273.371,0,.47-.288,1.26-.288,1.747,0,.118.035.252.17.252.375,0,.97-1.6,1.5-1.6.477,0,.053,2.4.547,2.4.426,0,.509-2.185.952-2.186.425,0,.631,1.226,1.074,1.226.186,0,.2-.235.2-.622h0v-.571c0-.37.016-.622.2-.622.512,0,1.96,1.678,2.267,1.678.068,0,.085-.067.085-.118,0-.453-.973-1.982-.974-2.788,0-.27.1-.455.375-.455.6,0,1.857.688,2.435.688.188,0,.307-.068.307-.253,0-.689-2.08-2.082-2.08-2.654,0-.555,2.315-1.128,3.9-1.129.205,0,.614,0,.614.217,0,.42-1.965.781-2.438,1.273a.3.3,0,0,0-.1.209c.031.79,2.8,2.619,2.8,3.628,0,.218-.187.387-.494.387-.92,0-2.862-.905-3.527-.9-.187,0-.237.05-.237.218,0,.639,1.261,2.654,1.262,3.545,0,.235-.084.421-.322.421-.767,0-2.472-2.015-3.067-2.014-.545,0-.3,1.7-.816,1.7-.408,0-.767-.975-1.21-.974s-.729,3.362-1.427,3.363c-.818,0-.5-3.109-1.042-3.109-.426,0-1,1.06-1.634,1.061-.34,0-.443-.269-.443-.655,0-.488.152-1.16.152-1.6,0-.236-.018-.5-.239-.5-.631,0-2.928,1.666-3.813,1.667-.187,0-.324-.084-.324-.269,0-.824,2.908-3.3,2.908-3.867,0-.522-3.337-.048-3.338-.553,0-.571,2.366-1.564,2.365-1.935s-2.282-.518-2.282-.956C661.6,1796.64,662.146,1796.523,663.151,1796.522Zm31.545,9.859c-.065,0-.1.035-.1.086,0,.449.783,1.137,1.989,1.136.717,0,1.254-.346,1.254-.553,0-.068-.1-.12-.31-.12a8.539,8.539,0,0,1-1.434-.154C695.413,1806.656,694.892,1806.381,694.7,1806.381Zm7.544-1.588a.413.413,0,0,1,.454.451c0,.711-1.4,1.292-2.064,1.293a.679.679,0,0,1-.712-.354c-.143-.29-.1-.759-.364-.968a2.707,2.707,0,0,0,.774.08C701.039,1805.294,701.718,1804.793,702.24,1804.793Zm-26.057-2.232a9.952,9.952,0,0,1,2.949,2.1.673.673,0,0,1,.1.369c0,.505-.254,1.094-.6,1.094-.409,0-2.54-2.872-2.541-3.46A.094.094,0,0,1,676.183,1802.561Zm26.82-5.627c.559,0,.691.248,1.512.248a1.276,1.276,0,0,0-.607.983,18.371,18.371,0,0,1,.447,2.615c0,2.63-2.426,3.565-5.4,3.568a16.756,16.756,0,0,1-2.544-.2c-.131-.016-.164-.05-.164-.133,0-.217,1.167-.335,1.166-1.4a8.569,8.569,0,0,0-.133-.965.13.13,0,0,1,.132-.134c.246,0,.74.965,1.657.964a.786.786,0,0,0,.852-.85c0-1.182-2.79-1.48-2.791-1.746,0-.216,1.558-.585,2.362-.6-1.233-1.6-2.988-1.429-2.988-1.712a5,5,0,0,1,2.527-.5c1.018,0,1.971.232,1.971,1.014,0,.434-.344.884-.343,1.55a.612.612,0,0,0,.658.682c.51,0,.624-.55.623-1.134,0-.482-.083-.849-.083-1.082A1.1,1.1,0,0,1,703,1796.934Zm-13.446-.391c.2,0,.614.662.882.645a12.923,12.923,0,0,1,2.419-.549c2.4,0,4.137,1.4,4.139,3.808a3.829,3.829,0,0,1-4,3.9,6.744,6.744,0,0,1-2.64-.876c-.219,0-.541.763-.745.763-.086,0-.12-.017-.154-.216-.051-.38-.1-1.027-.377-1.027-.238,0-1.207,1.079-1.53,1.079-.068,0-.085,0-.085-.083,0-.331.849-1.492.849-1.839s-1.158-.148-1.158-.43c0-.348,1.157-.714,1.156-1.177s-1.106-.53-1.107-.894c0-.2,1.038-.482,1.038-.78s-1.057-1.457-1.057-1.839c0-.413,1.583.728,1.992.727.179,0,.2-.443.2-.676v-.086C689.387,1796.708,689.472,1796.543,689.557,1796.543Zm3.285.875c-1.04,0-1.7.416-1.7.8,0,.232.205.265.375.265.341,0,1.158-.316,1.311-.316.119,0,.188.033.188.116,0,.182-.358.58-.358.812,0,.315,1.871.081,1.871.413,0,.314-1.376.614-1.375.813,0,.216,1.107.927,1.108,1.292,0,.066-.034.133-.153.133-.358,0-1.039-.182-1.5-.181-.1,0-.153.049-.153.116,0,.247.29.744.29,1.043,0,.1-.051.132-.119.132-.272,0-1.09-.562-1.465-.562a.234.234,0,0,0-.238.249c0,.3.784.877,1.976.876a2.674,2.674,0,0,0,2.634-2.984C695.53,1798.543,694.524,1797.417,692.842,1797.418Zm9.851,2.531c0,1.482-1.062,2.615-2.985,2.933.214.016.412.016.609.016,2.247,0,3.069-1.035,3.068-1.9A1.06,1.06,0,0,0,702.693,1799.949Zm-39.624.809c.238,0,.511.049.511.184a3.24,3.24,0,0,1-1.752,1.463c-.17,0-.221-.2-.222-.386a1.484,1.484,0,0,1,.34-.958A1.92,1.92,0,0,1,663.069,1800.758Zm27.117-2.127c-.167,0-.2.928-.422.928-.255,0-.579-.066-.767-.066-.051,0-.085.017-.085.05,0,.2.666.546.666.728,0,.116-.682.581-.682.713,0,.033.034.05.12.05.119,0,.511.016.716.016a.118.118,0,0,1,.119.133h0l.035.662c0,.083.034.149.085.149.153,0,.456-.68.643-.68.153,0,.681.232.818.232a.045.045,0,0,0,.051-.05c0-.149-.359-.613-.359-.728,0-.15.971-.134.971-.3,0-.133-.954-.314-.954-.463,0-.133.425-.58.425-.7,0-.034-.034-.05-.068-.05-.171,0-.579.249-.8.249C690.51,1799.509,690.3,1798.631,690.186,1798.631Zm-21.637-2c1.124,0,.9.941,1.789.941.852,0,.7-.91,1.8-.911.7,0,1.209.1,1.209.2,0,.235-.833.236-.833.757s1.516.957,1.516,1.36c0,.117-.1.151-.2.151-.289,0-.817-.235-1.208-.234-.273,0-.477.135-.477.421,0,.47.512,1.193.512,1.545a.191.191,0,0,1-.187.2c-.409,0-.852-1.293-1.449-1.293-.732,0-.509,1.867-1.02,1.867-.493,0,.1-1.9-.8-1.9-.545,0-1.123.858-1.464.859-.085,0-.17-.034-.17-.135,0-.336.919-1.094.918-1.514,0-.219-.221-.268-.46-.268-.426,0-1.021.169-1.4.169-.171,0-.306-.051-.306-.168,0-.353,1.719-.522,1.718-1.11,0-.556-.8-.471-.8-.673C667.238,1796.753,667.868,1796.635,668.549,1796.634Zm10.083,1.589c.443,0,.664.016.664.52,0,.4-.084.79-.373.791-.494,0-1.568-.655-1.568-.957C677.355,1798.375,678.07,1798.223,678.632,1798.223Zm24.371-.69a.416.416,0,1,0,.412.417A.411.411,0,0,0,703,1797.533Z" fill="#1f36c7"/>
              </g>
            </g>
          </g>
        </g>
      </g>
    </g>
  </g>
</svg>
