<svg xmlns="http://www.w3.org/2000/svg" width="150" height="150" viewBox="0 0 150 150">
  <g id="_7" data-name="7" transform="translate(-1568 -1640)">
    <rect id="Rectangle_63" data-name="Rectangle 63" width="150" height="150" transform="translate(1568 1640)" fill="#fff" opacity="0"/>
    <g id="layer1" transform="translate(1136.123 -478.383)">
      <g id="g9277">
        <path id="path9279" d="M487.809,2191.2H477v-6.287h-5.585v16.442H477v-6.606h10.808v6.606h5.585v-16.442h-5.585v6.287" fill="#e6000d"/>
      </g>
      <g id="g9281">
        <path id="path9283" d="M502.721,2194.745l3.889-6.385,3.77,6.385h-7.659m1.722-9.837-10.016,16.443H498.7l2.049-3.365h11.548l1.988,3.365H521.1l-10.014-16.443h-6.642" fill="#e6000d"/>
      </g>
      <g id="g9285">
        <path id="path9287" d="M543.253,2192.035c1.33-1.743,1.15-4.3-1.4-5.758-2.38-1.366-6.923-1.869-9.762-1.869a56.518,56.518,0,0,0-9.953.734v16.209h5.583V2187.6a22.273,22.273,0,0,1,4.817-.372,7.864,7.864,0,0,1,4.461,1.15,2.15,2.15,0,0,1-.026,3.488c-1,.841-3.032,1.5-7.575.808l-.641,1.053,8.588,7.622h7.6l-7.639-6.606c1.836-.238,4.619-.972,5.949-2.71" fill="#e6000d"/>
      </g>
      <g id="g9289">
        <path id="path9291" d="M459.176,2190.591c-3.225-.627-5.965-1.017-5.965-2.063,0-1.158,2.216-1.457,5.356-1.124a29.181,29.181,0,0,1,8.382,2.2l1.984-3.254a36.571,36.571,0,0,0-10.412-1.951c-4.328-.125-11.635.263-11.951,4.639-.288,4.006,5.42,4.963,9.163,5.833,3.651.85,7.073,1.157,7.073,2.421,0,.889-1.206,1.583-4.4,1.343a27.139,27.139,0,0,1-10.367-2.956l-2.165,3.556a38.55,38.55,0,0,0,12.626,2.619c5.078.084,10.812-.735,10.942-5.084.106-3.63-3.654-4.9-10.269-6.182" fill="#e6000d"/>
      </g>
      <g id="g9293">
        <path id="path9295" d="M561.3,2191.9c-.964.79-2.374,1.07-4.6,1.064a22.413,22.413,0,0,1-4.722-.621V2187.6a22.737,22.737,0,0,1,4.851-.372,8.084,8.084,0,0,1,4.495,1.15,2.179,2.179,0,0,1-.025,3.52m4.882-5.623c-2.274-1.346-6.531-1.869-9.8-1.869a57.084,57.084,0,0,0-9.989.733v16.21h5.585v-5.938a35.714,35.714,0,0,0,5.761.441c4.57-.038,7.966-1.112,9.512-2.795,2.2-2.394,1.463-5.285-1.07-6.782" fill="#e6000d"/>
      </g>
    </g>
  </g>
</svg>
