<svg xmlns="http://www.w3.org/2000/svg" viewBox="0 0 140 70"><defs><style>.cls-1{fill:none;}.cls-2{fill:#eb1c24;}.cls-3{fill:#c08500;}.cls-4{fill:#2d368e;}.cls-5{fill:#fff;}</style></defs><g id="Layer_2" data-name="Layer 2"><g id="Layer_1-2" data-name="Layer 1"><rect class="cls-1" width="140" height="70"/><polygon class="cls-2" points="27.84 45.57 27.45 45.57 26.03 38.25 23.45 38.25 22.03 45.57 21.64 45.57 22.16 34.65 18.16 34.65 18.93 48.3 23.58 48.3 24.61 42.54 24.87 42.54 25.9 48.3 30.55 48.3 31.32 34.65 27.32 34.65 27.84 45.57"/><path class="cls-2" d="M40.49,47.13a5.75,5.75,0,0,0,1-2A11.11,11.11,0,0,0,41.86,42a11.11,11.11,0,0,0-.37-3.12,5.75,5.75,0,0,0-1-2A3.65,3.65,0,0,0,39,35.73a4.56,4.56,0,0,0-1.7-.34,4.51,4.51,0,0,0-1.72.34,3.62,3.62,0,0,0-1.45,1.1,5.75,5.75,0,0,0-1,2A11.11,11.11,0,0,0,32.79,42a11.11,11.11,0,0,0,.37,3.12,5.75,5.75,0,0,0,1,2,3.62,3.62,0,0,0,1.45,1.1,4.51,4.51,0,0,0,1.72.34,4.56,4.56,0,0,0,1.7-.34A3.65,3.65,0,0,0,40.49,47.13ZM38,44.42a7.38,7.38,0,0,1-.17,1.32,1.17,1.17,0,0,1-.22.55.4.4,0,0,1-.26.11.4.4,0,0,1-.27-.11,1.17,1.17,0,0,1-.22-.55,7.38,7.38,0,0,1-.17-1.32c0-.59-.06-1.41-.06-2.44s0-1.85.06-2.44a7.52,7.52,0,0,1,.17-1.32,1.17,1.17,0,0,1,.22-.55.4.4,0,0,1,.27-.11.4.4,0,0,1,.26.11,1.17,1.17,0,0,1,.22.55A7.52,7.52,0,0,1,38,39.54C38,40.13,38,41,38,42S38,43.83,38,44.42Z"/><polygon class="cls-2" points="46.12 39.27 46.47 39.27 48.98 48.3 52.56 48.3 52.56 35.67 48.86 35.67 50.29 44.69 49.94 44.69 47.43 35.67 43.85 35.67 43.85 48.3 47.55 48.3 46.12 39.27"/><path class="cls-2" d="M59.8,48a3.74,3.74,0,0,0,1.59-1.07,5.18,5.18,0,0,0,1-1.95,9.75,9.75,0,0,0,.38-3,9.77,9.77,0,0,0-.38-3,5.23,5.23,0,0,0-1-2A3.83,3.83,0,0,0,59.8,36a5.81,5.81,0,0,0-2-.32H54.23V48.29h3.58A5.81,5.81,0,0,0,59.8,48Zm-2-10.14h.12a.84.84,0,0,1,.42.12,1,1,0,0,1,.34.54,5.39,5.39,0,0,1,.23,1.24A22.39,22.39,0,0,1,59,42a22.39,22.39,0,0,1-.08,2.25,5.39,5.39,0,0,1-.23,1.24,1,1,0,0,1-.34.54.84.84,0,0,1-.42.12h-.12Z"/><polygon class="cls-2" points="71.25 38.01 71.25 35.67 64.45 35.67 64.45 48.3 71.25 48.3 71.25 45.95 68.03 45.95 68.03 42.97 70.3 42.97 70.3 40.63 68.03 40.63 68.03 38.01 71.25 38.01"/><path class="cls-2" d="M80.06,41.07a2.61,2.61,0,0,0,1.17-2.25A2.69,2.69,0,0,0,80,36.53a6.1,6.1,0,0,0-3.56-.86H72.87V48.29h3.58v-5c.72,0,1.08.3,1.08.91V47a1.3,1.3,0,0,0,.29,1,1.33,1.33,0,0,0,.9.25h3v-.18A.59.59,0,0,1,81.4,48a.75.75,0,0,1-.21-.27,1.28,1.28,0,0,1-.08-.49V44.69a2.16,2.16,0,0,0-.91-1.88,4.82,4.82,0,0,0-2.79-.65h-1v-.27A6.32,6.32,0,0,0,80.06,41.07Zm-3.61-3.42h.12a1,1,0,0,1,.77.32,1.82,1.82,0,0,1,.31,1.21,1.8,1.8,0,0,1-.31,1.21,1,1,0,0,1-.77.33h-.12Z"/><polygon class="cls-2" points="90.21 45.95 86.99 45.95 86.99 35.67 83.4 35.67 83.4 48.3 90.21 48.3 90.21 45.95"/><path class="cls-2" d="M95.72,46.22h1.7l.16,2.07h3.71L99.38,35.67H93.76L91.85,48.29h3.7Zm.67-8h.36l.55,5.68H95.84Z"/><polygon class="cls-2" points="109.35 44.69 109 44.69 106.49 35.67 102.91 35.67 102.91 48.3 106.61 48.3 105.18 39.27 105.53 39.27 108.04 48.3 111.62 48.3 111.62 35.67 107.92 35.67 109.35 44.69"/><path class="cls-2" d="M121.46,39a5.52,5.52,0,0,0-1-2A4,4,0,0,0,118.82,36a5.85,5.85,0,0,0-2-.32h-3.59V48.29h3.59a5.85,5.85,0,0,0,2-.32,3.87,3.87,0,0,0,1.59-1.07,5.47,5.47,0,0,0,1-1.95,10.07,10.07,0,0,0,.38-3A10.09,10.09,0,0,0,121.46,39Zm-3.52,5.21a6.76,6.76,0,0,1-.23,1.24,1,1,0,0,1-.35.54.78.78,0,0,1-.41.12h-.12v-8.3H117a.78.78,0,0,1,.41.12,1,1,0,0,1,.35.54,6.76,6.76,0,0,1,.23,1.24c0,.55.08,1.3.08,2.25S118,43.68,117.94,44.23Z"/><rect class="cls-3" x="67.36" y="59.28" width="5.28" height="0.3"/><path class="cls-3" d="M45.75,54.14l-.93,2.4h.44l.23-.59h1l.22.59h.45l-.92-2.4Zm-.15,1.47.37-1h0l.35,1Z"/><polygon class="cls-3" points="46.97 54.51 47.72 54.51 47.72 56.54 48.16 56.54 48.16 54.51 48.92 54.51 48.92 54.14 46.97 54.14 46.97 54.51"/><path class="cls-3" d="M81.93,53.45a1.67,1.67,0,0,0-.62.11.93.93,0,0,0-.42.29,1,1,0,0,0-.19.44h.39a.51.51,0,0,1,.24-.38,1.08,1.08,0,0,1,.59-.13.71.71,0,0,1,.6.22,1,1,0,0,1,.18.63v.22h-.52a2.58,2.58,0,0,0-1.2.23.8.8,0,0,0-.42.77,1,1,0,0,0,.14.54.82.82,0,0,0,.38.33,1.41,1.41,0,0,0,.57.11,1.19,1.19,0,0,0,.64-.16,1.3,1.3,0,0,0,.4-.41h0l0,.48h.35V54.59a1.14,1.14,0,0,0-.3-.86A1.17,1.17,0,0,0,81.93,53.45Zm.77,2a1.21,1.21,0,0,1-.14.58,1,1,0,0,1-.37.37,1.18,1.18,0,0,1-.53.12.77.77,0,0,1-.52-.16.59.59,0,0,1-.19-.48.58.58,0,0,1,.15-.43.77.77,0,0,1,.42-.22,3.59,3.59,0,0,1,.72-.06h.46Z"/><path class="cls-3" d="M84.65,53.62a.92.92,0,0,0-.34.47h0v-.55H83.9v3.2h.39V54.88a1.4,1.4,0,0,1,.11-.56.89.89,0,0,1,.31-.38.93.93,0,0,1,.51-.14l.23,0v-.36h-.22A1,1,0,0,0,84.65,53.62Z"/><path class="cls-3" d="M68.18,53.5v3.24h.89V55.28a1.17,1.17,0,0,1,.22-.75.79.79,0,0,1,.67-.28h.16l.11,0v-.84a1,1,0,0,0-.26,0,.93.93,0,0,0-.57.19,1,1,0,0,0-.36.5h0v-.6Z"/><path class="cls-3" d="M67.47,54.23a1.38,1.38,0,0,0-.57-.6,1.62,1.62,0,0,0-.86-.22,1.66,1.66,0,0,0-.87.22,1.54,1.54,0,0,0-.57.59,2.12,2.12,0,0,0,0,1.8,1.54,1.54,0,0,0,.57.59,1.75,1.75,0,0,0,.87.22,1.7,1.7,0,0,0,.85-.21,1.44,1.44,0,0,0,.57-.6,1.84,1.84,0,0,0,.21-.9A2,2,0,0,0,67.47,54.23Zm-.88,1.65a.71.71,0,0,1-1.11,0,1.25,1.25,0,0,1-.19-.76,1.27,1.27,0,0,1,.2-.76.62.62,0,0,1,.54-.27.63.63,0,0,1,.58.29,1.47,1.47,0,0,1,.17.74A1.28,1.28,0,0,1,66.59,55.88Z"/><polygon class="cls-3" points="62.7 55.37 62.69 55.37 61.97 52.41 61.06 52.41 60.33 55.33 60.31 55.33 59.64 52.41 58.66 52.41 59.81 56.74 60.8 56.74 61.5 53.83 61.51 53.83 62.22 56.74 63.2 56.74 64.36 52.41 63.4 52.41 62.7 55.37"/><path class="cls-3" d="M57.85,53.63a1.6,1.6,0,0,0-.86-.22,1.66,1.66,0,0,0-.87.22,1.54,1.54,0,0,0-.57.59,2.13,2.13,0,0,0,0,1.8,1.54,1.54,0,0,0,.57.59,1.75,1.75,0,0,0,.87.22,1.7,1.7,0,0,0,.85-.21,1.46,1.46,0,0,0,.58-.6,2,2,0,0,0,.2-.9,1.83,1.83,0,0,0-.2-.89A1.38,1.38,0,0,0,57.85,53.63Zm-.31,2.25a.62.62,0,0,1-.55.27.65.65,0,0,1-.56-.27,1.33,1.33,0,0,1-.19-.76,1.27,1.27,0,0,1,.2-.76.7.7,0,0,1,1.12,0,1.38,1.38,0,0,1,.17.74A1.28,1.28,0,0,1,57.54,55.88Z"/><path class="cls-3" d="M78.25,55h1.4a1.63,1.63,0,0,1-.19.82,1.24,1.24,0,0,1-.52.52,1.66,1.66,0,0,1-.78.18,1.46,1.46,0,0,1-.9-.27,1.52,1.52,0,0,1-.53-.69,2.36,2.36,0,0,1-.18-.92,2.32,2.32,0,0,1,.18-.92,1.54,1.54,0,0,1,.53-.7,1.46,1.46,0,0,1,.9-.27,1.83,1.83,0,0,1,.68.13,1.31,1.31,0,0,1,.49.35.94.94,0,0,1,.21.48H80a1.46,1.46,0,0,0-1-1.15,2.24,2.24,0,0,0-.84-.15,2,2,0,0,0-1.11.3,2,2,0,0,0-.69.82,2.72,2.72,0,0,0-.23,1.11,2.56,2.56,0,0,0,.24,1.12,1.82,1.82,0,0,0,.69.81,2,2,0,0,0,1.1.3,2.24,2.24,0,0,0,1-.2,1.54,1.54,0,0,0,.66-.63A2.07,2.07,0,0,0,80,54.93V54.6H78.25Z"/><path class="cls-3" d="M91.39,53.67a1.17,1.17,0,0,0-.73-.22,1.31,1.31,0,0,0-.78.23,1.39,1.39,0,0,0-.47.62,2.32,2.32,0,0,0-.16.84,2.42,2.42,0,0,0,.16.88,1.31,1.31,0,0,0,.48.6,1.54,1.54,0,0,0,1.62,0,1.23,1.23,0,0,0,.44-.7h-.38a.86.86,0,0,1-.31.46,1,1,0,0,1-.6.16.89.89,0,0,1-.56-.17,1.17,1.17,0,0,1-.34-.47,2,2,0,0,1-.12-.61H92v-.1a2.19,2.19,0,0,0-.16-.88A1.3,1.3,0,0,0,91.39,53.67Zm-1.75,1.25a1.89,1.89,0,0,1,.18-.61,1,1,0,0,1,.35-.39.92.92,0,0,1,.48-.14.85.85,0,0,1,.51.15,1.07,1.07,0,0,1,.34.42,1.58,1.58,0,0,1,.13.57Z"/><path class="cls-3" d="M88.18,54.15h0a1,1,0,0,0-.23-.37,1.19,1.19,0,0,0-.38-.25,1.44,1.44,0,0,0-.46-.08,1.27,1.27,0,0,0-.76.23,1.31,1.31,0,0,0-.47.61,2.11,2.11,0,0,0-.16.85,2.21,2.21,0,0,0,.16.87,1.26,1.26,0,0,0,1.23.82,1.06,1.06,0,0,0,.43-.08,1.16,1.16,0,0,0,.39-.22.94.94,0,0,0,.25-.35h0v.56h.39V52.32h-.39Zm-.12,1.68a1.07,1.07,0,0,1-.36.49,1,1,0,0,1-.6.18.87.87,0,0,1-.56-.18,1.27,1.27,0,0,1-.34-.5,2.13,2.13,0,0,1,0-1.35,1.16,1.16,0,0,1,.33-.5.84.84,0,0,1,.57-.19,1,1,0,0,1,.61.19,1,1,0,0,1,.35.49,1.87,1.87,0,0,1,.12.68A1.92,1.92,0,0,1,88.06,55.83Z"/><rect class="cls-3" x="70.7" y="52.27" width="0.89" height="4.47"/><path class="cls-3" d="M94,53.45a.89.89,0,0,0-.92.58h0v-.49h-.39v3.2H93v-2a1.06,1.06,0,0,1,.23-.73.84.84,0,0,1,.67-.25.8.8,0,0,1,.65.25,1.18,1.18,0,0,1,.2.73v2h.39V54.66A1.07,1.07,0,0,0,94,53.45Z"/><path class="cls-3" d="M54.83,52.29a.39.39,0,0,0-.18-.18.56.56,0,0,0-.54,0,.47.47,0,0,0-.19.18.51.51,0,0,0-.06.25.55.55,0,0,0,.06.26.66.66,0,0,0,.19.18.64.64,0,0,0,.54,0,.52.52,0,0,0,.18-.18.56.56,0,0,0,.07-.26A.52.52,0,0,0,54.83,52.29Z"/><rect class="cls-3" x="53.93" y="53.5" width="0.89" height="3.24"/><path class="cls-3" d="M52.23,55.37a1.06,1.06,0,0,1,0,.33.43.43,0,0,1-.14.23.49.49,0,0,1-.32.09.48.48,0,0,1-.4-.16.76.76,0,0,1-.13-.48h-.89v.11a1.36,1.36,0,0,0,.18.71,1.14,1.14,0,0,0,.5.47,1.73,1.73,0,0,0,.78.17,1.43,1.43,0,0,0,1.08-.38,1.51,1.51,0,0,0,.36-1.09v-3h-1Z"/><path class="cls-3" d="M74.42,52.27V53.9h0a.85.85,0,0,0-.39-.36,1.07,1.07,0,0,0-.53-.13,1.26,1.26,0,0,0-.75.23,1.46,1.46,0,0,0-.48.61,2.32,2.32,0,0,0-.16.84,2.21,2.21,0,0,0,.16.87,1.52,1.52,0,0,0,.48.63,1.21,1.21,0,0,0,.76.24,1.26,1.26,0,0,0,.57-.13,1,1,0,0,0,.39-.38h0v.42h.84V52.27Zm-.16,3.61a.61.61,0,0,1-.54.27.59.59,0,0,1-.41-.15.94.94,0,0,1-.25-.38,1.64,1.64,0,0,1-.08-.5,1.26,1.26,0,0,1,.19-.75.61.61,0,0,1,.54-.28.63.63,0,0,1,.56.28,1.33,1.33,0,0,1,.18.74A1.39,1.39,0,0,1,74.26,55.88Z"/><path class="cls-4" d="M70,32.52A11,11,0,1,0,59,21.47,11,11,0,0,0,70,32.52Z"/><path class="cls-5" d="M66.76,17.09h-.37c-.7,0-1.08.39-1.08,1.18v3.8c0,1-.33,1.32-1.11,1.32a1.86,1.86,0,0,1-1.5-.75,1.29,1.29,0,0,0-.84,1.28c0,1,1,1.64,2.72,1.64,2.15,0,3.28-1.08,3.28-3.45V18.27C67.86,17.48,67.48,17.09,66.76,17.09Z"/><path class="cls-5" d="M70.09,19h-.26c-.62,0-1.09.29-1.09,1.18v4.07c0,.9.46,1.18,1.12,1.18h.25c.62,0,1.07-.3,1.07-1.18V20.19C71.18,19.28,70.75,19,70.09,19Z"/><path class="cls-5" d="M70,16.06a1.14,1.14,0,0,0-1.29,1.14c0,.72.51,1.16,1.32,1.16a1.14,1.14,0,0,0,1.29-1.16C71.27,16.49,70.76,16.06,70,16.06Z"/><path class="cls-5" d="M75.32,18.94a3.2,3.2,0,0,0-3.47,3.3,3.45,3.45,0,0,0,6.89,0A3.18,3.18,0,0,0,75.32,18.94Zm0,4.75a1.45,1.45,0,1,1,1.38-1.44A1.37,1.37,0,0,1,75.29,23.69Z"/></g></g></svg>