<?xml version="1.0" encoding="utf-8"?>
<!-- Generator: Adobe Illustrator 25.1.0, SVG Export Plug-In . SVG Version: 6.00 Build 0)  -->
<svg version="1.1" id="Layer_1" xmlns="http://www.w3.org/2000/svg" xmlns:xlink="http://www.w3.org/1999/xlink" x="0px" y="0px"
	 viewBox="0 0 140 70" style="enable-background:new 0 0 140 70;" xml:space="preserve">
<style type="text/css">
	.st0{fill:none;stroke:#231F20;stroke-width:2.1642;}
	.st1{fill:#231F20;}
	.st2{fill:#23297A;}
	.st3{fill:#FA0A0A;}
</style>
<line class="st0" x1="49.3" y1="52.3" x2="90.7" y2="52.3"/>
<polygon class="st1" points="45,21.9 45,24.8 49.5,24.8 49.5,25.5 45,25.5 45,29.5 44.1,29.5 44.1,21.1 50.3,21.1 50.3,21.9 "/>
<path class="st1" d="M57.3,29.5l-1.2-2.6h-4.4l-1.2,2.6h-0.9l4-8.4h0.7l3.9,8.4H57.3z M53.9,22.3L52,26.2h3.7L53.9,22.3z"/>
<path class="st1" d="M62.4,29.6c-1.1,0-2-0.2-2.7-0.6c-0.8-0.5-1.3-1.2-1.3-2.3v-0.4h0.8v0.3c0,1.4,1,2.1,3.1,2.1
	c0.7,0,1.3-0.1,1.8-0.3c0.6-0.3,0.9-0.7,0.9-1.2c0-0.4-0.1-0.7-0.3-0.9c-0.2-0.2-0.5-0.3-0.9-0.4c-0.2-0.1-0.8-0.2-1.8-0.4
	c-1.1-0.2-1.8-0.4-2.2-0.6c-0.8-0.4-1.2-1-1.2-1.7c0-1.5,1.1-2.2,3.4-2.2c2.4,0,3.6,0.9,3.6,2.8H65c-0.1-0.9-0.3-1.4-0.9-1.7
	c-0.4-0.2-1.1-0.3-1.9-0.3c-1.7,0-2.6,0.5-2.6,1.4c0,0.5,0.2,0.8,0.7,1.1c0.3,0.2,0.9,0.3,1.7,0.5c1.5,0.3,2.5,0.6,3.1,0.9
	c0.6,0.4,1,1,1,1.7c0,0.8-0.4,1.4-1.3,1.8C64.1,29.5,63.3,29.6,62.4,29.6"/>
<polygon class="st1" points="74,29.5 74,25.5 68.1,25.5 68.1,29.5 67.3,29.5 67.3,21.1 68.1,21.1 68.1,24.8 74,24.8 74,21.1 
	74.9,21.1 74.9,29.5 "/>
<rect x="76.3" y="21.1" class="st1" width="0.8" height="8.4"/>
<path class="st1" d="M86.1,28.5c-0.8,0.8-1.9,1.2-3.3,1.2c-1.4,0-2.5-0.4-3.3-1.1c-0.8-0.8-1.2-1.8-1.2-3.2c0-1.3,0.4-2.3,1.2-3.1
	c0.8-0.7,1.9-1.1,3.3-1.1c1.4,0,2.5,0.4,3.3,1.1c0.8,0.7,1.2,1.8,1.2,3.1C87.3,26.6,86.9,27.7,86.1,28.5 M85.5,22.8
	c-0.7-0.6-1.6-0.9-2.8-0.9c-1.2,0-2.1,0.3-2.7,0.9c-0.7,0.6-1,1.4-1,2.5c0,1.1,0.3,2,1,2.6c0.7,0.6,1.6,0.9,2.7,0.9
	c1.2,0,2.1-0.3,2.8-0.9c0.7-0.6,1-1.5,1-2.6C86.5,24.2,86.1,23.4,85.5,22.8"/>
<path class="st1" d="M95.2,29.5l-6-7.1v7.1h-0.8v-8.4h0.8c0.7,0.9,1.7,2.1,3,3.6c1.4,1.7,2.4,2.8,3,3.5v-7.1H96v8.4H95.2z"/>
<g>
	<polygon class="st1" points="60.7,40.8 60,40.8 58.1,36.5 56.3,40.8 55.6,40.8 51.9,32.4 52.7,32.4 55.9,39.6 57.7,35.5 56.3,32.4 
		57.1,32.4 60.4,39.6 63.5,32.4 64.3,32.4 	"/>
	<polygon class="st1" points="65.1,40.8 65.1,32.4 71.7,32.4 71.7,33.1 65.9,33.1 65.9,36 71,36 71,36.8 65.9,36.8 65.9,40 71.7,40 
		71.7,40.8 	"/>
	<polygon class="st1" points="72.6,40.8 72.6,32.4 79.2,32.4 79.2,33.1 73.4,33.1 73.4,36 78.6,36 78.6,36.8 73.4,36.8 73.4,40 
		79.3,40 79.3,40.8 	"/>
	<polygon class="st1" points="87.3,40.8 82.7,36.5 81,37.8 81,40.8 80.2,40.8 80.2,32.4 81,32.4 81,36.8 87,32.4 88.4,32.4 83.3,36 
		88.5,40.8 	"/>
</g>
<polygon class="st1" points="72.6,18.2 67.2,14.3 65.9,15 65.9,18.2 64.7,18.2 64.7,10.4 65.9,10.4 65.9,13.8 72.1,10.4 74,10.4 
	68.2,13.6 74.3,18.2 72.6,18.2 "/>
<path class="st1" d="M44.8,18.2c-0.5,0-0.8-0.4-0.8-0.8v-7h1.1v6.8h7.2v1H44.8L44.8,18.2z"/>
<path class="st1" d="M56.4,14.8l2.2-3.8h0l2.2,3.8H56.4L56.4,14.8z M59.6,10.8c-0.3-0.5-0.6-0.6-1-0.6h0c-0.4,0-0.7,0.1-1,0.6
	l-4.3,7.4h1.2l1.4-2.4h5.5l1.4,2.4h1.2L59.6,10.8L59.6,10.8z"/>
<path class="st1" d="M88.6,18.2c-0.4,0-0.8-0.3-0.8-0.8v-6.2c0-0.5,0.4-0.8,0.8-0.8h7.4v0.9h-7.2v2.5h5.4v1h-5.4v2.5h7.2v0.9H88.6
	L88.6,18.2z"/>
<path class="st1" d="M80.9,15.8c0.4,0,0.7-0.2,0.8-0.4c0,0,3.5-3.7,3.7-4h0v6.8h1v-6.9c0-0.1,0-0.2,0-0.2c-0.1-0.4-0.3-0.8-0.9-0.8
	h0c-0.4,0-0.8,0.3-0.8,0.4l-3.9,4.2h0L77,10.6c0,0-0.3-0.4-0.8-0.4h0c-0.6,0-0.9,0.4-0.9,0.8c0,0.1,0,0.2,0,0.2v6.9h1v-6.8h0
	c0.2,0.2,3.7,4,3.7,4C80.2,15.6,80.5,15.8,80.9,15.8L80.9,15.8L80.9,15.8z"/>
<polygon class="st1" points="95.1,7.3 89.1,8.1 89.3,9 95.2,8.2 95.1,7.3 "/>
<g>
	<path class="st1" d="M86.5,62.3L84,56h-0.5L81,62.3h0h-0.6v0.2h1.6v-0.2h-0.6h0l0.8-2.1h2.1l0.9,2.1h-0.1h-0.5v0.2h0.5h0.3h0.2h0.6
		h0.2h0.3h0.5v-0.2H86.5z M82.4,59.9l0.9-2.4l1,2.4H82.4z"/>
	<polygon class="st1" points="56.9,56.3 57.5,56.3 57.5,60.1 57.5,60.1 54.8,56 52.9,56 52.9,56.3 53.5,56.3 53.5,62.3 52.9,62.3 
		52.9,62.5 54.5,62.5 54.5,62.3 53.9,62.3 53.9,56.9 54,56.9 57.6,62.5 58,62.5 58,56.3 58.6,56.3 58.6,56 56.9,56 	"/>
	<path class="st1" d="M65.3,56L65.3,56h-1.7h-0.2h-0.7v0.2h0.6v6h-0.6v0.2h0.7h0.2h1.5h0h2.4h0v-2h0h-0.1h0
		c-0.1,0.3-0.1,0.5-0.2,0.7c-0.1,0.2-0.2,0.4-0.4,0.6c-0.2,0.2-0.3,0.3-0.5,0.4c-0.2,0.1-0.4,0.1-0.7,0.1h-0.5h0h-0.5v-3.1H65
		c0.2,0,0.4,0,0.6,0.1c0.1,0.1,0.2,0.2,0.3,0.3c0.1,0.1,0.2,0.2,0.2,0.4c0.1,0.2,0.1,0.3,0.1,0.4h0h0.1h0v-2.7h0h-0.1h0
		c0,0.2-0.1,0.3-0.1,0.5c-0.1,0.2-0.1,0.3-0.2,0.4c-0.1,0.1-0.2,0.2-0.4,0.3c-0.1,0.1-0.3,0.1-0.5,0.1h-0.5v-2.6h0.8h0h0.5
		c0.3,0,0.5,0.1,0.7,0.2c0.2,0.1,0.3,0.2,0.5,0.4c0.1,0.1,0.2,0.3,0.3,0.5c0.1,0.2,0.1,0.3,0.1,0.4h0h0.1h0V56h0H65.3z"/>
	<polygon class="st1" points="76,56.3 76.5,56.3 74.9,58.6 73.5,56.3 73.7,56.3 74.1,56.3 74.1,56 73.7,56 73.4,56 73.2,56 72.6,56 
		72.5,56 72.2,56 71.7,56 71.7,56.3 72.3,56.3 74.2,59.6 72.3,62.3 71.7,62.3 71.7,62.5 73.4,62.5 73.4,62.3 72.8,62.3 74.4,59.9 
		75.8,62.3 75.7,62.3 75.2,62.3 75.2,62.5 75.7,62.5 76,62.5 76.1,62.5 76.7,62.5 76.9,62.5 77.1,62.5 77.6,62.5 77.6,62.3 77,62.3 
		75.1,59 77,56.3 77.6,56.3 77.6,56 76,56 	"/>
</g>
<g>
	<g>
		<g>
			<path class="st2" d="M65.1,48.5h-3v-3.9h3v0.8h-2.2v0.8h2V47h-2v0.7h2.2V48.5z"/>
			<polygon class="st3" points="57.6,44.6 57.6,45.4 58.1,45.4 58.1,48.5 58.9,48.5 58.9,44.6 			"/>
			<path class="st2" d="M61.4,45.6L62,45c0,0-0.4-0.4-1.1-0.5c0,0-0.1,0-0.1,0c0,0-0.1,0-0.1,0c0,0-0.1,0-0.1,0c-0.1,0-0.1,0-0.1,0
				c0,0-0.1,0-0.1,0c-0.1,0-0.2,0-0.2,0.1c-0.6,0.2-0.9,0.6-0.9,1.1c0,0.6,0.3,0.9,0.9,1.1c0.6,0.2,0.9,0.3,0.9,0.6
				c0,0.3-0.3,0.5-0.9,0.3c-0.2-0.1-0.3-0.2-0.5-0.3L59,48c0,0,0.4,0.4,1.1,0.5c0.7,0.1,1.2-0.1,1.6-0.5s0.4-1.2-0.3-1.6
				c0,0-0.1-0.1-0.7-0.3c-0.3-0.1-0.5-0.2-0.6-0.3c0,0-0.1-0.1-0.1-0.1c0-0.1,0-0.1,0-0.1c0-0.1,0-0.1,0-0.1
				c0.1-0.1,0.2-0.2,0.4-0.2C60.7,45.2,61.1,45.3,61.4,45.6z"/>
			<path class="st2" d="M57.8,48.5l-1.3-1.4c0,0,0,0,0,0c0,0,0.1,0,0.1,0c0.1,0,0.1,0,0.2-0.1c0.5-0.2,0.8-0.7,0.8-1.3
				c0-0.7-0.6-1.2-1.4-1.2h-1.9v4.1h0.8v-1.4l0.4,0l1.2,1.4H57.8z M55.1,46.3v-1h1.1c0.4,0,0.6,0.2,0.6,0.5s-0.2,0.5-0.6,0.5H55.1z"
				/>
		</g>
		<path class="st3" d="M53.8,48.5c0-0.6-0.5-1-1-1c-0.6,0-1,0.5-1,1H53.8z"/>
	</g>
	<g>
		<path class="st2" d="M69.4,48.5l-0.6,0l-0.6-2.1l-0.6,2.1l-0.6,0l-0.9-3.1l0.6,0l0.6,2.2l0.6-2.2l0.5,0l0.6,2.2l0.6-2.2l0.6,0
			L69.4,48.5z"/>
		<path class="st2" d="M72.6,47.4c0,0.7-0.5,1.1-1.2,1.2c-0.7,0-1.2-0.4-1.2-1.1c0-0.7,0.5-1.1,1.2-1.2
			C72.1,46.3,72.6,46.7,72.6,47.4z M72.1,47.4c0-0.4-0.3-0.6-0.6-0.6c-0.3,0-0.6,0.3-0.6,0.7s0.3,0.6,0.6,0.6
			C71.8,48.1,72.1,47.8,72.1,47.4z"/>
		<path class="st2" d="M74.6,46.3l0,0.6l-0.1,0c-0.5,0-0.8,0.3-0.8,0.9l0,0.7l-0.6,0l0-2.2l0.6,0l0,0.4c0.2-0.3,0.4-0.4,0.8-0.4
			C74.5,46.3,74.5,46.3,74.6,46.3z"/>
		<path class="st2" d="M75,48.5l0-3.1l0.6,0l0,3.1L75,48.5z"/>
		<path class="st2" d="M78.3,48.5l-0.6,0l0-0.2c-0.2,0.2-0.4,0.2-0.7,0.2c-0.6,0-1.1-0.5-1.1-1.1c0-0.7,0.5-1.2,1.1-1.2
			c0.3,0,0.5,0.1,0.7,0.2l0-1.1l0.6,0L78.3,48.5z M77.8,47.4c0-0.4-0.3-0.7-0.6-0.6c-0.3,0-0.6,0.3-0.6,0.7c0,0.4,0.3,0.6,0.6,0.6
			C77.4,48,77.8,47.8,77.8,47.4z"/>
		<path class="st2" d="M81.3,48.4l-0.5,0l-0.4-1.3l-0.4,1.3l-0.5,0l-0.7-2.2l0.6,0l0.4,1.3l0.4-1.3l0.4,0l0.5,1.3l0.4-1.3l0.6,0
			L81.3,48.4z"/>
		<path class="st2" d="M83,45.6c0,0.2-0.1,0.3-0.3,0.3c-0.2,0-0.4-0.1-0.4-0.3c0-0.2,0.1-0.3,0.3-0.3C82.9,45.2,83,45.4,83,45.6z
			 M82.4,48.4l0-2.2l0.6,0l0,2.2L82.4,48.4z"/>
		<path class="st2" d="M85.8,48.4l-0.6,0l0-0.2c-0.2,0.2-0.4,0.2-0.7,0.2c-0.6,0-1.1-0.5-1.1-1.1c0-0.7,0.5-1.2,1.1-1.2
			c0.3,0,0.5,0.1,0.7,0.2l0-1.1l0.6,0L85.8,48.4z M85.2,47.3c0-0.4-0.3-0.7-0.6-0.6c-0.3,0-0.6,0.3-0.6,0.7c0,0.4,0.3,0.6,0.6,0.6
			C84.9,48,85.2,47.7,85.2,47.3z"/>
		<path class="st2" d="M88.5,47.4l-1.7,0c0.1,0.3,0.3,0.5,0.6,0.5c0.2,0,0.4,0,0.5-0.3l0.5,0.1c-0.2,0.5-0.6,0.7-1.1,0.7
			c-0.6,0-1.1-0.5-1.1-1.1c0-0.7,0.5-1.2,1.1-1.2c0.6,0,1.1,0.4,1.1,1.1L88.5,47.4z M86.8,47l1.1,0c-0.1-0.3-0.3-0.4-0.5-0.4
			C87.2,46.6,86.9,46.8,86.8,47z"/>
	</g>
</g>
</svg>
