<svg xmlns="http://www.w3.org/2000/svg" viewBox="0 0 89.15 32.29"><defs><style>.cls-1{fill:#ed1c24;}</style></defs><g id="Layer_2" data-name="Layer 2"><g id="Layer_1-2" data-name="Layer 1"><path class="cls-1" d="M13.09.06c-.28.59-.57,1.18-.85,1.78a26.7,26.7,0,0,0-2.17,6.38,10,10,0,0,0,.17,5.16A7.24,7.24,0,0,0,15.06,18a13.84,13.84,0,0,0,6.67.45,58,58,0,0,0,6.51-1.53l24.21-6.62,24.12-6.6L88.9.33a.41.41,0,0,1,.25,0l-1.93.85L62.86,12,37.15,23.35c-4.3,1.91-8.58,3.85-12.9,5.71a38,38,0,0,1-11,3.09,16.35,16.35,0,0,1-6.6-.44A9,9,0,0,1,1.65,28.3,9.57,9.57,0,0,1,0,23.18a15.41,15.41,0,0,1,1.34-6.59A40.27,40.27,0,0,1,6,8.39,55.87,55.87,0,0,1,12.51.55c.18-.17.33-.37.5-.55Z"/></g></g></svg>