<svg xmlns="http://www.w3.org/2000/svg" viewBox="0 0 140 70"><defs><style>.cls-1{fill:none;}.cls-2{fill:#1170b6;}.cls-3{fill:#078036;}.cls-4,.cls-5{fill:#1d1d1b;}.cls-5{fill-rule:evenodd;}</style></defs><g id="Layer_2" data-name="Layer 2"><g id="Layer_1-2" data-name="Layer 1"><rect class="cls-1" width="140" height="70"/><path class="cls-2" d="M51.61,36.22A5.83,5.83,0,0,0,50,31.8a6.88,6.88,0,0,0-4-1.61l-2.45-.35A3.64,3.64,0,0,1,41.62,29a2,2,0,0,1-.61-1.5c0-1.43,1.05-2.63,3.22-2.63a5.78,5.78,0,0,1,4.27,1.43l2.58-2.54a8.93,8.93,0,0,0-6.73-2.43c-4.51,0-7.26,2.6-7.26,6.32a5.49,5.49,0,0,0,1.49,4.1,7.09,7.09,0,0,0,4,1.72l2.52.36a3.07,3.07,0,0,1,1.84.73,2.3,2.3,0,0,1,.64,1.75c0,1.67-1.28,2.58-3.68,2.58a6.82,6.82,0,0,1-5-1.76l-2.63,2.64c2,2.08,4.45,2.75,7.61,2.75,4.36,0,7.73-2.28,7.73-6.32Zm16.47-1V21.52H64V35.08c0,2.4-1.43,3.83-3.63,3.83s-3.6-1.43-3.6-3.83V21.52H52.74v13.7c0,4.42,3.4,7.32,7.67,7.32s7.67-2.9,7.67-7.32Z"/><path class="cls-3" d="M88.94,42.54l-4.65-9a5.61,5.61,0,0,0,3.81-5.47c0-3.48-2.52-6.38-6.77-6.38H73.17V42.54h4.06V34.23h2.93l4.07,8.31ZM84,28.08a2.72,2.72,0,0,1-3,2.75H77.23v-5.5h3.84a2.72,2.72,0,0,1,3,2.75Zm19.63,14.46V38.91H94V33.85h8.23V30.22H94V25.33h9.66V21.7H89.93V42.54Z"/><path class="cls-4" d="M39,47.81a.75.75,0,0,0-.25-.59,1,1,0,0,0-.55-.21l-.32,0a.77.77,0,0,1-.4-.16.44.44,0,0,1-.14-.34c0-.33.23-.55.63-.55a.91.91,0,0,1,.69.25l.21-.2a1.21,1.21,0,0,0-.89-.33.84.84,0,0,0-1,.84.69.69,0,0,0,.23.55,1,1,0,0,0,.54.23l.35,0a.65.65,0,0,1,.39.15.48.48,0,0,1,.14.37c0,.35-.27.55-.7.55a1,1,0,0,1-.81-.33l-.22.22a1.29,1.29,0,0,0,1,.39c.62,0,1-.32,1-.84Zm3.43-.16v-2h-.32v2a.72.72,0,1,1-1.44,0v-2H40.4v2a1,1,0,0,0,2.07,0Zm3.35.16a.75.75,0,0,0-.25-.59A1,1,0,0,0,45,47l-.32,0a.77.77,0,0,1-.4-.16.44.44,0,0,1-.14-.34c0-.33.23-.55.63-.55a.91.91,0,0,1,.69.25l.21-.2a1.21,1.21,0,0,0-.89-.33.84.84,0,0,0-.95.84.69.69,0,0,0,.23.55,1,1,0,0,0,.54.23l.35,0a.65.65,0,0,1,.39.15.48.48,0,0,1,.14.37c0,.35-.27.55-.7.55A1,1,0,0,1,44,48l-.22.22a1.29,1.29,0,0,0,1,.39c.62,0,1-.32,1-.84ZM49,45.94v-.29h-2v.29h.86v2.69h.32V45.94Zm3.11,2.69-1.09-3H50.7l-1.09,3H50l.24-.67h1.3l.23.67Zm-.67-1H50.28l.56-1.57.55,1.57Zm2.21,1v-3h-.32v3Zm3.79,0v-3h-.32V48l-1.58-2.38h-.3v3h.32V46.24l1.58,2.39Zm3.67,0-1.09-3H59.7l-1.1,3h.34l.24-.67h1.3l.24.67Zm-.67-1H59.28l.56-1.57.55,1.57Zm3.92.13a.72.72,0,0,0-.48-.71.68.68,0,0,0,.44-.65.79.79,0,0,0-.88-.8H62.27v3h1.16a.79.79,0,0,0,.88-.82Zm-.31,0a.53.53,0,0,1-.6.54h-.81V47.25h.81a.53.53,0,0,1,.6.55Zm0-1.35c0,.36-.25.52-.58.52h-.78v-1h.78c.33,0,.58.16.58.51Zm3.68,2.18v-.29H66.11V45.65H65.8v3Zm3.14,0v-.29H69.24V47.27h1.31V47H69.24V45.94h1.53v-.29H68.93v3Zm4.52,0-.71-1.35a.77.77,0,0,0,.65-.8.81.81,0,0,0-.88-.83H73.21v3h.31V47.31h.72l.68,1.32Zm-.38-2.14a.52.52,0,0,1-.59.54h-.8V45.94h.8a.53.53,0,0,1,.59.55Zm3.62,2.14v-.29H77V47.27h1.3V47H77V45.94h1.53v-.29H76.68v3Zm3.19-.82a.75.75,0,0,0-.25-.59,1,1,0,0,0-.55-.21l-.32,0a.77.77,0,0,1-.4-.16.41.41,0,0,1-.14-.34c0-.33.23-.55.63-.55a.91.91,0,0,1,.69.25l.21-.2a1.21,1.21,0,0,0-.89-.33.84.84,0,0,0-1,.84A.68.68,0,0,0,80,47a1.07,1.07,0,0,0,.55.23l.35,0a.65.65,0,0,1,.39.15.48.48,0,0,1,.14.37c0,.35-.27.55-.7.55a1,1,0,0,1-.81-.33l-.22.22a1.29,1.29,0,0,0,1,.39c.62,0,1-.32,1-.84Zm3.36-.67c0-.63,0-.92-.28-1.2a1,1,0,0,0-.76-.31,1.07,1.07,0,0,0-.76.31c-.28.28-.28.57-.28,1.2s0,.92.28,1.2a1,1,0,0,0,.76.31,1,1,0,0,0,.76-.31c.28-.28.28-.57.28-1.2Zm-.31,0c0,.62,0,.82-.21,1a.74.74,0,0,1-1,0c-.19-.2-.21-.4-.21-1s0-.82.21-1a.71.71,0,0,1,1,0c.18.19.21.39.21,1Zm3.63,1.49v-.29H86.88V45.65h-.31v3Zm3.19-1v-2h-.31v2a.7.7,0,0,1-.73.75.69.69,0,0,1-.71-.75v-2h-.32v2a1,1,0,0,0,2.07,0Zm3.29-1.71v-.29h-2v.29h.86v2.69H94V45.94Zm1.61,2.69v-3h-.32v3Zm3.56-1.49c0-.63,0-.92-.28-1.2a1,1,0,0,0-.76-.31,1.07,1.07,0,0,0-.76.31c-.28.28-.28.57-.28,1.2s0,.92.28,1.2a1,1,0,0,0,.76.31,1,1,0,0,0,.76-.31c.28-.28.28-.57.28-1.2Zm-.31,0c0,.62,0,.82-.21,1a.74.74,0,0,1-1,0c-.19-.2-.21-.4-.21-1s0-.82.21-1a.71.71,0,0,1,1,0c.18.19.21.39.21,1Zm4,1.49v-3h-.31V48l-1.58-2.38h-.3v3h.31V46.24l1.58,2.39Z"/><path class="cls-5" d="M70.05,38.67a1.94,1.94,0,1,1-1.94,1.94,1.93,1.93,0,0,1,1.94-1.94Z"/></g></g></svg>