

<svg version="1.1" id="Layer_1" xmlns="http://www.w3.org/2000/svg" xmlns:xlink="http://www.w3.org/1999/xlink" x="0px" y="0px"
	 width="850px" height="51px" viewBox="0 0 850 51" enable-background="new 0 0 850 51" xml:space="preserve">
<g>
	<polygon points="44.278,12.638 30.209,12.638 30.209,49.879 16.761,49.879 16.761,12.638 2.623,12.638 2.623,0.915 44.278,0.915
		"/>
	<polygon points="95.243,0.915 95.243,49.879 81.795,49.879 81.795,30.708 65.381,30.708 65.381,49.879 51.933,49.879 51.933,0.915
		65.381,0.915 65.381,18.983 81.795,18.983 81.795,0.915 	"/>
	<polygon points="141.313,38.155 141.313,49.879 106.416,49.879 106.416,0.914 140.691,0.914 140.691,12.638 119.864,12.638
		119.864,19.535 137.658,19.535 137.658,30.432 119.864,30.432 119.864,38.155 	"/>
	<polygon points="219.818,15.914 187.75,25.501 219.818,34.948 219.818,49.086 170.853,31.086 170.853,19.914 219.818,1.708 	"/>
	<path d="M252.967,50.293c-3.725,0-7.104-0.712-10.138-2.137c-3.035-1.425-5.633-3.301-7.793-5.622
		c-2.162-2.32-3.84-4.977-5.035-7.965c-1.196-2.988-1.794-6.068-1.794-9.241c0-3.216,0.622-6.321,1.863-9.311
		c1.241-2.988,2.976-5.621,5.207-7.896c2.23-2.276,4.873-4.092,7.931-5.447c3.057-1.356,6.401-2.036,10.035-2.036
		c3.724,0,7.104,0.714,10.137,2.138c3.035,1.425,5.633,3.311,7.794,5.656c2.161,2.343,3.828,5.011,5,7.999
		c1.173,2.989,1.76,6.046,1.76,9.172c0,3.219-0.622,6.311-1.863,9.276c-1.241,2.965-2.966,5.587-5.172,7.86
		c-2.207,2.276-4.84,4.106-7.897,5.483C259.943,49.604,256.599,50.293,252.967,50.293 M241.864,25.466
		c0,1.656,0.229,3.253,0.688,4.792c0.46,1.541,1.149,2.908,2.069,4.103c0.919,1.196,2.08,2.163,3.482,2.896
		c1.402,0.736,3.07,1.104,5,1.104c1.932,0,3.609-0.38,5.035-1.139c1.424-0.758,2.586-1.747,3.482-2.965
		c0.896-1.217,1.563-2.608,2-4.174c0.436-1.562,0.655-3.147,0.655-4.757c0-1.655-0.23-3.251-0.689-4.793
		c-0.461-1.54-1.161-2.897-2.104-4.069s-2.115-2.114-3.518-2.827c-1.402-0.712-3.046-1.069-4.931-1.069
		c-1.932,0-3.598,0.368-5,1.104c-1.404,0.735-2.563,1.713-3.482,2.932c-0.921,1.218-1.599,2.597-2.035,4.136
		C242.081,22.282,241.864,23.858,241.864,25.466"/>
	<rect x="286.415" y="0.914" width="13.448" height="48.965"/>
	<path d="M308.346,24.984c0-2.989,0.563-5.932,1.689-8.828c1.125-2.896,2.77-5.495,4.931-7.794c2.161-2.297,4.781-4.16,7.862-5.585
		c3.079-1.424,6.597-2.138,10.552-2.138c4.734,0,8.839,0.978,12.311,2.932c3.471,1.954,6.057,4.541,7.759,7.758l-10.276,7.311
		c-0.46-1.194-1.068-2.184-1.827-2.966c-0.759-0.781-1.599-1.402-2.518-1.862c-0.92-0.459-1.874-0.781-2.861-0.965
		c-0.99-0.184-1.944-0.277-2.863-0.277c-1.931,0-3.598,0.38-4.999,1.14c-1.403,0.759-2.552,1.747-3.449,2.965
		c-0.896,1.22-1.563,2.598-2,4.138c-0.438,1.541-0.654,3.069-0.654,4.586c0,1.701,0.252,3.332,0.759,4.895
		c0.505,1.566,1.241,2.944,2.206,4.139c0.966,1.196,2.149,2.15,3.552,2.862c1.402,0.714,2.976,1.069,4.725,1.069
		c0.919,0,1.862-0.103,2.827-0.312c0.966-0.206,1.896-0.551,2.793-1.033s1.701-1.103,2.414-1.862
		c0.713-0.758,1.276-1.689,1.69-2.794l10.965,6.552c-0.735,1.794-1.852,3.403-3.345,4.828c-1.494,1.427-3.196,2.622-5.104,3.587
		c-1.909,0.965-3.954,1.701-6.138,2.207c-2.185,0.505-4.312,0.758-6.38,0.758c-3.632,0-6.955-0.725-9.965-2.173
		c-3.012-1.447-5.61-3.366-7.793-5.758c-2.186-2.39-3.874-5.104-5.069-8.139C308.942,31.19,308.346,28.11,308.346,24.984"/>
	<polygon points="396.346,38.155 396.346,49.879 361.448,49.879 361.448,0.914 395.725,0.914 395.725,12.638 374.897,12.638
		374.897,19.535 392.69,19.535 392.69,30.432 374.897,30.432 374.897,38.155 	"/>
	<path d="M445.722,50.293c-3.723,0-7.103-0.712-10.137-2.137c-3.035-1.425-5.634-3.301-7.793-5.622
		c-2.161-2.32-3.84-4.977-5.035-7.965s-1.793-6.068-1.793-9.241c0-3.216,0.621-6.321,1.862-9.311
		c1.242-2.988,2.977-5.621,5.207-7.896c2.23-2.276,4.873-4.092,7.931-5.447c3.058-1.356,6.401-2.036,10.036-2.036
		c3.724,0,7.103,0.714,10.138,2.138c3.034,1.425,5.631,3.311,7.792,5.656c2.161,2.343,3.827,5.011,5,7.999
		c1.174,2.989,1.759,6.046,1.759,9.172c0,3.219-0.621,6.311-1.862,9.276c-1.241,2.965-2.965,5.587-5.172,7.86
		c-2.208,2.276-4.84,4.106-7.896,5.483C452.699,49.604,449.354,50.293,445.722,50.293 M434.619,25.466
		c0,1.656,0.229,3.253,0.689,4.792c0.46,1.541,1.149,2.908,2.069,4.103c0.919,1.196,2.08,2.163,3.483,2.896
		c1.401,0.736,3.068,1.104,5,1.104c1.931,0,3.608-0.38,5.034-1.139c1.425-0.758,2.586-1.747,3.482-2.965
		c0.897-1.217,1.563-2.608,2-4.174c0.437-1.562,0.656-3.147,0.656-4.757c0-1.655-0.232-3.251-0.69-4.793
		c-0.461-1.54-1.162-2.897-2.104-4.069c-0.943-1.172-2.115-2.114-3.518-2.827c-1.401-0.712-3.046-1.069-4.931-1.069
		c-1.932,0-3.598,0.368-5,1.104c-1.403,0.735-2.563,1.713-3.482,2.932s-1.598,2.597-2.035,4.136
		C434.837,22.282,434.619,23.858,434.619,25.466"/>
	<polygon points="479.171,49.879 479.171,0.915 512.758,0.915 512.758,12.638 492.62,12.638 492.62,20.777 509.033,20.777
		509.033,31.672 492.62,31.672 492.62,49.879 	"/>
	<polygon points="537.24,49.879 537.24,0.915 570.826,0.915 570.826,12.638 550.688,12.638 550.688,20.777 567.103,20.777
		567.103,31.672 550.688,31.672 550.688,49.879 	"/>
	<path d="M588.344,0.915h12.275l16.967,48.964H603.93l-2.966-9.585H587.93l-2.895,9.585h-13.727L588.344,0.915z M598.827,31.327
		l-4.346-15.171l-4.552,15.171H598.827z"/>
	<path d="M653.517,16.915c-1.38-0.828-2.806-1.563-4.277-2.207c-1.241-0.553-2.631-1.069-4.171-1.552
		c-1.541-0.482-3.047-0.723-4.518-0.723c-1.196,0-2.15,0.184-2.863,0.551c-0.713,0.368-1.067,0.991-1.067,1.863
		c0,0.644,0.206,1.172,0.62,1.585c0.414,0.415,1.011,0.793,1.794,1.138c0.78,0.345,1.734,0.68,2.862,1.001
		c1.124,0.321,2.4,0.712,3.827,1.171c2.251,0.689,4.286,1.448,6.103,2.276c1.816,0.828,3.367,1.805,4.656,2.93
		c1.286,1.127,2.275,2.495,2.964,4.104c0.691,1.61,1.036,3.563,1.036,5.863c0,2.942-0.542,5.412-1.621,7.412
		c-1.082,2.001-2.507,3.599-4.276,4.794c-1.77,1.196-3.77,2.057-6,2.586c-2.23,0.53-4.473,0.793-6.724,0.793
		c-1.793,0-3.633-0.138-5.518-0.413c-1.887-0.275-3.758-0.667-5.621-1.174c-1.861-0.503-3.654-1.103-5.378-1.792
		c-1.724-0.688-3.324-1.472-4.795-2.345l5.793-11.793c1.609,1.013,3.288,1.908,5.035,2.689c1.472,0.688,3.139,1.31,5.001,1.863
		c1.861,0.55,3.758,0.826,5.689,0.826c1.471,0,2.492-0.196,3.069-0.587c0.574-0.389,0.86-0.906,0.86-1.551
		c0-0.689-0.286-1.276-0.86-1.759c-0.577-0.482-1.37-0.908-2.38-1.275c-1.012-0.367-2.172-0.736-3.483-1.105
		c-1.311-0.367-2.702-0.804-4.173-1.309c-2.161-0.735-4.022-1.528-5.586-2.381c-1.563-0.85-2.851-1.814-3.861-2.896
		c-1.013-1.079-1.76-2.31-2.242-3.69c-0.483-1.378-0.724-2.965-0.724-4.758c0-2.712,0.494-5.102,1.481-7.171
		c0.99-2.071,2.334-3.793,4.035-5.173c1.701-1.379,3.644-2.424,5.828-3.138c2.184-0.712,4.494-1.069,6.932-1.069
		c1.793,0,3.539,0.173,5.24,0.517c1.701,0.345,3.346,0.783,4.933,1.31c1.586,0.53,3.067,1.104,4.448,1.725
		c1.378,0.621,2.619,1.207,3.724,1.758L653.517,16.915z"/>
	<polygon points="712.48,0.915 712.48,49.879 699.033,49.879 699.033,30.708 682.619,30.708 682.619,49.879 669.171,49.879
		669.171,0.915 682.619,0.915 682.619,18.983 699.033,18.983 699.033,0.915 	"/>
	<rect x="723.654" y="0.914" width="13.447" height="48.965"/>
	<path d="M770.343,50.293c-3.725,0-7.104-0.712-10.138-2.137c-3.035-1.425-5.633-3.301-7.793-5.622
		c-2.163-2.32-3.841-4.977-5.035-7.965c-1.195-2.988-1.792-6.068-1.792-9.241c0-3.216,0.62-6.321,1.861-9.311
		c1.241-2.988,2.977-5.621,5.206-7.896c2.23-2.276,4.874-4.092,7.932-5.447c3.058-1.356,6.403-2.036,10.035-2.036
		c3.724,0,7.103,0.714,10.138,2.138c3.034,1.425,5.632,3.311,7.794,5.656c2.161,2.343,3.827,5.011,4.999,7.999
		c1.173,2.989,1.76,6.046,1.76,9.172c0,3.219-0.623,6.311-1.864,9.276c-1.241,2.965-2.965,5.587-5.172,7.86
		c-2.205,2.276-4.839,4.106-7.896,5.483C777.319,49.604,773.975,50.293,770.343,50.293 M759.239,25.466
		c0,1.656,0.229,3.253,0.688,4.792c0.46,1.541,1.15,2.908,2.069,4.103c0.92,1.196,2.081,2.163,3.484,2.896
		c1.401,0.736,3.068,1.104,4.999,1.104c1.932,0,3.609-0.38,5.035-1.139c1.423-0.758,2.586-1.747,3.481-2.965
		c0.897-1.217,1.563-2.608,2.001-4.174c0.437-1.562,0.655-3.147,0.655-4.757c0-1.655-0.23-3.251-0.689-4.793
		c-0.461-1.54-1.163-2.897-2.104-4.069c-0.943-1.172-2.115-2.114-3.518-2.827c-1.402-0.712-3.047-1.069-4.931-1.069
		c-1.932,0-3.599,0.368-5.001,1.104c-1.403,0.735-2.563,1.713-3.481,2.932c-0.92,1.218-1.599,2.597-2.036,4.136
		C759.456,22.282,759.239,23.858,759.239,25.466"/>
	<polygon points="817.239,25.811 817.239,49.879 803.791,49.879 803.791,0.914 814.273,0.914 833.93,25.811 833.93,0.914
		847.377,0.914 847.377,49.879 836.688,49.879 	"/>
</g>
</svg>
