<svg xmlns="http://www.w3.org/2000/svg" viewBox="0 0 79.95 37.43"><defs><style>.cls-1{fill:#25aff4;}</style></defs><g id="Layer_2" data-name="Layer 2"><g id="Layer_1-2" data-name="Layer 1"><path class="cls-1" d="M80,8.22c-.08.41-.16.83-.25,1.24a16.47,16.47,0,0,1-.93,3.07A9.15,9.15,0,0,1,77.28,15a8,8,0,0,1-2,1.78,10,10,0,0,1-4.07,1.37c-.91.1-1.82.17-2.72.18-2.15,0-4.29,0-6.43,0h-.37l-1,5H54.09a.9.9,0,0,1-.83-1.08A1.13,1.13,0,0,0,52.92,21c-.44-.37-.47-1-.64-1.47a1,1,0,0,1-.06-.3c0-.24-.15-.27-.32-.26-.55,0-1.1.05-1.64.13-.75.1-1.5.21-2.24.38a8.77,8.77,0,0,0-2.66,1,3.33,3.33,0,0,1-.5.25.31.31,0,0,1-.25,0,.29.29,0,0,1,0-.24,3,3,0,0,1,.5-.51,18.25,18.25,0,0,1,5.76-2.45,6.92,6.92,0,0,0,1.3-.52A1.68,1.68,0,0,0,53,15.61a11,11,0,0,1,.23-1.14l.09.22a9.24,9.24,0,0,0,.45,1.58,4.4,4.4,0,0,0,.85,1.09.56.56,0,0,0,.5.1,9.06,9.06,0,0,0,1.37-.74,2.82,2.82,0,0,1,1.26-.36c.19,0,.39,0,.59,0a.71.71,0,0,0,.24-.13,1,1,0,0,0-.19-.21,5.57,5.57,0,0,0-.54-.2c.24-.14.38-.25.54-.33a.31.31,0,0,0,.17-.43.38.38,0,0,1,0-.26c.32-.47.31-.53-.18-.81.17-.13.36-.28.16-.51s-.3-.26-.52-.12c0,0-.12.07-.12.12,0,.29-.24.34-.44.39a.45.45,0,0,1-.38-.06.4.4,0,0,1,0-.37c.1-.27.16-.49-.23-.67L56,14.4l.08,0-.21.11c-.19.1-.25,0-.22-.15a6.09,6.09,0,0,0-.15-2.21.86.86,0,0,0-.05-.23c-.09-.23,0-.35.3-.29l-.4-1.86a1.31,1.31,0,0,1,.41.2,1.06,1.06,0,0,0,1.36.36.82.82,0,0,1,.6-.1c.31,0,.3-.21.32-.49a3.3,3.3,0,0,0,.41.42c.1.07.31.15.35.11a.89.89,0,0,0,.16-.4c0-.06,0-.14-.06-.25a12.5,12.5,0,0,1,2.12-.1,8,8,0,0,1,3.19,1.34,9.2,9.2,0,0,0,3.38,1.31,5,5,0,0,0,3.71-.79,3.32,3.32,0,0,0,1.34-2.12,3.33,3.33,0,0,0,0-2A2.55,2.55,0,0,0,71,5.78a6.19,6.19,0,0,0-3.44-.17A9.85,9.85,0,0,0,64,7.24a7.76,7.76,0,0,1-3.43,1.35c-.36.05-.74,0-1.11.07s-.48.05-.71.05a1.19,1.19,0,0,1-.7-.15,3.86,3.86,0,0,0-1.2-.4c-.63-.11-1.26-.19-1.9-.24a6.22,6.22,0,0,0-1.14,0c-.45,0-.9.13-1.35.18-.66.08-1.33.14-2,.2h-.16L54.6,6.94l0-.1c-.32-.19-.62-.4-1-.57s-.61-.24-.9-.38c-.09,0-.2-.19-.18-.26.09-.35.21-.69.33-1a0,0,0,0,1,0,0c.7-.18.82-.81,1.07-1.37a.31.31,0,0,1-.14-.48,3.2,3.2,0,0,1,.26-.56A1.68,1.68,0,0,0,54.32.63c-.06-.21-.14-.4-.23-.63h.29c6,0,12,0,17.94,0A12.57,12.57,0,0,1,75,.46a6.63,6.63,0,0,1,2.63,1.27,5.81,5.81,0,0,1,2,3.11c.09.35.17.71.25,1.06Z"/><path class="cls-1" d="M80,29.78c-.1.35-.18.7-.31,1a4.13,4.13,0,0,1-2.42,2.47l-.71.28,2.06,3.73c-.8,0-1.56,0-2.32,0-.07,0-.16-.09-.2-.15-.34-.62-.68-1.24-1-1.86-.23-.42-.45-.84-.7-1.25a.41.41,0,0,0-.28-.18h-3l-.72,3.43H68.06c.83-4,1.66-7.92,2.49-11.9h.35c1.62,0,3.24,0,4.86,0a5.46,5.46,0,0,1,2.5.58,3,3,0,0,1,1.63,2.14.47.47,0,0,0,.06.09Zm-8.48,2.13c1.27,0,2.5,0,3.72,0A2.81,2.81,0,0,0,77,31.12a2.51,2.51,0,0,0,.72-1.59A1.77,1.77,0,0,0,77.22,28a2.18,2.18,0,0,0-1.5-.61c-1.09,0-2.17,0-3.28,0Z"/><path class="cls-1" d="M47.26,37.43l-1.07-.31a4.19,4.19,0,0,1-3-3.47,7.29,7.29,0,0,1,1.33-5.73,6.33,6.33,0,0,1,4.06-2.53,7.52,7.52,0,0,1,3.56.14A4.39,4.39,0,0,1,55.23,29a7.59,7.59,0,0,1-.93,5.25A6.18,6.18,0,0,1,52,36.49a6.3,6.3,0,0,1-2.56.88l-.06.06Zm-1.89-5a6.25,6.25,0,0,0,.08.72,2.63,2.63,0,0,0,1.48,2A4.32,4.32,0,0,0,52.4,33.3,5.89,5.89,0,0,0,53,29.75a2.66,2.66,0,0,0-1.48-2.16A3.87,3.87,0,0,0,49,27.28,3.94,3.94,0,0,0,46.31,29,6.18,6.18,0,0,0,45.37,32.38Z"/><path class="cls-1" d="M60,37.43a11.54,11.54,0,0,1-1.65-.59,3.39,3.39,0,0,1-1.86-2.53,6.71,6.71,0,0,1,.15-2.64c.29-1.36.57-2.72.85-4.08.15-.73.31-1.45.47-2.19h2.28c-.33,1.52-.66,3-1,4.54-.2,1-.45,2-.56,2.95a2.18,2.18,0,0,0,2,2.54,4,4,0,0,0,1.89-.11,3.22,3.22,0,0,0,2.18-2.26c.31-1,.52-2.11.76-3.18.27-1.24.52-2.48.78-3.72,0,0,0,0,0,0,.06-.23,0-.59.19-.68s.52-.05.79-.05h1.29l.1,0-.24,1.21c-.31,1.46-.6,2.92-.91,4.38a12.49,12.49,0,0,1-1,3.48,5.27,5.27,0,0,1-3.7,2.8c-.14,0-.26.08-.4.12Z"/><path class="cls-1" d="M21.85,10.47h-9l.82-1.3q2.12-3.24,4.22-6.48c.54-.82,1.06-1.66,1.6-2.48A.47.47,0,0,1,19.8,0h7.29Q29.52,11.68,32,23.37l-.29,0H25.15c-.21,0-.31,0-.36-.28-.29-1.5-.62-3-.93-4.47,0-.21-.11-.27-.32-.27h-8a.32.32,0,0,0-.32.21q-1.39,2.33-2.8,4.65a.39.39,0,0,1-.26.15H4.46l3.23-5H0v-.1l22.93-4.15L21.64,7.92l-1.2,2,1.4.53Z"/><path class="cls-1" d="M34.33,23.36l2.15-10.49h-6.1v-.08l12.55-2.27v0H37L37.91,6h-8.5L28.17,0H49.85a3.26,3.26,0,0,0-.2.43.46.46,0,0,0-.06.29c.22.45,0,.82-.17,1.22a1.81,1.81,0,0,0,0,.4c0,.22,0,.48-.06.64a2.32,2.32,0,0,0-.14,1.89c.06.26,0,.38-.26.47a4.86,4.86,0,0,1-1.36.24,5.33,5.33,0,0,0-1.06.27,3.17,3.17,0,0,1-.44.12A2.36,2.36,0,0,0,44.58,7.2,1.79,1.79,0,0,0,45,9.83,10.86,10.86,0,0,1,46.31,11c.3.34.6.23.93.18l1.91-.29,2-.3c.45-.07.91-.12,1.39-.15a1.43,1.43,0,0,1-.28.13l-5.16,1.76a1.66,1.66,0,0,0-.31.12c-.43.24-.81,0-1.21-.09s-.54-.18-.87-.29c0,.27-.06.52-.1.78A4.61,4.61,0,0,0,44.4,14a2.13,2.13,0,0,1-.15,1,2.5,2.5,0,0,1-.14.3l1.75-.82a12.23,12.23,0,0,1,3.2-.92c.48-.06,1-.09,1.45-.12.08,0,.17.07.26.11a.7.7,0,0,1-.21.14,19,19,0,0,0-3.92,1.56,8.69,8.69,0,0,0-1,.66,9.57,9.57,0,0,1,2.7-.47l.05.09a1.07,1.07,0,0,1-.25.16A16.8,16.8,0,0,0,43.56,18a4.29,4.29,0,0,0-.78.81c-.06.07,0,.23-.05.33a.7.7,0,0,1-.19.28,1.73,1.73,0,0,1-.31.14c-.44.22-.46.41-.06.68a.4.4,0,0,1,.08.65,4.08,4.08,0,0,0-.43.39,1.32,1.32,0,0,0-.26.53,2.09,2.09,0,0,0,0,.66.78.78,0,0,1-.35.77.51.51,0,0,1-.29.13H34.45Z"/><path class="cls-1" d="M35.33,37.3c.7-3.32,1.39-6.62,2.09-9.95h-3.9c0-.2,0-.37.07-.53.08-.41.17-.82.25-1.23,0-.21.19-.2.35-.2H44l-.42,1.95H39.69c-.16.72-.31,1.42-.46,2.13-.24,1.16-.47,2.32-.71,3.48-.28,1.37-.57,2.74-.86,4.11,0,.09-.14.23-.21.23C36.75,37.31,36.05,37.3,35.33,37.3Z"/><path class="cls-1" d="M64.45,8.23c0,.17-.1.35-.13.53a4.85,4.85,0,0,0-.11.75c0,.36-.14.46-.49.32s-.91-.35-1.35-.56c-.15-.07-.45,0-.42-.29s.29-.19.45-.26c.54-.24,1.09-.46,1.63-.69C64.28,7.92,64.45,8,64.45,8.23Z"/><path class="cls-1" d="M79.43,22.15l-.25,1.22h-.3l.05-.49-.47.46-.21-.48c-.19.15,0,.65-.49.5.07-.36.13-.72.21-1.07a.22.22,0,0,1,.19-.14.24.24,0,0,1,.2.13c.08.15.12.32.19.49C78.89,22.63,78.88,22,79.43,22.15Z"/><path class="cls-1" d="M76.75,22.24c.35-.23.76,0,1.14-.12l0,.1a2,2,0,0,0-.27.17c-.08.06-.19.12-.22.21s-.1.5-.16.77h-.35l.19-1-.37-.05Z"/></g></g></svg>