<svg xmlns="http://www.w3.org/2000/svg" viewBox="0 0 101.3 21.15"><defs><style>.cls-1{fill:#231f20;}</style></defs><g id="Layer_2" data-name="Layer 2"><g id="Layer_1-2" data-name="Layer 1"><polygon class="cls-1" points="55.77 21.15 45.22 13.44 42.58 14.91 42.58 21.15 40.37 21.15 40.37 5.96 42.58 5.96 42.58 12.48 54.65 5.96 58.5 5.96 47.13 12.27 58.98 21.15 55.77 21.15 55.77 21.15"/><path class="cls-1" d="M1.61,21.15A1.54,1.54,0,0,1,0,19.55V6H2.22V19.24H16.16v1.91Z"/><path class="cls-1" d="M24.18,14.48l4.24-7.31h0l4.23,7.31Zm6.26-7.75a2.12,2.12,0,0,0-2-1.21h-.08a2.12,2.12,0,0,0-2,1.21L18,21.15h2.38l2.71-4.74H33.74l2.71,4.74h2.38L30.44,6.73Z"/><path class="cls-1" d="M86.84,21.15a1.55,1.55,0,0,1-1.54-1.54V7.5A1.55,1.55,0,0,1,86.84,6H101.3V7.79H87.39v4.76H97.85v2H87.39v4.81H101.3v1.82Z"/><path class="cls-1" d="M71.86,16.41a2.12,2.12,0,0,0,1.63-.71S80.38,8.47,80.75,8h0V21.15h2V7.71a4.4,4.4,0,0,0,0-.45A1.76,1.76,0,0,0,81,5.67h-.07a2.21,2.21,0,0,0-1.54.74l-7.5,8.09h0l-7.5-8.09a2.23,2.23,0,0,0-1.54-.74H62.7a1.75,1.75,0,0,0-1.78,1.59,2.68,2.68,0,0,0-.05.45V21.15h2V8h0c.37.47,7.26,7.7,7.26,7.7a2.12,2.12,0,0,0,1.63.71Z"/><polygon class="cls-1" points="99.39 0 87.84 1.46 88.06 3.17 99.6 1.71 99.39 0 99.39 0"/></g></g></svg>