<svg xmlns="http://www.w3.org/2000/svg" xmlns:xlink="http://www.w3.org/1999/xlink" width="150" height="150" viewBox="0 0 150 150">
  <defs>
    <clipPath id="clip-path">
      <rect id="Rectangle_14" data-name="Rectangle 14" width="62.325" height="85.995" transform="translate(887.928 1545.619)" fill="none"/>
    </clipPath>
  </defs>
  <g id="_11" data-name="11" transform="translate(-1568 -1640)">
    <rect id="Rectangle_63" data-name="Rectangle 63" width="150" height="150" transform="translate(1568 1640)" fill="#fff" opacity="0"/>
    <g id="Group_16" data-name="Group 16" transform="translate(724.072 126.381)">
      <g id="Group_11" data-name="Group 11">
        <g id="Group_10" data-name="Group 10">
          <g id="Group_9" data-name="Group 9">
            <g id="Group_8" data-name="Group 8" clip-path="url(#clip-path)">
              <g id="Group_7" data-name="Group 7">
                <path id="Path_17" data-name="Path 17" d="M948.3,1555.5a17.035,17.035,0,0,1-14.333,2.932,21.054,21.054,0,0,1-14.767-12.7,21.135,21.135,0,0,1-14.766,12.7,17.423,17.423,0,0,1-14.442-2.921h-2.063v53.2a10.678,10.678,0,0,0,2.509,6.732c2.7,3.257,7.264,5.353,13.572,6.265,5.1.728,8.8,2.313,11.4,4.843a26.87,26.87,0,0,1,3.8,5.07,28.42,28.42,0,0,1,3.757-5.07c2.628-2.53,6.352-4.105,11.4-4.843,6.319-.913,10.858-3.04,13.572-6.308a10.506,10.506,0,0,0,2.509-6.646v-53.2h-2.074" fill="#fff"/>
                <path id="Path_18" data-name="Path 18" d="M948.516,1557.563a18.584,18.584,0,0,1-15.093,2.671,22.944,22.944,0,0,1-14.332-10.271,22.7,22.7,0,0,1-14.333,10.271,18.532,18.532,0,0,1-14.984-2.714v51.141c0,1.737.728,9.12,14.55,11.075,5.44.787,9.5,2.53,12.378,5.342a16.43,16.43,0,0,1,2.454,2.975,17.124,17.124,0,0,1,2.454-2.975c2.921-2.812,6.982-4.56,12.378-5.342,13.79-1.987,14.441-9.371,14.55-11.075V1557.52" fill="#013369"/>
                <path id="Path_19" data-name="Path 19" d="M919.2,1622.961s4-4.93,14.333-6.526c11.944-1.835,11.509-7.416,11.509-7.7v-26.819H893.249v26.819c0,.282-.352,5.863,11.509,7.7,10.381,1.607,14.333,6.526,14.333,6.526" fill="#fff"/>
                <g id="Group_5" data-name="Group 5">
                  <path id="Path_20" data-name="Path 20" d="M907.038,1601.538v-12.7l-1.6-.9v-3.3h7.286v3.3l-1.52.9v25.951l-3.887-1.162-5.625-16.613v10.967l1.792,1.368v3.377l-7.807-1.987v-2.878l1.792-.7v-18.35l-1.835-.907v-3.3h5.906l5.516,16.938" fill="#d50a0a"/>
                  <path id="Path_21" data-name="Path 21" d="M920.5,1613.156l1.564,1.868v3.3l-7.742-2.888v-2.8l1.705-.7v-23.128l-1.694-.859V1584.6H927.8v6.721h-2.953l-.9-2.758h-3.42v7.774h2.562l1.01-1.476h2.063v6.916H924.1l-.972-1.4h-2.606v12.812" fill="#d50a0a"/>
                  <path id="Path_22" data-name="Path 22" d="M929.08,1614.35v-3.3l1.922-1.575v-20.63l-1.64-.859v-3.344H937.1v3.344l-1.52.859v19.436l3.333-.9.639-5.082h3.181v8.491l-13.681,3.648" fill="#d50a0a"/>
                </g>
                <g id="Group_6" data-name="Group 6">
                  <path id="Path_23" data-name="Path 23" d="M894.606,1576.456l-2.345-1.759h2.866l.946-2.714.946,2.714h2.866l-2.345,1.77.862,2.758-2.334-1.64-2.335,1.64.862-2.758" fill="#fff"/>
                  <path id="Path_24" data-name="Path 24" d="M904.758,1576.456l-2.345-1.759h2.866l.946-2.714.946,2.714h2.866l-2.345,1.77.862,2.758-2.334-1.64-2.335,1.64.862-2.758" fill="#fff"/>
                  <path id="Path_25" data-name="Path 25" d="M894.606,1567.335l-2.345-1.759h2.866l.946-2.714.946,2.714h2.866l-2.345,1.77.862,2.758-2.334-1.639-2.335,1.639.862-2.758" fill="#fff"/>
                  <path id="Path_26" data-name="Path 26" d="M904.758,1567.335l-2.345-1.759h2.866l.946-2.714.946,2.714h2.866l-2.345,1.77.862,2.758-2.334-1.639-2.335,1.639.862-2.758" fill="#fff"/>
                  <path id="Path_27" data-name="Path 27" d="M944.607,1579.171l-2.334-1.64-2.335,1.64.862-2.758-2.345-1.77h2.866l.946-2.715.946,2.715h2.866l-2.345,1.77.863,2.758" fill="#fff"/>
                  <path id="Path_28" data-name="Path 28" d="M934.4,1579.171l-2.335-1.64-2.334,1.64.862-2.758-2.346-1.77h2.867l.946-2.715.946,2.715h2.867l-2.345,1.77.863,2.758" fill="#fff"/>
                  <path id="Path_29" data-name="Path 29" d="M944.607,1570.05l-2.334-1.64-2.335,1.64.862-2.758-2.345-1.77h2.866l.946-2.714.946,2.714h2.866l-2.345,1.77.863,2.758" fill="#fff"/>
                  <path id="Path_30" data-name="Path 30" d="M934.4,1570.05l-2.335-1.64-2.334,1.64.862-2.758-2.346-1.77h2.867l.946-2.714.946,2.714h2.867l-2.345,1.77.863,2.758" fill="#fff"/>
                  <path id="Path_31" data-name="Path 31" d="M921.371,1565.272a8.123,8.123,0,0,0-3.453-1.683c.3-.284.609-.528.88-.754a7.99,7.99,0,0,1,3.311,1.661c-.254.261-.5.515-.734.774Zm-1.509,1.814a8.093,8.093,0,0,0-3.573-1.738c.21-.27.455-.558.691-.825a8.043,8.043,0,0,1,3.561,1.705c-.238.286-.462.577-.673.854Zm-1.358,1.9a7.8,7.8,0,0,0-3.55-1.672s.377-.615.591-.933a8.073,8.073,0,0,1,3.572,1.715c-.219.313-.427.613-.613.889Zm7.091-9.077a13.815,13.815,0,0,0-2.91,2.3,7.976,7.976,0,0,1,1.058.724c-.256.226-.517.472-.761.7a7.926,7.926,0,0,0-3.138-1.585c.3-.212.609-.42.919-.622a8.206,8.206,0,0,1,.94.309,15.884,15.884,0,0,1,3.573-2.085,1.742,1.742,0,0,0-.7-.087c-7.525.1-14.441,5.711-13.138,15.31a12.144,12.144,0,0,0,1.04,3.691,29.249,29.249,0,0,1,2.552-8.936,7.815,7.815,0,0,0-1.13-.313c.183-.383.436-.87.436-.87a7.863,7.863,0,0,1,3.5,1.607c-.242.392-.406.647-.522.849a8.138,8.138,0,0,0-1.108-.738,31.087,31.087,0,0,0-3.311,8.545c.02.107.238.162.414.139,8.242-1.068,12.053-5.277,13.247-9.827a14.064,14.064,0,0,0-.515-8.664c-.072-.179-.214-.477-.453-.455" fill="#fff"/>
                </g>
              </g>
            </g>
          </g>
        </g>
      </g>
    </g>
  </g>
</svg>
