<svg xmlns="http://www.w3.org/2000/svg" width="150" height="150" viewBox="0 0 150 150">
  <g id="_2" data-name="2" transform="translate(-1568 -1640)">
    <rect id="Rectangle_63" data-name="Rectangle 63" width="150" height="150" transform="translate(1568 1640)" fill="#fff" opacity="0"/>
    <g id="Group_13" data-name="Group 13" transform="translate(1066.379 1178.3)">
      <path id="Path_1" data-name="Path 1" d="M616.574,525.917c-.083.415-.165.831-.251,1.246a17.3,17.3,0,0,1-.933,3.069,9.3,9.3,0,0,1-1.486,2.5,8.157,8.157,0,0,1-2.053,1.785,10.109,10.109,0,0,1-4.072,1.364,26.956,26.956,0,0,1-2.722.186c-2.143.027-4.287.009-6.43.009h-.362l-1.023,5.015H590.71a.9.9,0,0,1-.825-1.08,1.13,1.13,0,0,0-.345-1.275c-.44-.374-.47-.958-.635-1.469a.9.9,0,0,1-.06-.3c.009-.244-.15-.273-.324-.263-.546.034-1.1.053-1.637.126-.751.1-1.5.216-2.24.38a8.75,8.75,0,0,0-2.664.976,2.966,2.966,0,0,1-.5.243.283.283,0,0,1-.248-.038.25.25,0,0,1,.019-.241,2.617,2.617,0,0,1,.5-.5,18.384,18.384,0,0,1,5.755-2.458,7.047,7.047,0,0,0,1.3-.514,1.692,1.692,0,0,0,.777-1.36,9.9,9.9,0,0,1,.237-1.14c.027.074.06.146.081.221a10.269,10.269,0,0,0,.455,1.576,4.35,4.35,0,0,0,.845,1.088.556.556,0,0,0,.5.1,9.412,9.412,0,0,0,1.369-.732,2.719,2.719,0,0,1,1.258-.363c.2-.022.4.015.6,0,.083-.007.161-.083.242-.128-.063-.071-.113-.166-.191-.208a4.7,4.7,0,0,0-.538-.205c.234-.143.38-.246.538-.326a.324.324,0,0,0,.171-.438.351.351,0,0,1,0-.256c.318-.464.31-.526-.182-.806.173-.135.36-.281.163-.511-.134-.155-.3-.265-.514-.125-.049.032-.126.078-.127.119-.005.29-.235.342-.434.393a.465.465,0,0,1-.38-.054.423.423,0,0,1-.047-.375c.1-.266.166-.491-.221-.673l-.766,1.634.081.051c-.071.035-.145.066-.213.106-.185.106-.244,0-.215-.151a5.961,5.961,0,0,0-.148-2.2,1.24,1.24,0,0,0-.054-.237c-.089-.224-.043-.346.3-.286l-.4-1.864c.148.071.32.1.407.2a1.079,1.079,0,0,0,1.368.361.821.821,0,0,1,.6-.1c.307.036.3-.21.322-.492a3.688,3.688,0,0,0,.409.425c.1.071.306.148.344.108a.907.907,0,0,0,.164-.4c.015-.061-.029-.136-.057-.248a11.722,11.722,0,0,1,2.112-.094,7.794,7.794,0,0,1,3.2,1.34,9.182,9.182,0,0,0,3.382,1.307,4.992,4.992,0,0,0,3.7-.788,3.34,3.34,0,0,0,1.343-2.122,3.42,3.42,0,0,0-.01-2.006,2.537,2.537,0,0,0-1.627-1.523,6.212,6.212,0,0,0-3.44-.172,9.885,9.885,0,0,0-3.639,1.632,7.75,7.75,0,0,1-3.422,1.343c-.368.052-.744.046-1.116.071-.237.015-.472.051-.709.057a1.219,1.219,0,0,1-.7-.154,3.752,3.752,0,0,0-1.2-.4,17.223,17.223,0,0,0-1.893-.247,6.4,6.4,0,0,0-1.147.055c-.449.045-.894.129-1.343.179-.665.075-1.332.136-2,.2-.023,0-.048,0-.165-.008l4.341-1.408.04-.1c-.317-.192-.624-.4-.952-.573-.289-.149-.608-.24-.9-.382-.085-.042-.2-.187-.18-.255.089-.352.215-.695.33-1.04a.078.078,0,0,1,.042-.045c.7-.181.824-.811,1.074-1.366a.312.312,0,0,1-.144-.485,4,4,0,0,1,.26-.553,1.687,1.687,0,0,0,.146-1.516,6.279,6.279,0,0,0-.222-.622H591c5.981,0,11.962-.019,17.942.019a12.519,12.519,0,0,1,2.7.431,6.6,6.6,0,0,1,2.63,1.279,5.778,5.778,0,0,1,2.053,3.108c.093.349.168.7.252,1.055Z" fill="#25aff4"/>
      <path id="Path_2" data-name="Path 2" d="M616.574,547.482c-.1.347-.187.7-.309,1.039a4.169,4.169,0,0,1-2.426,2.471c-.225.1-.456.177-.71.275l2.065,3.738c-.8,0-1.562,0-2.321-.007a.3.3,0,0,1-.2-.151c-.349-.614-.689-1.234-1.03-1.852-.233-.421-.458-.847-.7-1.26a.4.4,0,0,0-.278-.17c-.982-.013-1.965-.008-2.985-.008l-.716,3.438h-2.287c.833-3.976,1.661-7.927,2.493-11.9h.352c1.62,0,3.241-.018,4.862.007a5.49,5.49,0,0,1,2.494.582,2.962,2.962,0,0,1,1.638,2.137c.006.034.039.064.059.095Zm-8.487,2.131c1.275,0,2.5.042,3.728-.017a2.742,2.742,0,0,0,1.763-.78,2.49,2.49,0,0,0,.726-1.588,1.8,1.8,0,0,0-.462-1.572,2.192,2.192,0,0,0-1.505-.6c-1.084-.046-2.171-.013-3.274-.013Z" fill="#25aff4"/>
      <path id="Path_3" data-name="Path 3" d="M583.883,555.131c-.357-.1-.717-.2-1.07-.313a4.185,4.185,0,0,1-2.987-3.468,7.352,7.352,0,0,1,1.332-5.732,6.339,6.339,0,0,1,4.066-2.525,7.42,7.42,0,0,1,3.554.136,4.394,4.394,0,0,1,3.073,3.417,7.555,7.555,0,0,1-.933,5.252,6.212,6.212,0,0,1-2.276,2.3,6.462,6.462,0,0,1-2.561.881c-.023,0-.043.036-.064.056Zm-1.9-5.048c.017.163.032.442.079.715a2.631,2.631,0,0,0,1.487,2.027,3.9,3.9,0,0,0,2.408.3A3.952,3.952,0,0,0,589.018,551a5.856,5.856,0,0,0,.644-3.545,2.682,2.682,0,0,0-1.479-2.167,3.9,3.9,0,0,0-2.528-.309,3.944,3.944,0,0,0-2.723,1.725A6.16,6.16,0,0,0,581.988,550.083Z" fill="#25aff4"/>
      <path id="Path_4" data-name="Path 4" d="M596.621,555.131a11.9,11.9,0,0,1-1.653-.588,3.41,3.41,0,0,1-1.861-2.537,6.778,6.778,0,0,1,.15-2.637c.3-1.357.57-2.719.855-4.078.152-.727.308-1.454.464-2.187h2.284c-.327,1.52-.659,3.026-.975,4.536-.205.98-.452,1.958-.564,2.95a2.178,2.178,0,0,0,1.986,2.538,4.032,4.032,0,0,0,1.9-.108,3.21,3.21,0,0,0,2.175-2.257c.311-1.044.527-2.117.762-3.183.273-1.236.521-2.478.78-3.718,0-.01.012-.018.014-.028.057-.238.038-.593.186-.686.2-.124.523-.051.793-.053.429,0,.858,0,1.286.005.019,0,.037.015.1.044-.079.4-.16.8-.244,1.209-.3,1.46-.6,2.921-.909,4.38a12.558,12.558,0,0,1-1.048,3.477,5.264,5.264,0,0,1-3.7,2.8c-.134.028-.263.081-.4.122Z" fill="#25aff4"/>
      <path id="Path_5" data-name="Path 5" d="M558.467,528.169h-9.016c.284-.448.55-.875.824-1.3q2.107-3.243,4.217-6.483c.535-.823,1.056-1.656,1.6-2.476a.485.485,0,0,1,.333-.2c2.4-.011,4.789-.008,7.184-.007a.841.841,0,0,1,.1.013q2.438,11.66,4.881,23.35c-.116.007-.205.018-.295.018q-3.263,0-6.525,0c-.206,0-.313-.013-.365-.283-.286-1.494-.618-2.98-.921-4.471-.042-.2-.118-.268-.325-.267q-3.984.009-7.968,0a.325.325,0,0,0-.321.208q-1.389,2.334-2.8,4.652a.36.36,0,0,1-.258.153c-2.552.008-5.1.007-7.73.007l3.229-4.995h-7.676l-.011-.1,22.931-4.152-1.3-6.222-1.191,1.978,1.4.531Z" fill="#25aff4"/>
      <path id="Path_6" data-name="Path 6" d="M570.946,541.059l2.157-10.492H567l-.008-.072,12.544-2.272v-.039h-5.944l.933-4.519h-8.494l-1.241-5.946h21.675c-.073.155-.145.288-.2.428-.035.093-.089.22-.054.293.217.452-.037.824-.171,1.222a1.709,1.709,0,0,0-.04.4c-.017.213.041.473-.061.632a2.3,2.3,0,0,0-.142,1.9c.063.259.016.377-.26.467a5.107,5.107,0,0,1-1.36.238,5.272,5.272,0,0,0-1.058.271,4.154,4.154,0,0,1-.442.124c-.731.112-1.1.68-1.486,1.2a1.792,1.792,0,0,0,.433,2.629,10.223,10.223,0,0,1,1.3,1.137c.3.338.6.226.923.18.64-.09,1.277-.2,1.915-.293.659-.1,1.317-.2,1.977-.3.454-.067.911-.122,1.388-.148a2.341,2.341,0,0,1-.271.133q-2.582.879-5.165,1.754a1.886,1.886,0,0,0-.312.126c-.425.238-.812.007-1.2-.1-.276-.074-.543-.176-.875-.286-.034.266-.061.522-.1.776a4.955,4.955,0,0,0-.185,1.2,2.213,2.213,0,0,1-.153,1.04c-.034.091-.082.178-.141.3.612-.287,1.178-.564,1.753-.82a11.867,11.867,0,0,1,3.2-.922c.48-.066.965-.094,1.449-.123.083-.005.171.071.256.109a.775.775,0,0,1-.206.14A19.161,19.161,0,0,0,583.257,533a9.23,9.23,0,0,0-1.04.656,9.572,9.572,0,0,1,2.708-.467l.049.087a1.186,1.186,0,0,1-.249.158,17.049,17.049,0,0,0-4.543,2.27,4.356,4.356,0,0,0-.779.812c-.062.073-.016.229-.056.333a.666.666,0,0,1-.189.279,1.545,1.545,0,0,1-.306.136c-.446.222-.462.414-.06.684a.4.4,0,0,1,.081.646,4.676,4.676,0,0,0-.435.393,1.355,1.355,0,0,0-.254.53,2.085,2.085,0,0,0-.006.655.79.79,0,0,1-.347.78.559.559,0,0,1-.294.127q-3.232.011-6.463,0A.8.8,0,0,1,570.946,541.059Z" fill="#25aff4"/>
      <path id="Path_7" data-name="Path 7" d="M571.95,555.005c.7-3.328,1.388-6.624,2.086-9.952h-3.9c.025-.2.038-.368.069-.531.08-.411.17-.82.251-1.231.042-.21.192-.2.353-.2q3.074,0,6.147,0h3.69l-.419,1.943h-3.922c-.153.72-.308,1.425-.454,2.133-.239,1.16-.469,2.322-.709,3.482q-.424,2.054-.868,4.105c-.02.093-.132.235-.2.237C573.374,555.012,572.675,555.005,571.95,555.005Z" fill="#25aff4"/>
      <path id="Path_8" data-name="Path 8" d="M601.075,525.932c-.045.169-.1.344-.137.524a5.89,5.89,0,0,0-.109.756c-.02.362-.143.454-.483.317-.454-.183-.914-.353-1.356-.56-.148-.07-.447.035-.423-.29.023-.3.294-.188.452-.258.541-.238,1.088-.463,1.631-.7C600.9,525.619,601.074,525.7,601.075,525.932Z" fill="#25aff4"/>
      <path id="Path_9" data-name="Path 9" d="M616.048,539.855l-.245,1.219h-.3l.049-.5-.469.461-.217-.477c-.188.154.031.653-.484.5.067-.359.126-.718.208-1.072a.25.25,0,0,1,.191-.142.268.268,0,0,1,.2.134,4.654,4.654,0,0,1,.19.489C615.516,540.33,615.5,539.707,616.048,539.855Z" fill="#25aff4"/>
      <path id="Path_10" data-name="Path 10" d="M613.368,539.936c.351-.227.766-.031,1.138-.116l.05.1c-.087.056-.179.106-.26.17s-.2.128-.224.214c-.072.243-.105.5-.158.767h-.355l.193-.959-.37-.047Z" fill="#25aff4"/>
    </g>
  </g>
</svg>
