<svg xmlns="http://www.w3.org/2000/svg" width="150" height="150" viewBox="0 0 150 150">
  <g id="_6" data-name="6" transform="translate(-1568 -1640)">
    <rect id="Rectangle_63" data-name="Rectangle 63" width="150" height="150" transform="translate(1568 1640)" fill="#fff" opacity="0"/>
    <g id="Group_9" data-name="Group 9" transform="translate(56.284 -71.974)">
      <path id="Path_30" data-name="Path 30" d="M946.483,1014.123l-10.551-7.708-2.634,1.47v6.238h-2.215V998.936H933.3v6.52l12.063-6.52h3.857l-11.375,6.3,11.857,8.883Z" transform="translate(645 783)" fill="#231f20"/>
      <path id="Path_31" data-name="Path 31" d="M892.321,1014.123a1.546,1.546,0,0,1-1.6-1.6V998.936h2.223v13.274h13.933v1.913Z" transform="translate(645 783)" fill="#231f20"/>
      <path id="Path_32" data-name="Path 32" d="M914.893,1007.457l4.243-7.309h.018l4.233,7.309Zm6.263-7.754a2.138,2.138,0,0,0-1.99-1.213h-.082a2.137,2.137,0,0,0-1.989,1.213l-8.39,14.419h2.381l2.708-4.74h10.664l2.707,4.74h2.382L921.156,999.7Z" transform="translate(645 783)" fill="#231f20"/>
      <path id="Path_33" data-name="Path 33" d="M977.559,1014.123a1.537,1.537,0,0,1-1.539-1.536v-12.113a1.54,1.54,0,0,1,1.539-1.538h14.455v1.824H978.1v4.766h10.468v1.967H978.1v4.808h13.911v1.822Z" transform="translate(645 783)" fill="#231f20"/>
      <path id="Path_34" data-name="Path 34" d="M962.576,1009.383a2.118,2.118,0,0,0,1.629-.71s6.886-7.224,7.26-7.7h.019v13.151h2.028v-13.439a3.506,3.506,0,0,0-.045-.449,1.762,1.762,0,0,0-1.788-1.588H971.6a2.206,2.206,0,0,0-1.542.742l-7.5,8.081h-.029l-7.5-8.081a2.2,2.2,0,0,0-1.538-.742h-.078a1.76,1.76,0,0,0-1.786,1.588,3.384,3.384,0,0,0-.048.449v13.439h2.03v-13.151h.018c.375.477,7.261,7.7,7.261,7.7a2.116,2.116,0,0,0,1.629.71Z" transform="translate(645 783)" fill="#231f20"/>
      <path id="Path_35" data-name="Path 35" d="M990.1,992.974l-11.54,1.458.214,1.715,11.541-1.459-.215-1.714Z" transform="translate(645 783)" fill="#231f20"/>
    </g>
  </g>
</svg>
