<svg xmlns="http://www.w3.org/2000/svg" width="150" height="150" viewBox="0 0 150 150">
  <g id="_7" data-name="7" transform="translate(-1568 -1640)">
    <rect id="Rectangle_63" data-name="Rectangle 63" width="150" height="150" transform="translate(1568 1640)" fill="#fff" opacity="0"/>
    <g id="Group_11" data-name="Group 11" transform="translate(1154.03 530.441)">
      <path id="Path_17" data-name="Path 17" d="M478.334,1180.049a21.1,21.1,0,0,1-7.851-1.73,16.479,16.479,0,0,1-5.285-3.273,9.661,9.661,0,0,1-2.148-2.788,1.8,1.8,0,0,1-.049-1.778.847.847,0,0,0-.219-1.048c-.357-.314-.753-.584-1.1-.9a8.223,8.223,0,0,1-.927-.967,1.173,1.173,0,0,1-.122-1.357.921.921,0,0,0-.279-1.391c-.522-.424-1.105-.776-1.66-1.161-.428-.3-.856-.592-1.28-.894a1.193,1.193,0,0,1-.213-.213c-.366-.428-.294-.805.248-.953a15.314,15.314,0,0,1,2.168-.44,43.624,43.624,0,0,1,6.13-.337,22.551,22.551,0,0,1,9.437,2.027,11.451,11.451,0,0,1,5.191,4.568,12.2,12.2,0,0,1,1.292,3.765,12.47,12.47,0,0,0,1.846,4.827,14.468,14.468,0,0,0,1.476,1.687c.491.508.5.622-.123.946a11.837,11.837,0,0,1-4.26,1.244C479.849,1179.963,479.09,1179.995,478.334,1180.049Z" fill="#004699"/>
      <path id="Path_18" data-name="Path 18" d="M462.589,1175.552l3.36,2.966c-.221.694-.495,1.4-.669,2.134a9.274,9.274,0,0,0,3.855,9.885,8.1,8.1,0,0,0,10.014-.959,9.3,9.3,0,0,0,2.885-7.235c0-.1,0-.2,0-.3a12.843,12.843,0,0,0,3.939-1.717,13.5,13.5,0,0,0,4.9-5.435,24.4,24.4,0,0,1,2.487-4.129,14.261,14.261,0,0,1,6.245-4.676c.64-.245,1.274-.5,1.91-.76.16-.064.321-.132.475-.211.622-.318.715-.733.183-1.192a8.362,8.362,0,0,0-1.3-.789,7,7,0,0,1-.944-.543,1.629,1.629,0,0,1-.66-1.789,1.779,1.779,0,0,1,1.649-1.238,3.081,3.081,0,0,1,1.179.166,9.725,9.725,0,0,1,3.587,2.321,3.785,3.785,0,0,1,1.2,2.595,3.165,3.165,0,0,1-1.278,2.554,11.889,11.889,0,0,1-2.893,1.657c-.841.379-1.684.753-2.525,1.133a9.322,9.322,0,0,0-3.7,3.143,26.641,26.641,0,0,0-2.48,4.509,15.6,15.6,0,0,1-2.734,4.216,13.5,13.5,0,0,1-4.594,3.173,1.286,1.286,0,0,0-.814.975c-1.417,5.068-4.657,8.353-9.846,9.337a12.263,12.263,0,0,1-13.048-5.276,11.822,11.822,0,0,1-2.151-6.021,14.8,14.8,0,0,1,1.5-8.005C462.407,1175.861,462.51,1175.692,462.589,1175.552Z" fill="#004699"/>
      <path id="Path_19" data-name="Path 19" d="M521.192,1182.747c-.225,5.189-2.431,9.105-7.041,11.534a12,12,0,0,1-5.437,1.327,12.484,12.484,0,0,1-9.026-3.39,12.137,12.137,0,0,1-3.8-6.919,12.925,12.925,0,0,1,3-11.2,11.956,11.956,0,0,1,7.636-4.154,12.374,12.374,0,0,1,10.769,3.472,12.51,12.51,0,0,1,3.687,7.222C521.088,1181.352,521.125,1182.075,521.192,1182.747Zm-13.41,9.091a8.456,8.456,0,0,0,5.112-1.361,8.97,8.97,0,0,0,4.008-8.1,9.268,9.268,0,0,0-2.547-6.171,7.928,7.928,0,0,0-9.887-1.56,9.152,9.152,0,0,0-4.549,8.267,8.519,8.519,0,0,0,1.029,4.19C502.545,1190.07,505,1191.707,507.782,1191.838Z" fill="#004699"/>
      <path id="Path_20" data-name="Path 20" d="M491.045,1198.537v4.247a.87.87,0,0,0,.13-.092,3.51,3.51,0,0,1,5.707,1.014,3.984,3.984,0,0,1-1.919,5.414,3.675,3.675,0,0,1-5.087-3,7.79,7.79,0,0,1-.04-.93c0-2.1,0-4.21-.007-6.315,0-.256.058-.364.332-.342S490.725,1198.537,491.045,1198.537Zm4.977,6.977a2.939,2.939,0,0,0-.692-1.893,2.3,2.3,0,0,0-3.443-.1,2.89,2.89,0,0,0,.167,4.125,2.255,2.255,0,0,0,3,.024A2.884,2.884,0,0,0,496.022,1205.514Z" fill="#004699"/>
      <path id="Path_21" data-name="Path 21" d="M510.692,1207.083a2.421,2.421,0,0,0,1.91,1.108,2.381,2.381,0,0,0,2.314-1.131.435.435,0,0,1,.3-.168c.353-.021.708-.008,1.1-.008a3.645,3.645,0,0,1-1.143,1.715,3.825,3.825,0,0,1-6.12-2.294,3.907,3.907,0,0,1,1.774-4.167,3.653,3.653,0,0,1,5.367,2.043c.168.494.167.493-.317.7l-4.918,2.081C510.876,1206.995,510.8,1207.035,510.692,1207.083Zm4.069-3.007a2.315,2.315,0,0,0-2.883-1.1,2.649,2.649,0,0,0-1.573,2.982Z" fill="#004699"/>
      <path id="Path_22" data-name="Path 22" d="M471.191,1207.077a2.36,2.36,0,0,0,1.559,1.061,2.412,2.412,0,0,0,2.68-1.1.323.323,0,0,1,.2-.148c.382-.014.764-.007,1.182-.007a3.4,3.4,0,0,1-.973,1.568,3.668,3.668,0,0,1-3.766.74,3.558,3.558,0,0,1-2.506-2.836,3.931,3.931,0,0,1,2.254-4.471,3.677,3.677,0,0,1,4.95,2.533c.022.078.038.158.064.268l-2.822,1.194Zm4.075-3a2.31,2.31,0,0,0-2.928-1.084,2.638,2.638,0,0,0-1.524,2.96Z" fill="#004699"/>
      <path id="Path_23" data-name="Path 23" d="M503.257,1205.067c.55-.536,1.047-1.019,1.543-1.5.548-.538,1.09-1.083,1.647-1.612a.628.628,0,0,1,.379-.157c.509-.018,1.019-.007,1.528-.007l.038.07-2.8,2.729,3.113,4.623c-.523,0-.985.012-1.445-.01-.087,0-.185-.13-.247-.222q-1.083-1.6-2.158-3.209c-.055-.082-.112-.163-.192-.28a9.038,9.038,0,0,1-.824.779,1.423,1.423,0,0,0-.586,1.421,13.289,13.289,0,0,1,.006,1.4.82.82,0,0,1-.017.1H502.03v-10.651h1.227v6.529Z" fill="#004699"/>
      <path id="Path_24" data-name="Path 24" d="M463.033,1202.52a2.941,2.941,0,0,1,1.629-.873,2.723,2.723,0,0,1,3.269,2.29,4.444,4.444,0,0,1,.068.708c.007,1.455,0,2.91,0,4.365,0,.054-.009.108-.016.181h-1.23v-.326c0-1.382,0-2.764,0-4.146a2.726,2.726,0,0,0-.072-.624,1.665,1.665,0,0,0-1.907-1.311,1.843,1.843,0,0,0-1.673,1.558,4.837,4.837,0,0,0-.039.6c0,1.3,0,2.6,0,3.9v.348h-1.233c-.005-.091-.014-.179-.014-.267,0-2.279,0-4.557-.006-6.836,0-.246.069-.326.309-.3a4.286,4.286,0,0,0,.631,0c.208-.013.311.051.287.277C463.021,1202.186,463.033,1202.314,463.033,1202.52Z" fill="#004699"/>
      <path id="Path_25" data-name="Path 25" d="M480.891,1206.377l-1.088,1.65c-.216.329-.435.655-.643.989a.361.361,0,0,1-.352.2c-.419-.013-.838,0-1.313,0,.075-.121.122-.2.176-.282.764-1.1,1.524-2.214,2.3-3.313a.328.328,0,0,0,0-.451c-.719-1.025-1.427-2.059-2.138-3.09-.051-.073-.1-.149-.181-.283.525,0,.995-.007,1.463.008.066,0,.143.1.19.174.478.725.95,1.454,1.425,2.181.049.074.1.145.171.242.439-.671.9-1.3,1.274-1.975a1.046,1.046,0,0,1,1.2-.641,5.593,5.593,0,0,0,.787.006l-2.5,3.6,2.652,3.82c-.537,0-1.009.007-1.48-.008-.065,0-.142-.1-.189-.173-.524-.792-1.044-1.589-1.566-2.383C481.025,1206.563,480.967,1206.485,480.891,1206.377Z" fill="#004699"/>
      <path id="Path_26" data-name="Path 26" d="M486.639,1203c-.008.107-.019.2-.02.285,0,1.07,0,2.141,0,3.211a2.486,2.486,0,0,0,.055.516,1.255,1.255,0,0,0,1.287,1.018c.1.005.2,0,.342,0,0,.356.006.7-.008,1.043,0,.046-.1.121-.162.126a2.355,2.355,0,0,1-2.7-2,3.371,3.371,0,0,1-.061-.626q-.008-3.06,0-6.12c0-.063.006-.126.011-.212h1.232v1.533c.481,0,.926.013,1.37-.005.24-.01.334.06.312.306a4.518,4.518,0,0,0,0,.658c.012.2-.056.275-.265.269C487.575,1202.991,487.118,1203,486.639,1203Z" fill="#004699"/>
      <path id="Path_27" data-name="Path 27" d="M498.7,1202.333h1.223v6.861H498.7Z" fill="#004699"/>
      <path id="Path_28" data-name="Path 28" d="M500,1200.965a.724.724,0,1,1-.717-.73A.708.708,0,0,1,500,1200.965Z" fill="#004699"/>
    </g>
  </g>
</svg>
