<svg xmlns="http://www.w3.org/2000/svg" viewBox="0 0 286.47 128.51"><defs><style>.cls-1{fill:#fff;}.cls-2{fill:#fa0a0a;}</style></defs><g id="Layer_2" data-name="Layer 2"><g id="Layer_1-2" data-name="Layer 1"><path class="cls-1" d="M286.47,87.57H222.2V2.5h64.27V20.05h-46.6V36.32h42.66V53.89H239.87V69.74h46.6Z"/><polygon class="cls-2" points="126.26 2.44 126.26 20.13 136.34 20.13 136.34 87.57 154.08 87.57 154.08 2.4 126.26 2.44"/><path class="cls-1" d="M207.32,24.93l12.41-12.58a44.2,44.2,0,0,0-23.9-10.56c-.62-.07-1.25-.14-1.89-.19-.33,0-1.5-.07-2.67-.06s-2.13.06-2.44.08c-1.24.08-2.43.2-2.64.22-.65.08-1.28.17-1.9.27A45.57,45.57,0,0,0,179,3.35c-13.15,3.8-19,12.88-19.12,23.34-.14,12.5,6.35,19.19,19.81,23.57s19.34,6.21,19,13.93c-.26,5.79-6.49,11.41-19.8,7.32a28.28,28.28,0,0,1-10.54-7L155.87,77s8.2,9.08,23.7,11,26.72-1.78,33.89-11.41,7.65-26-6.49-34.23c0,0-1.16-1.37-14.21-5.81-7.31-2.49-10.69-4.07-12.3-5.93a6.88,6.88,0,0,1-1.32-2.73,7.3,7.3,0,0,1-.2-2.35,7.79,7.79,0,0,1,.89-3.13,10.75,10.75,0,0,1,7.89-5.1A22.27,22.27,0,0,1,207.32,24.93Z"/><path class="cls-1" d="M129.15,87.55,101.81,56.28l.27-.09c.22-.07,1.65-.44,2.06-.57a31.1,31.1,0,0,0,4-1.43c10.39-4.7,16.37-15.59,16.37-27.26C124.49,10.8,112.29,0,94,0H52.82V87.57H70.51v-31h9l26.16,31ZM70.51,38.75V17.57H94c8,0,13.34,4.28,13.34,10.59S102,38.75,94,38.75Z"/><path class="cls-2" d="M43.91,87.57A22,22,0,0,0,0,87.57Z"/><path class="cls-1" d="M125.88,128.29l-3.54,0-3.23-11.53L116,128.37l-3.51,0L107.31,111l3.43,0,3.55,12.36,3.33-12.42,2.85,0L124,123.27l3.33-12.41,3.46,0Z"/><path class="cls-1" d="M143.63,122.11a6.55,6.55,0,1,1-6.56-6.28A6.29,6.29,0,0,1,143.63,122.11Zm-3.1,0a3.45,3.45,0,1,0-3.38,3.63A3.49,3.49,0,0,0,140.53,122.14Z"/><path class="cls-1" d="M154.37,115.89l-.15,3.08h-.7c-3,0-4.29,1.86-4.26,5.22l0,3.9-3.19,0L146,116l3.2,0,0,2.2a5.08,5.08,0,0,1,4.31-2.41A2.71,2.71,0,0,1,154.37,115.89Z"/><path class="cls-1" d="M156.48,128l-.15-17.42,3.19,0,.15,17.43Z"/><path class="cls-1" d="M175.2,127.86l-3.19,0v-1a6.31,6.31,0,1,1-4.09-11.45,6,6,0,0,1,4,1.29l0-6.31,3.19,0Zm-3.24-6a3.52,3.52,0,0,0-3.47-3.6,3.63,3.63,0,0,0,.06,7.24A3.5,3.5,0,0,0,172,121.86Z"/><path class="cls-1" d="M191.68,127.74l-2.88,0-2.43-7.1L184,127.81l-2.88,0L177,115.77l3.17,0,2.46,7.41,2.41-7.45,2.49,0,2.53,7.43,2.33-7.47,3.17,0Z"/><path class="cls-1" d="M201.19,112a1.94,1.94,0,0,1-3.87,0,1.94,1.94,0,0,1,3.87,0Zm-3.39,15.72-.11-12.08,3.2,0,.1,12.08Z"/><path class="cls-1" d="M216.69,127.5l-3.19,0v-.94a6.21,6.21,0,0,1-4,1.34,6.42,6.42,0,0,1-.11-12.8,6.06,6.06,0,0,1,4,1.29l-.05-6.31,3.19,0Zm-3.24-6a3.52,3.52,0,0,0-3.47-3.6,3.63,3.63,0,0,0,.06,7.24A3.5,3.5,0,0,0,213.45,121.5Z"/><path class="cls-1" d="M231.43,122.2l-9.19.08a3.13,3.13,0,0,0,3,2.78,3.08,3.08,0,0,0,3-1.63l2.86.58a6,6,0,0,1-5.82,3.78,6.41,6.41,0,1,1,6.11-6.68ZM222.31,120l5.83,0a2.81,2.81,0,0,0-2.87-2.2A3,3,0,0,0,222.31,120Z"/></g></g></svg>