<?xml version="1.0" encoding="utf-8"?>
<!-- Generator: Adobe Illustrator 25.1.0, SVG Export Plug-In . SVG Version: 6.00 Build 0)  -->
<svg version="1.1" id="Layer_1" xmlns="http://www.w3.org/2000/svg" xmlns:xlink="http://www.w3.org/1999/xlink" x="0px" y="0px"
	 viewBox="0 0 182.8 20.3" style="enable-background:new 0 0 182.8 20.3;" xml:space="preserve">
<style type="text/css">
	.st0{fill:#FFFFFF;}
</style>
<g>
	<path class="st0" d="M12,19.9l-5.9-6.7H4.8v6.7H0V0.4h9.8c4.2,0,7,2.6,7,6.4c0,3.2-2,5.5-5.1,6.2l6.1,6.9H12z M9.3,9.2
		c1.7,0,2.8-0.9,2.8-2.3c0-1.4-1.1-2.3-2.8-2.3H4.8v4.7H9.3z"/>
	<path class="st0" d="M27.3,15.7H31v4.2H18.9v-4.2h3.7V4.6h-3.7V0.4H31v4.2h-3.7V15.7z"/>
	<path class="st0" d="M48.9,5.6l-4.7,1c-0.3-1.8-1.9-2.7-3.4-2.7c-1.6,0-2.6,0.9-2.6,2c0,0.8,0.3,1.4,1.6,1.6l4,0.9
		c3.4,0.8,5.3,2.6,5.3,5.7c0,4.1-3.7,6.3-8,6.3c-4.4,0-8-2.1-8.5-5.9l4.9-1c0.5,2,1.9,2.9,3.8,2.9c1.8,0,2.9-0.8,2.9-2
		c0-0.9-0.4-1.4-1.8-1.7l-4.1-0.9c-2.8-0.6-5.2-2.1-5.2-5.6c0-3.8,3.1-6.1,7.7-6.1C45.1,0,48.2,2.1,48.9,5.6z"/>
	<path class="st0" d="M67.2,19.9H52V0.4h15.1v4.1H56.8v3.7h9.4v3.9h-9.4v3.7h10.4V19.9z"/>
	<path class="st0" d="M91.2,19.9l-1.4-3.5h-8.2l-1.4,3.5h-5.1l8.1-19.4h4.9l8.1,19.4H91.2z M85.8,5.8l-2.5,6.4h5L85.8,5.8z"/>
	<path class="st0" d="M113.2,5.6l-4.7,1c-0.3-1.8-1.9-2.7-3.4-2.7c-1.6,0-2.6,0.9-2.6,2c0,0.8,0.3,1.4,1.6,1.6l4,0.9
		c3.4,0.8,5.3,2.6,5.3,5.7c0,4.1-3.7,6.3-8,6.3c-4.4,0-8-2.1-8.5-5.9l4.9-1c0.5,2,1.9,2.9,3.8,2.9c1.8,0,2.9-0.8,2.9-2
		c0-0.9-0.4-1.4-1.8-1.7l-4.1-0.9c-2.8-0.6-5.2-2.1-5.2-5.6c0-3.8,3.1-6.1,7.7-6.1C109.4,0,112.5,2.1,113.2,5.6z"/>
	<path class="st0" d="M143,10.2c0,5.7-4.6,10.1-10.4,10.1c-5.8,0-10.4-4.5-10.4-10.1c0-5.7,4.6-10.2,10.4-10.2
		C138.5,0,143,4.5,143,10.2z M138.2,10.2c0-3.3-2.4-5.8-5.6-5.8c-3.2,0-5.6,2.5-5.6,5.8c0,3.3,2.4,5.7,5.6,5.7
		C135.8,15.9,138.2,13.5,138.2,10.2z"/>
	<path class="st0" d="M164.3,19.9h-3.9l-9.8-11.3v11.3h-4.8V0.4h4l9.8,11.6V0.4h4.8V19.9z"/>
	<path class="st0" d="M182.8,19.9h-15.1V0.4h15.1v4.1h-10.3v3.7h9.4v3.9h-9.4v3.7h10.4V19.9z"/>
</g>
<g>
</g>
<g>
</g>
<g>
</g>
<g>
</g>
<g>
</g>
<g>
</g>
</svg>
