<svg xmlns="http://www.w3.org/2000/svg" viewBox="0 0 182.57 20.3"><defs><style>.cls-1{fill:#fff;}</style></defs><g id="Layer_2" data-name="Layer 2"><g id="Layer_1-2" data-name="Layer 1"><path class="cls-1" d="M12.42,19.87,6,12.73H4v7.14H0V.44H9.31c4.18,0,7,2.46,7,6.14,0,3.25-2.17,5.57-5.57,6.07l6.53,7.22ZM9.31,9.17c1.83,0,3-1.05,3-2.59S11.14,4,9.31,4H4V9.17Z"/><path class="cls-1" d="M26.4,16.3h4.06v3.57H18.39V16.3h4.06V4H18.39V.44H30.46V4H26.4Z"/><path class="cls-1" d="M47.89,5.6,44,6.41a3.68,3.68,0,0,0-3.83-3C38.14,3.39,37,4.5,37,5.8c0,1,.44,1.68,1.95,2l4.18.84c3.16.67,5.1,2.56,5.1,5.57,0,3.78-3.1,6.12-7.72,6.12-4.06,0-7.62-1.88-8.12-5.77l4.15-.84c.52,2.21,2.15,3.16,4.35,3.16s3.45-1.07,3.45-2.46c0-1.1-.52-1.77-2.26-2.12l-4.12-.78c-2.32-.5-5.1-1.77-5.1-5.57C32.81,2.44,35.65,0,40.2,0,44.15,0,47.14,2.15,47.89,5.6Z"/><path class="cls-1" d="M66.42,19.87H51.66V.44H66.37V4H55.61V8.38h9.92v3.51H55.61V16.3H66.42Z"/><path class="cls-1" d="M91.31,19.87l-1.68-4.15H81l-1.71,4.15H75.07L83.48.44h3.68l8.42,19.43Zm-6-14.65-2.85,6.93h5.66Z"/><path class="cls-1" d="M112.11,5.6l-4,.81a3.68,3.68,0,0,0-3.83-3c-2,0-3.16,1.11-3.16,2.41,0,1,.44,1.68,2,2l4.17.84c3.17.67,5.11,2.56,5.11,5.57,0,3.78-3.11,6.12-7.72,6.12-4.06,0-7.63-1.88-8.12-5.77l4.15-.84c.52,2.21,2.15,3.16,4.35,3.16s3.45-1.07,3.45-2.46c0-1.1-.52-1.77-2.26-2.12l-4.12-.78C99.81,11,97,9.72,97,5.92,97,2.44,99.87,0,104.42,0,108.37,0,111.35,2.15,112.11,5.6Z"/><path class="cls-1" d="M142.54,10.18A10.24,10.24,0,1,1,132.3,0,10.08,10.08,0,0,1,142.54,10.18Zm-4,0a6.27,6.27,0,1,0-12.53,0,6.27,6.27,0,1,0,12.53,0Z"/><path class="cls-1" d="M163.74,19.87h-3.31L149.67,7.4V19.87h-3.94V.44H149l10.76,12.82V.44h4Z"/><path class="cls-1" d="M182.57,19.87H167.8V.44h14.71V4H171.75V8.38h9.92v3.51h-9.92V16.3h10.82Z"/></g></g></svg>